<?xml version="1.0" encoding="UTF-8"?>
<svg width="56px" height="72px" viewBox="0 0 56 72" version="1.1" xmlns="http://www.w3.org/2000/svg" xmlns:xlink="http://www.w3.org/1999/xlink">
    <!-- Generator: Sketch 49 (51002) - http://www.bohemiancoding.com/sketch -->
    <title>Group</title>
    <desc>Created with Sketch.</desc>
    <defs>
        <filter x="-10.0%" y="-6.1%" width="120.0%" height="115.2%" filterUnits="objectBoundingBox" id="filter-1">
            <feOffset dx="0" dy="1" in="SourceAlpha" result="shadowOffsetOuter1"></feOffset>
            <feGaussianBlur stdDeviation="1.5" in="shadowOffsetOuter1" result="shadowBlurOuter1"></feGaussianBlur>
            <feColorMatrix values="0 0 0 0 0   0 0 0 0 0   0 0 0 0 0  0 0 0 0.37573596 0" type="matrix" in="shadowBlurOuter1" result="shadowMatrixOuter1"></feColorMatrix>
            <feMerge>
                <feMergeNode in="shadowMatrixOuter1"></feMergeNode>
                <feMergeNode in="SourceGraphic"></feMergeNode>
            </feMerge>
        </filter>
    </defs>
    <g id="Page-1" stroke="none" stroke-width="1" fill="none" fill-rule="evenodd">
        <g id="Group" transform="translate(3.000000, 2.000000)">
            <g id="marker" filter="url(#filter-1)" fill="#31D0C9" fill-rule="nonzero">
                <path d="M25,0 C11.2573925,0 0.077016129,10.7226797 0.077016129,23.9025703 C0.077016129,40.2592266 22.3806452,64.2717539 23.3302419,65.2859883 C24.2221774,66.2387344 25.7794355,66.2370586 26.6697581,65.2859883 C27.6193548,64.2717539 49.9229839,40.2592266 49.9229839,23.9025703 C49.9227151,10.7226797 38.7424731,0 25,0 Z M25,35.9286211 C18.0857527,35.9286211 12.4607527,30.5337656 12.4607527,23.9025703 C12.4607527,17.271375 18.0858871,11.8766484 25,11.8766484 C31.9141129,11.8766484 37.5391129,17.2715039 37.5391129,23.9026992 C37.5391129,30.5338945 31.9141129,35.9286211 25,35.9286211 Z" id="Shape"></path>
            </g>
            <ellipse id="Oval" fill="#31D0C9" cx="25" cy="23.7794118" rx="13.5416667" ry="13.1029412"></ellipse>
            <text id="M" font-family="Arial-Black, Arial Black" font-size="25" font-weight="700" fill="#FFFFFF">
                <tspan x="5" y="33">M</tspan>
            </text>
            <text id="A" font-family="Arial-Black, Arial Black" font-size="25" font-weight="700" fill="#FFFFFF">
                <tspan x="25" y="33">A</tspan>
            </text>
        </g>
    </g>
</svg>