<svg height="72" viewBox="0 0 56 72" width="56" xmlns="http://www.w3.org/2000/svg" xmlns:xlink="http://www.w3.org/1999/xlink"><filter id="a" height="115.2%" y="-6.1%"><feOffset dx="0" dy="1" in="SourceAlpha" result="shadowOffsetOuter1"/><feGaussianBlur in="shadowOffsetOuter1" result="shadowBlurOuter1" stdDeviation="1.5"/><feColorMatrix in="shadowBlurOuter1" result="shadowMatrixOuter1" type="matrix" values="0 0 0 0 0   0 0 0 0 0   0 0 0 0 0  0 0 0 0.37573596 0"/><feMerge><feMergeNode in="shadowMatrixOuter1"/><feMergeNode in="SourceGraphic"/></feMerge></filter><g fill="none" fill-rule="evenodd" transform="translate(3 2)"><g fill="#31d0c9" fill-rule="nonzero" filter="url(#a)"><path d="m25 0c-13.7426075 0-24.92298387 10.7226797-24.92298387 23.9025703 0 16.3566563 22.30362907 40.3691836 23.25322577 41.383418.8919355.9527461 2.4491936.9510703 3.3395162 0 .9495967-1.0142344 23.2532258-25.0267617 23.2532258-41.383418-.0002688-13.1798906-11.1805108-23.9025703-24.9229839-23.9025703zm0 35.9286211c-6.9142473 0-12.5392473-5.3948555-12.5392473-12.0260508s5.6251344-12.0259219 12.5392473-12.0259219 12.5391129 5.3948555 12.5391129 12.0260508-5.625 12.0259219-12.5391129 12.0259219z"/></g><ellipse cx="25" cy="23.779412" fill="#31d0c9" rx="13.541667" ry="13.102941"/><g fill="#fff" font-family="Arial-Black, Arial Black" font-size="25" font-weight="700"><text><tspan x="5" y="33">M</tspan></text><text><tspan x="25" y="33">A</tspan></text></g></g></svg>