<svg height="68" viewBox="0 0 60 68" width="60" xmlns="http://www.w3.org/2000/svg"><g fill="none"><path d="m5.4453125 61.09375-5.4453125-61.09375h59.8984375l-5.4453125 61.09375-24.5703125 6.90625z" fill="#f1dd3f"/><path d="m33.8539062 12.3515625-1.9390624 7.4375h8.5929687l-.6640625 7.703125h-9.9609375l-1.9789062 7.5703125h11.2757812l-.9296875 9.6953125-8.3671875 2.2578125-4.78125-1.2882812-1.8992187 7.278125 6.6804687 1.8460937h.1328125l15.40625-4.25 3.3203125-38.25z" fill="#323330"/><path d="m21.515625 44.7578125-.8367188-9.6953125h3.3867188l1.9789062-7.5703125h-5.9898437l-.6640625-7.703125h8.6726562l1.9523438-7.4375h-18.859375l3.3203125 38.25 5.1398437 1.4210937z" fill="#323330"/><path d="m30.015625 62.6875 19.7890625-5.4453125 4.6484375-52.328125h-24.4375z" fill="#fff" opacity=".3"/></g></svg>