<svg height="200" viewBox="0 0 177 200" width="177" xmlns="http://www.w3.org/2000/svg"><g fill="none"><path d="m16.015625 179.6875-16.015625-179.6875h176.171875l-16.015625 179.6875-72.265625 20.3125" fill="#e34f26"/><path d="m88.28125 184.375 58.203125-16.015625 13.671875-153.90625h-71.875" fill="#ef652a"/><path d="m88.28125 81.25h-29.296875l-1.953125-22.65625h31.25v-21.875h-.390625-55.078125l.390625 5.859375 5.46875 60.9375h49.609375zm0 57.421875h-.390625l-24.609375-6.640625-1.5625-17.578125h-11.71875-10.15625l2.734375 34.765625 45.3125 12.5h.390625z" fill="#ebebeb"/><path d="m87.890625 81.25v22.265625h27.34375l-2.734375 28.515625-24.609375 6.640625v23.046875l45.3125-12.5.390625-3.90625 5.078125-58.203125.78125-5.859375h-6.25zm0-44.53125v13.671875 8.203125h53.515625l.390625-4.6875 1.171875-11.328125.390625-5.859375z" fill="#fff"/></g></svg>