<svg height="173" viewBox="0 0 200 173" width="200" xmlns="http://www.w3.org/2000/svg"><path d="m168.571345 118.126507c1.719743-.988217 2.78266-2.81877 2.788966-4.803151l.100003-32.1711018c.006306-1.9843812 1.069223-3.8149338 2.788966-4.8031506l17.42826-10.017682c1.71909-.9878548 3.833972-.9842855 5.549722.0093663s2.77273 2.8268177 2.77273 4.8104619v58.4883642c0 1.990344-1.064069 3.828637-2.788966 4.819828l-65.774041 37.802574c-1.709466.981991-3.810939.984106-5.522375.005559l-51.6180948-29.5416c-1.7308982-.989338-2.7994345-2.830752-2.8000775-4.825387v-29.491566c0-.033356.03889-.055592.0722242-.038915.0277786.016678.0666686 0 .0666686-.038914v-.033355c0-.022237.0111114-.044474.0333342-.055593l42.5122873-24.4382515c.03889-.0222368.022223-.083388-.022223-.083388-.024547 0-.044446-.0199115-.044446-.0444736l.083336-28.9134096c.007914-1.990057-1.047872-3.8325486-2.768266-4.8310041-1.720393-.9984555-3.842936-1.0005538-5.565298-.0055016l-31.5953184 18.2175049c-1.7161164.988782-3.8284814.988782-5.5445978 0l-31.6953211-18.2619786c-1.7185765-.9901999-3.8343235-.988686-5.5514829.0039725-1.7171595.9926584-2.7753317 2.8259289-2.7765253 4.8102965v52.2564991c.0013423 1.982204-1.0522017 3.815168-2.7651369 4.810808-1.7129352.995639-3.8260928 1.003312-5.5462041.020138l-17.5893754-10.062155c-1.73435056-.991309-2.80342637-2.8378976-2.80008529-4.8365062l.1555677-91.33768879c.00430874-1.98165786 1.06250225-3.81119286 2.77753002-4.80213522 1.71502777-.99094237 3.82755253-.99344715 5.54492241-.0065745l60.25166656 34.62826921c1.713286.9845197 3.8202005.9845197 5.5334864 0l60.2349991-34.62826921c1.719951-.98835023 3.836016-.9842501 5.552128.01075789 1.716112.995008 2.771957 2.82999246 2.770325 4.81462944v91.35992558c.000791 1.989195-1.060653 3.8272198-2.783411 4.8198278l-31.545317 18.178591c-1.724686.994865-2.785586 2.83706-2.780996 4.829049s1.073967 3.829269 2.803219 4.816166l17.400482 9.912058c1.711.974705 3.809756.970475 5.516819-.011119zm3.650101-81.9537562c.00158 2.0014647 1.078244 3.8475814 2.818929 4.8335161 1.740686.9859346 3.876657.9594738 5.592415-.06928l16.667128-10.0065636c1.67363-1.0034924 2.698532-2.8119156 2.700074-4.7642361v-20.39115291c-.003577-2.00047028-1.081026-3.84475588-2.821342-4.82933078-1.740315-.98457489-3.875095-.9575927-5.590002.07065387l-16.667127 10.00656362c-1.67363 1.0034924-2.698533 2.8119156-2.700075 4.7642361v20.3911529z" fill="#007fff" fill-rule="evenodd"/></svg>