<svg height="78" viewBox="0 0 200 78" width="200" xmlns="http://www.w3.org/2000/svg"><g fill="none"><path d="m0 0h200v66.6666667h-100v11.1111111h-44.4444444v-11.1111111h-55.5555556zm11.1111111 55.5555556h22.2222222v-33.3333334h11.1111111v33.3333334h11.1111112v-44.4444445h-44.4444445zm55.5555556-44.4444445v55.5555556h22.2222222v-11.1111111h22.2222221v-44.4444445zm22.2222222 11.1111111h11.1111111v22.2222222h-11.1111111zm33.3333331-11.1111111v44.4444445h22.222222v-33.3333334h11.111112v33.3333334h11.111111v-33.3333334h11.111111v33.3333334h11.111111v-44.4444445z" fill="#cb3837"/><g fill="#fff"><path d="m11.1111111 55.5555556h22.2222222v-33.3333334h11.1111111v33.3333334h11.1111112v-44.4444445h-44.4444445z"/><path d="m66.6666667 11.1111111v55.5555556h22.2222222v-11.1111111h22.2222221v-44.4444445zm33.3333333 33.3333333h-11.1111111v-22.2222222h11.1111111z"/><path d="m122.222222 11.1111111v44.4444445h22.222222v-33.3333334h11.111112v33.3333334h11.111111v-33.3333334h11.111111v33.3333334h11.111111v-44.4444445z"/></g></g></svg>