<svg height="124" viewBox="0 0 200 124" width="200" xmlns="http://www.w3.org/2000/svg"><g fill="none"><path d="m167.304812 38.4447384c-.312-6.8640176.624002-12.9480331-2.496006-18.0960463-7.488019-12.79203275-26.208067-20.28005192-63.648163-20.28005192v1.09200279h-.780002.780002v-1.09200279c-37.4400959 0-57.0961462 7.48801917-64.5841654 20.43605232-2.9640076 5.3040136-2.6520068 11.2320287-3.120008 18.0960463-.3120008 5.460014-2.8080071 11.2320288-1.7160043 17.4720447 1.2480032 8.1120208 1.7160043 16.2240416 2.9640075 23.7120607.9360024 6.0840156 9.360024 11.2320288 10.140026 17.0040436 2.1840056 15.9120412 18.7200479 23.2440592 56.1601442 23.2440592v1.248003h-.936003 1.092003v-1.248003c37.440096 0 53.352137-7.332018 55.380142-23.2440592.780002-5.9280152 8.580022-10.920028 9.516024-17.0040436 1.248003-7.4880191 1.716004-15.6000399 2.964008-23.7120607 1.092002-6.2400159-1.404004-12.1680311-1.716005-17.6280451z" fill="#efcca3"/><path d="m100.536641 44.0607528c6.708018.1560004 11.38803 4.3680112 15.756041 8.2680212 5.148013 4.5240115 13.884035 7.6440195 17.472044 11.5440295 3.58801 3.90001 8.268022 7.80002 9.984026 13.8840356 1.716004 6.0840155 2.184006 13.8840355 2.184006 15.9120407s1.092002 1.560004 4.21201 0c7.332019-3.5880092 15.44404-13.260034 15.44404-13.260034-.936002 6.0840156-8.892023 11.5440296-9.672025 17.3160444-1.872005 15.9120408-17.316044 23.5560598-55.536142 23.5560598h-.156.936002" fill="#ccac8d"/><path d="m125.184704 31.8927216c1.404004 4.8360124 6.396017 21.2160544-3.276008 15.7560404 0 0 4.05601 2.340006 6.552017 11.2320287 2.652007 8.8920228 9.048023 9.9840256 9.048023 9.9840256s10.452027 2.0280052 18.252047-4.680012c6.552017-5.6160144 7.644019-15.6000399 4.836012-23.2440595-2.808007-7.4880192-7.80002-9.8280252-15.132039-11.3880291-7.332018-1.7160044-21.996056-3.120008-20.280052 2.3400059z" fill="#ccac8d"/><circle cx="143.748752" cy="49.676767" fill="#000" r="13.728035"/><circle cx="140.160743" cy="43.592752" fill="#fff" r="3.588009"/><path d="m122.844698 49.0527656s12.324032 8.4240215 19.032049 16.6920427 6.552017 9.8280252 6.552017 9.8280252l-4.836012 2.1840056s-6.864018-12.9480332-15.28804-17.7840456c-8.580022-4.8360123-9.516024-8.8920227-9.516024-8.8920227z" fill="#efcca3"/><path d="m101.004643 44.0607528c-6.7080176.1560004-11.7000304 4.3680112-16.224042 8.2680212-5.1480131 4.5240115-14.1960363 7.6440195-17.7840455 11.5440295s-8.4240216 7.80002-10.1400259 13.8840356c-1.7160044 6.0840155-2.340006 13.8840355-2.340006 15.9120407s.3120008 2.1840056-4.2120108 0c-7.3320188-3.4320088-15.4440396-13.260034-15.4440396-13.260034.9360024 6.0840156 8.8920228 11.5440296 9.6720248 17.3160444 2.1840056 15.9120408 17.6280451 23.5560598 55.848143 23.5560598h.780002" fill="#ccac8d"/><path d="m137.196735 70.4248203c-7.488019-9.2040236-19.50005-17.7840455-36.192092-17.7840455h-.156001c-16.6920426 0-28.7040733 8.5800219-36.1920925 17.7840455-7.8000199 9.5160243-7.1760183 13.2600339-7.1760183 22.3080571 0 32.7600836 11.5440295 23.4000596 19.1880491 27.4560706 7.8000199 3.90001 15.9120407 2.652006 24.1800617 2.652006h.156001c8.424021 0 16.380042 1.092003 24.180061-2.808007 7.64402-3.90001 19.18805 5.772015 19.18805-26.9880688.156-9.0480232.624001-13.1040336-7.176019-22.6200579z" fill="#56332b"/><path d="m100.224641 60.7527955s-1.0920032 15.1320388-3.2760088 18.0960464l4.0560108-.9360024z" fill="#442823"/><path d="m101.316643 60.7527955s1.092003 15.1320388 3.276009 18.0960464l-4.056011-.9360024z" fill="#442823"/><path d="m88.2126098 57.1647863c-1.560004-3.5880091 4.0560104-9.3600239 12.9480332-9.5160243 8.892023 0 14.508037 5.7720148 12.948033 9.5160243-1.560004 3.7440096-7.176018 4.8360124-12.948033 4.9920128-5.6160144-.1560004-11.3880292-1.2480032-12.9480332-4.9920128z" fill="#56332b"/><path d="m101.160643 60.7527955c0-.6240016 5.304014-.780002 8.112021-2.6520068 0 0-5.772015 1.8720048-7.020018 1.0920028-1.248003-.6240016-1.560004-2.4960064-1.560004-2.4960064s-.468001 1.8720048-1.4040038 2.4960064c-1.0920028.6240016-7.6440196-1.0920028-7.6440196-1.0920028s8.7360224 2.1840056 8.7360224 2.6520068-.156 2.0280052-.156 3.120008c0 3.90001 0 13.5720348.624001 14.3520368.936003 1.4040035.624002-10.4520268.624002-14.3520368-.156001-1.2480032-.156001-2.4960064-.312001-3.120008z" fill="#000"/><path d="m101.472644 81.656849c2.652007 0 7.332019 1.8720048 11.544029 4.8360124-4.05601-4.5240116-8.892022-7.6440195-11.544029-7.6440195-2.8080074 0-8.7360226 3.4320087-12.9480334 8.4240215 4.3680112-3.4320088 9.9840256-5.6160144 12.9480334-5.6160144z" fill="#7f4a41"/><path d="m100.380641 109.26892c-5.9280152 0-11.70003-1.872005-17.0040436-3.276009-1.0920028-.312-2.1840055.468002-3.2760083.156001-9.8280252-3.120008-17.7840456-8.4240218-22.6200579-15.132039v1.560004c0 32.760084 11.5440295 23.55606 19.1880491 27.45607 7.8000199 3.90001 15.9120407 2.652007 24.1800617 2.652007h.156001c8.424021 0 16.380042 1.092003 24.180061-2.808007 7.64402-3.90001 19.18805 5.616014 19.18805-27.1440696 0-1.2480032 0-2.4960064.156-3.5880092-4.524012 7.3320188-12.792033 13.1040338-23.088059 16.5360428-.936003.312-3.120008-.468002-4.05601-.312001-5.616015 1.872005-10.608028 3.90001-17.004044 3.90001z" fill="#442823"/><path d="m85.560603 91.6408746s-3.9000099 11.7000304-1.2480032 16.8480434l-3.5880091-1.560004s2.6520067-11.8560306 4.8360123-15.2880394zm30.888079 0s3.90001 11.7000304 1.248003 16.8480434l3.588009-1.560004s-2.808007-11.8560306-4.836012-15.2880394z" fill="#442823"/><path d="m75.5765775 31.8927216c-1.4040036 4.8360124-6.3960164 21.2160544 3.2760084 15.7560404 0 0-4.0560104 2.340006-6.5520168 11.2320287-2.4960064 8.8920228-9.0480232 9.9840256-9.0480232 9.9840256s-10.4520267 2.0280052-18.2520467-4.680012c-6.5520168-5.6160144-7.6440196-15.6000399-4.8360124-23.2440595s7.80002-9.8280252 15.1320388-11.3880291c7.3320187-1.7160044 21.8400559-3.120008 20.2800519 2.3400059z" fill="#ccac8d"/><path d="m101.004643 78.8488419c4.21201 0 17.316044 9.0480231 17.472044 20.1240515v-.6240016c0-11.5440296-10.608027-20.7480531-17.472044-20.7480531-6.864018 0-17.4720452 9.3600239-17.4720452 20.7480531v.6240016c.1560004-11.0760284 13.260034-20.1240515 17.4720452-20.1240515z" fill="#000"/><ellipse cx="103.825714" cy="54.983874" fill="#331712" rx="1.248003" ry="2.340006" transform="matrix(.96830041 -.24978855 .24978855 .96830041 -10.443109 27.677441)"/><ellipse cx="97.085038" cy="54.991524" fill="#331712" rx="1.248003" ry="2.340006" transform="matrix(.95509755 .29629154 -.29629154 .95509755 20.65288 -26.296221)"/><circle cx="57.792532" cy="49.676767" fill="#000" r="13.728035"/><circle cx="61.380541" cy="43.592752" fill="#fff" r="3.588009"/><path d="m105.060653 49.8327676c0-.1560004-3.588009 1.560004-4.524012 1.7160044-.936002-.1560004-4.5240112-1.8720048-4.5240112-1.7160044z" fill="#7f4a41"/><path d="m77.7605831 49.0527656s-12.3240316 8.4240215-19.0320488 16.6920427c-6.7080171 8.2680212-6.5520167 9.8280252-6.5520167 9.8280252l4.8360124 2.1840056s6.8640175-12.9480332 15.2880391-17.7840456c8.4240216-4.8360123 9.5160244-8.8920227 9.5160244-8.8920227z" fill="#efcca3"/><path d="m50.772514 24.0927017s-4.2120108 11.5440295-13.5720348 16.3800419c0 0 14.6640376-1.7160044 13.5720348-16.3800419zm98.436252 0s4.212011 11.5440295 13.572035 16.3800419c0 0-14.664038-1.7160044-13.572035-16.3800419zm-26.676068 21.5280551s-9.204024-9.6720248-21.528055-9.9840256h.156.156c-12.4800316.3120008-21.5280547 9.9840256-21.5280547 9.9840256 10.7640275-7.4880192 19.9680511-7.3320188 21.5280547-7.3320188-.156 0 10.452027-.1560004 21.216055 7.3320188zm-10.764028-20.2800519s-4.680012-6.5520168-10.920028-6.7080172h.312001c-4.680012.1560004-10.7640276 6.7080172-10.7640276 6.7080172 5.3040136-5.1480132 10.7640276-4.9920128 10.7640276-4.9920128s5.148013-.1560004 10.608027 4.9920128zm-53.9761381 47.8921226s-7.3320187 3.5880092-12.6360323 1.4040036h-.1560004c-4.680012-2.6520068-7.020018-10.6080272-7.020018-10.6080272s4.680012 14.040036 19.8120507 9.2040236zm85.4882191 0s7.332019 3.5880092 12.636032 1.4040036c6.240016-2.6520068 7.176019-10.6080272 7.176019-10.6080272s-4.680012 14.040036-19.812051 9.2040236z" fill="#ccac8d"/><path d="m66.2165535 23.3126997c4.0560104-.780002 10.7640276-.9360024 16.0680411.780002 6.7080172 2.340006 1.2480032 10.9200279 2.6520068 11.3880291s3.2760084-5.9280151 15.7560406-5.3040135c12.636032.6240015 14.040036 6.2400159 15.75604 5.3040135 1.716005-.9360024-1.716004-15.6000399 17.160044-12.1680311 0 0-19.812051-5.3040136-18.876048 9.0480231 0 0-11.388029-8.7360223-27.3000702-.9360024.1560004 0 4.2120108-13.4160343-21.2160543-8.1120207zm69.1081765 0c.312001 0 .468002.1560004.624002.1560004s-.156-.1560004-.624002-.1560004zm-74.5681905-19.18804914s-16.8480431 21.21605434-19.3440495 29.32807504c-2.4960064 8.2680212-4.3680112 42.1201079-6.5520168 46.9561202l-7.8000199-33.3840854 14.3520367-34.7880891zm79.2482025 0s16.848044 21.21605434 19.34405 29.32807504c2.496006 8.2680212 4.368011 42.1201079 6.552017 46.9561202l7.80002-33.3840854-14.352037-34.7880891z" fill="#ccac8d"/><path d="m139.22474 4.12465056s18.096047 15.13203874 23.40006 32.60408344c5.304014 17.4720448 3.120008 38.6880991 7.176019 41.3401059 5.772014 3.7440095 12.324031-18.5640476 14.508037-20.9040536 3.432009-3.7440095 14.820038-13.2600339 15.60004-14.9760383s-23.088059-27.7680711-33.540086-32.91608426c-12.636032-5.92801518-28.236072-6.39601638-27.14407-5.14801318z" fill="#56332b"/><path d="m154.66878 13.4846745s21.372055 27.3000699 21.060054 61.308157l8.580022-17.4720448c-.156001 0-7.64402-22.3080571-29.640076-43.8361122z" fill="#442823"/><path d="m60.7565395 4.12465056s-18.0960463 15.13203874-23.4000599 32.60408344c-5.3040135 17.4720448-3.120008 38.6880991-7.1760183 41.3401059-5.7720148 3.7440095-12.3240316-18.5640476-14.5080372-20.9040536-3.4320088-3.7440095-14.82003792-13.2600339-15.60003991-14.9760383-.780002-1.7160044 23.08805911-27.7680711 33.54008581-32.91608426 12.6360324-5.92801518 28.2360723-6.39601638 27.1440695-5.14801318z" fill="#56332b"/><path d="m45.3125 13.4846745s-21.3720547 27.3000699-21.0600539 61.308157l-8.4240216-17.4720448s7.4880192-22.3080571 29.4840755-43.8361122z" fill="#442823"/><path d="m33.7684704 75.4168331s1.560004 8.4240215 4.0560104 11.0760283.780002-2.0280052.780002-2.0280052-2.6520068-1.4040036-2.1840056-12.1680311c.4680012-10.7640276-2.6520068 3.120008-2.6520068 3.120008zm133.0683406 0s-1.560004 8.4240215-4.05601 11.0760283c-2.496007 2.6520068-.780002-2.0280052-.780002-2.0280052s2.652007-1.4040036 2.184005-12.1680311c-.468001-10.7640276 2.652007 3.120008 2.652007 3.120008z" fill="#ccac8d"/><g fill="#442823"><circle cx="84.780601" cy="69.020816" r="1.248003"/><circle cx="77.604582" cy="76.508836" r="1.248003"/><circle cx="75.264576" cy="69.020816" r="1.248003"/><circle cx="115.200679" cy="69.020816" r="1.248003"/><circle cx="122.376697" cy="76.508836" r="1.248003"/><circle cx="124.716703" cy="69.020816" r="1.248003"/></g></g></svg>