<svg height="179" viewBox="0 0 200 179" width="200" xmlns="http://www.w3.org/2000/svg"><g fill="none"><path d="m41.8147065 54.0459197c-3.2555233-15.769207-3.9541684-27.8640542-1.8498295-36.6465985 1.2515404-5.2233551 3.5396586-9.4844953 7.0189192-12.55883372 3.6731927-3.24570032 8.3172909-4.83836937 13.5354217-4.83836937 8.6083625 0 17.6578981 3.9213781 27.3289133 11.37096229 3.9446271 3.0385468 8.0386442 6.7010365 12.2904498 10.9895245.338409-.4352086.720937-.8457151 1.147135-1.2251152 12.020579-10.7006775 22.140858-17.34914528 30.796819-19.91259423 5.146832-1.524226 9.979071-1.66944071 14.379503-.190126 4.644942 1.56151306 8.346025 4.78938727 10.95724 9.31060853 4.309446 7.4616467 5.445899 17.2663044 3.839243 29.3725423-.654888 4.9346178-1.774468 10.3098514-3.356317 16.1339906.596791.0719929 1.195076.2041742 1.787313.4002257 15.251464 5.0487769 26.051096 10.4781226 32.589453 16.6828991 3.890155 3.6916834 6.430474 7.8016416 7.348783 12.3510911.969274 4.8019518.024156 9.6184333-2.584018 14.1362911-4.301408 7.4508601-12.210426 13.3272771-23.477854 17.9818251-4.524247 1.868956-9.643166 3.561609-15.36245 5.083913.260965.588602.463433 1.213696.59882 1.869484 3.255524 15.769207 3.954168 27.864055 1.84983 36.646599-1.251541 5.223355-3.539659 9.484495-7.01892 12.558834-3.673192 3.2457-8.31729 4.838369-13.535421 4.838369-8.608363 0-17.657898-3.921378-27.328914-11.370962-3.986611-3.070887-8.12581-6.77907-12.426264-11.12667-.4424827.691426-.9857534 1.334096-1.6282778 1.906069-12.0205791 10.700677-22.1408578 17.349145-30.7968194 19.912594-5.1468322 1.524226-9.9790715 1.669441-14.3795031.190126-4.6449421-1.561513-8.3460244-4.789387-10.9572394-9.310608-4.3094469-7.461647-5.4458988-17.266305-3.839243-29.372543.6785607-5.112991 1.8560155-10.699029 3.5296671-16.767333-.6541947-.066216-1.311067-.204414-1.9606631-.419453-15.2514639-5.048777-26.0510955-10.478123-32.58945285-16.682899-3.89015549-3.691684-6.43047517-7.8016419-7.34878283-12.3510913-.96927534-4.8019518-.02415648-9.6184328 2.58401802-14.1362908 4.30140661-7.4508605 12.21042546-13.3272776 23.47785366-17.9818258 4.6590537-1.9246441 9.9487447-3.6623214 15.8752906-5.2195368-.211158-.5163687-.3778968-1.0593093-.4947034-1.6250986z" fill="#002c4b" transform="matrix(-1 0 0 1 200 0)"/><path d="m115.377028 56.8421053c1.885345 0 3.626678 1.0084474 4.565007 2.6437025l15.402321 26.8421053c.930869 1.6222536.930869 3.6166572 0 5.2389107l-15.402321 26.8421062c-.938329 1.635254-2.679662 2.643702-4.565007 2.643702h-30.7487308c-1.8853437 0-3.6266776-1.008448-4.5650065-2.643702l-15.4023212-26.8421062c-.9308685-1.6222535-.9308685-3.6166571 0-5.2389107l15.4023212-26.8421053c.9383289-1.6352551 2.6796628-2.6437025 4.5650065-2.6437025zm-3.810894 6.6068708h-23.1269415c-1.8863393 0-3.6284339 1.0095037-4.5663924 2.6461191l-11.5969876 20.2352344c-.9290209 1.6210204-.9290209 3.6130573 0 5.2340777l11.5969876 20.2352347c.9379585 1.636615 2.6800531 2.646119 4.5663924 2.646119h23.1269415c1.886339 0 3.628433-1.009504 4.566391-2.646119l11.596989-20.2352347c.92902-1.6210204.92902-3.6130573 0-5.2340777l-11.596989-20.2352344c-.937958-1.6366154-2.680052-2.6461191-4.566391-2.6461191zm-4.11282 7.2262651c1.884403 0 3.625019 1.0074501 4.563696 2.6414204l7.473351 13.0089694.121394.2236183c.809295 1.5805406.76883 3.4702311-.121394 5.0198566l-7.473351 13.0089701-.12693.209542c-.963377 1.510127-2.634294 2.431878-4.436766 2.431878h-14.9013022l-.2449222-.005682c-1.7893229-.083107-3.4209082-1.072811-4.3187741-2.635738l-7.4733507-13.0089701-.1213942-.2236183c-.8092944-1.5805406-.7688297-3.470231.1213942-5.0198566l7.4733507-13.0089694.12693-.2095422c.9633777-1.510128 2.6342936-2.4318782 4.4367663-2.4318782zm-3.959434 6.9165679h-6.9824337c-1.882992 0-3.6225279 1.0059544-4.5617278 2.6379968l-3.5060259 6.0924014c-.9352402 1.6251617-.9352402 3.6251606 0 5.2503223l3.5060259 6.092401c.9391999 1.6320431 2.6787358 2.6379964 4.5617278 2.6379964h6.9824337c1.882992 0 3.622527-1.0059533 4.561727-2.6379964l3.506027-6.092401c.93524-1.6251617.93524-3.6251606 0-5.2503223l-3.506027-6.0924014c-.9392-1.6320424-2.678735-2.6379968-4.561727-2.6379968zm-3.489887 6.8133357c1.623129 0 3.123036.8656792 3.935012 2.2711118.811866 1.4052416.811866 3.1369822 0 4.5422238-.811976 1.4054325-2.311883 2.2711118-3.937673 2.2711118l-.2309758-.0058538c-1.5334405-.0778158-2.9307252-.9267509-3.7040356-2.265258-.8118654-1.4052416-.8118654-3.1369822 0-4.5422238.8119759-1.4054326 2.3118836-2.2711118 3.9376724-2.2711118zm-36.8460983 4.543239h8.1765932" fill="#ffd94c"/><path d="m57.7475503 103.534482c1.3803679-.788918 3.1324755-.29806 3.9134416 1.096363l.4996231.88865c4.0039525 7.094182 8.1751866 13.828059 12.5137024 20.201629 5.1234518 7.526694 10.8855141 15.14636 17.286187 22.858997 1.0046301 1.210553.8657521 3.010591-.3124139 4.049286l-.6436606.564935c-21.165968 18.493357-34.9225155 22.187292-41.2696424 11.081807-6.2084032-10.862763-3.9616386-30.609951 6.7402939-59.241567.2373585-.635022.6876407-1.165855 1.2724689-1.5001zm90.1831627 21.772364c1.528372-.269818 2.990862.73751 3.28995 2.26604l.161248.833826c5.231105 27.377982 1.547929 41.066972-11.049528 41.066972-12.322125 0-28.00741-11.674729-47.0558548-35.024187-.4224762-.517869-.6506627-1.168054-.6450541-1.837382.0139553-1.579814 1.3009315-2.849324 2.8747553-2.83553l1.0039331.007132c8.0221515.043645 15.8207715-.234674 23.3958615-.834956 8.945596-.708887 18.287158-1.922859 28.024689-3.641915zm7.236367-58.1363551c.550961-1.4834484 2.210168-2.2615922 3.732479-1.7504782l.829443.2804983c27.201275 9.2657227 37.536636 19.4486264 31.006084 30.5487112-6.387819 10.8574788-24.962089 18.7616608-55.722812 23.7125438-.682244.109807-1.382124-.018641-1.977816-.362984-1.406011-.812751-1.87441-2.590136-1.046197-3.9699l.526821-.880987c4.197742-7.046495 7.991611-14.059198 11.381606-21.03811 4.003322-8.2415556 7.760119-17.087987 11.270392-26.5392941zm-90.179354-8.184889c.6822432-.1098058 1.3821229.0186418 1.9778156.3629848 1.4060114.8127512 1.8744097 2.5901356 1.046197 3.9698991l-.526821.880988c-4.1977421 7.0464946-7.9916107 14.0591977-11.3816059 21.0381097-4.0033223 8.2415556-7.7601194 17.0879875-11.2703914 26.5392945-.5509616 1.483448-2.2101686 2.261592-3.7324793 1.750478l-.8294437-.280498c-27.201274-9.265723-37.53663532-19.4486269-31.00608386-30.5487115 6.38781876-10.8574796 24.96208966-18.7616611 55.72281256-23.7125446zm44.007844-33.232576c21.165968-18.493356 34.922515-22.18729137 41.269643-11.0818062 6.208403 10.862762 3.961638 30.6099511-6.740294 59.2415671-.237359.6350216-.687641 1.1658543-1.27247 1.5000998-1.380367.7889181-3.132475.2980593-3.913441-1.0963638l-.499623-.8886493c-4.003952-7.0941824-8.175187-13.8280588-12.513703-20.2016293-5.123452-7.526694-10.885514-15.1463597-17.286186-22.8589971-1.004631-1.2105521-.865753-3.0105899.312413-4.0492861zm-48.2753215-17.33197326c12.3221252 0 28.0074102 11.67472906 47.0558545 35.02418706.422477.5178684.650663 1.1680538.645054 1.8373825-.013955 1.579814-1.300931 2.849324-2.874755 2.8355299l-1.003933-.0071322c-8.0221511-.0436448-15.8207716.2346739-23.3958615.8349562-8.9455958.7088871-18.2871584 1.9228587-28.0246881 3.6419147-1.5283731.2698178-2.9908622-.7375099-3.2899514-2.2660402l-.1612474-.8338258c-5.2311052-27.3779814-1.5479292-41.06697216 11.0495279-41.06697216z" fill="#ff4154"/></g></svg>