<svg height="190" viewBox="0 0 200 190" width="200" xmlns="http://www.w3.org/2000/svg"><path d="m138.578906 132.659763c7.380469-.764384 12.979688-7.129564 12.725-14.768718-.253906-7.638373-6.617187-13.74954-14.252343-13.74954h-.508594c-7.890625.254795-13.998438 6.87477-13.74375 14.767937.254687 3.819577 1.78125 7.129565 4.071875 9.421154-8.653125 17.060309-21.8875 29.536656-41.7390628 39.976208-13.4890625 7.129564-27.4867187 9.675949-41.484375 7.893948-11.453125-1.527987-20.3609375-6.619975-25.9609375-15.023513-8.14374995-12.476347-8.9070312-25.971873-2.0351562-39.466617 4.8359375-9.67595 12.4703125-16.805514 17.30625-20.370296-1.0179688-3.3099876-2.5453125-8.9115649-3.3085938-12.9851551-36.9039062 26.7354761-33.08593745 62.8921061-21.88749995 79.9516331 8.39843745 12.731923 25.45078125 20.62509 44.28437495 20.62509 5.0898438 0 10.1796875-.50959 15.2703125-1.782 32.5773438-6.365962 57.2648438-25.71786 71.2624998-54.490131zm44.79375-31.57345c-19.342968-22.6618859-47.847656-35.1382329-80.425-35.1382329h-4.0718748c-2.290625-4.5831797-7.1265625-7.639154-12.4710937-7.639154h-.509375c-7.8890625.2547948-13.996875 6.8747697-13.7429687 14.7687184.2546875 7.6383724 6.6171875 13.7495393 14.2523437 13.7495393h.5085938c5.5992187-.2547948 10.4351562-3.819577 12.4710937-8.6575515h4.58125c19.342969 0 37.667188 5.6015773 54.210938 16.5507187 12.725 8.402757 21.8875 19.351898 26.977343 32.591848 4.326563 10.694347 4.071875 21.133898-.509375 30.046245-7.125781 13.494744-19.0875 20.879103-34.867187 20.879103-10.180469 0-19.851563-3.055974-24.942188-5.347564-2.799218 2.546385-7.889843 6.619975-11.453125 9.167141 10.944532 5.091988 22.142969 7.893168 32.832032 7.893168 24.432812 0 42.503125-13.495527 49.375-26.990271 7.380468-14.768718 6.871093-40.231002-12.216407-61.873708zm-129.2906248 35.901053c.2546876 7.639154 6.6171876 13.74954 14.2523438 13.74954h.509375c7.8898437-.254014 13.9976563-6.87477 13.7429688-14.767937-.2539063-7.639154-6.6171875-13.749539-14.2523438-13.749539h-.5085938c-.509375 0-1.2734374 0-1.78125.254013-10.4351562-17.314322-14.7617187-36.1558487-13.2343749-56.5261445 1.0171875-15.2775264 6.1078125-28.5182577 15.0156249-39.4673991 7.3804688-9.4211543 21.6328125-14.004334 31.3046876-14.2583472 26.9773442-.5095896 38.4296872 33.1006558 39.1937502 46.5961819 3.308594.7636028 8.907812 2.5463847 12.725781 3.819577-3.054687-41.2486178-28.505469-62.6373111-52.9375-62.6373111-22.90625 0-44.0304688 16.5507187-52.4296875 40.9946046-11.7070312 32.5918479-4.071875 63.9105034 10.1804688 88.6091844-1.271875 1.782-2.0359375 4.58318-1.78125 7.384359z" fill="#764abc"/></svg>