<svg height="182" viewBox="0 0 200 182" width="200" xmlns="http://www.w3.org/2000/svg"><g fill="none"><path d="m43.5483873 5.94677914 56.25-5.94677914 56.2499997 5.94677914 43.548387 58.45986246-99.7983867 116.2141754-99.7983873-116.2141754z" fill="#fdb300"/><g transform="translate(0 64.406642)"><path d="m40.4233503 0 59.3751269 116.214213-99.7984772-116.214213z" fill="#ea6c00"/><path d="m140.221557 0 59.375127 116.214213-99.7984769-116.214213z" fill="#ea6c00" transform="matrix(-1 0 0 1 299.394892 0)"/><path d="m40.4233503 0h118.7502537l-59.3751268 116.214213z" fill="#fdad00"/></g><path d="m99.7984772 0-56.2502538 5.94670051-3.1248731 58.45989849z" fill="#fdd231"/><path d="m159.173297 0-56.250253 5.94670051-3.1248734 58.45989849z" fill="#fdd231" transform="matrix(-1 0 0 1 258.971468 0)"/><path d="m156.048207 64.406599 43.548731-58.45989849-3.125381 58.45989849z" fill="#fdad00" transform="matrix(-1 0 0 1 355.645146 0)"/><path d="m0 64.406599 43.5482234-58.45989849-3.1248731 58.45989849z" fill="#fdad00"/><path d="m99.7984772 0-59.3751269 64.406599h118.7502537z" fill="#feeeb7"/></g></svg>