<svg height="200" viewBox="0 0 200 200" width="200" xmlns="http://www.w3.org/2000/svg"><g fill="none"><path d="m0 100v-100h200v200h-200" fill="#007acc"/><path d="m43.85 100.35v8.15h26v74h18.45v-74h26v-8c0-4.5 0-8.15-.2-8.25 0-.15-15.85-.2-35.1-.2l-35 .15v8.2zm116.85-8.35c5.1 1.2 9 3.5 12.5 7.15 1.85 2 4.6 5.5 4.8 6.4 0 .3-8.65 6.15-13.9 9.4-.2.15-1-.7-1.8-2-2.6-3.7-5.25-5.3-9.4-5.6-6-.4-10 2.75-10 8 0 1.6.3 2.5.9 3.8 1.35 2.75 3.85 4.4 11.6 7.8 14.3 6.15 20.5 10.2 24.25 16 4.25 6.5 5.2 16.7 2.35 24.35-3.2 8.35-11 14-22.15 15.85-3.5.6-11.5.5-15.25-.15-8-1.5-15.65-5.5-20.35-10.65-1.85-2-5.4-7.35-5.2-7.7l1.9-1.2 7.5-4.35 5.65-3.3 1.3 1.75c1.65 2.6 5.35 6.1 7.5 7.3 6.5 3.35 15.2 2.9 19.5-1 1.85-1.7 2.65-3.5 2.65-6 0-2.3-.35-3.35-1.5-5.1-1.6-2.2-4.8-4-13.8-8-10.35-4.4-14.75-7.2-18.85-11.5-2.35-2.6-4.5-6.65-5.5-10-.75-2.9-1-10-.3-12.85 2.15-10 9.7-17 20.5-19 3.5-.7 11.75-.4 15.2.5z" fill="#fff"/></g></svg>