<svg height="200" viewBox="0 0 200 200" width="200" xmlns="http://www.w3.org/2000/svg" xmlns:xlink="http://www.w3.org/1999/xlink"><linearGradient id="a" x1="-.828098%" x2="57.635964%" y1="7.651854%" y2="78.410772%"><stop offset="0" stop-color="#41d1ff"/><stop offset="1" stop-color="#bd34fe"/></linearGradient><linearGradient id="b" x1="43.376005%" x2="50.315885%" y1="2.241798%" y2="89.029905%"><stop offset="0" stop-color="#ffea83"/><stop offset=".0833333" stop-color="#ffdd35"/><stop offset="1" stop-color="#ffa800"/></linearGradient><g fill="none"><path d="m199.087734 29.6016355-93.83198 167.7878875c-1.937346 3.464172-6.9145744 3.484571-8.8809877.037228l-95.69247488-167.8089497c-2.1422635-3.7567368 1.07015517-8.3071783 5.32726661-7.5462641l93.93239217 16.7898856c.5992048.107092 1.2126898.1060721 1.8118948-.0031108l91.96807-16.7627046c4.242883-.7733063 7.470432 3.7418969 5.365819 7.5060281z" fill="url(#a)"/><path d="m144.687032.04923797-69.4384598 13.60619303c-1.1412949.2236183-1.9863019 1.1908122-2.0551467 2.3515366l-4.2714414 72.1410547c-.1004625 1.6991932 1.4600211 3.0179548 3.1184174 2.6354834l19.3326579-4.4616572c1.808835-.4171489 3.4432631 1.1759723 3.0715008 2.9950066l-5.7437015 28.1259319c-.3865512 1.892979 1.3906663 3.511598 3.2392784 2.95013l11.9407589-3.627869c1.851162-.561978 3.62991 1.06123 3.238259 2.955739l-9.1278093 44.179535c-.5711574 2.763483 3.1046483 4.270421 4.6375943 1.901138l1.024003-1.582412 56.58232-112.919857c.947509-1.890684-.686409-4.0465482-2.762974-3.64582l-19.899736 3.8406255c-1.87003.3605431-3.461112-1.380977-2.933301-3.2105675l12.988221-45.0252605c.528321-1.83267579-1.06837-3.57570486-2.940441-3.20893053z" fill="url(#b)"/></g></svg>