<svg height="198" viewBox="0 0 200 198" width="200" xmlns="http://www.w3.org/2000/svg"><g fill="none"><path d="m2.04660588 69.0780142s-4.86322189-3.5055725.97264437-8.1864235l13.59675785-12.1580547s3.8905775-4.0932118 8.0040527-.5268491l125.4711242 94.9949341v45.552178s-.06079 7.152989-9.240121 6.362716z" fill="#2489ca"/><path d="m34.3870314 98.4397163-32.34042552 29.4022287s-3.32320162 2.472138 0 6.889565l15.01519752 13.657548s3.5663628 3.829787 8.8348531-.526849l34.2857143-25.997974z" fill="#1070b3"/><path d="m91.1651469 98.6828774 59.3110431-45.2887538-.385005-45.30901722s-2.532928-9.88855116-10.982776-4.74164133l-78.9260382 71.83383995z" fill="#0877b9"/><path d="m140.851064 195.177305c3.444782 3.525836 7.619047 2.370821 7.619047 2.370821l46.220872-22.77609c5.91692-4.032421 5.086119-9.037487 5.086119-9.037487v-136.0081052c0-5.9777103-6.119554-8.0445796-6.119554-8.0445796l-40.06079-19.31104353c-8.7538-5.41033435-14.488349.97264438-14.488349.97264438s7.375887-5.30901723 10.982776 4.74164133v179.83789262c0 1.236069-.263424 2.451874-.790273 3.546099-1.053698 2.12766-3.343465 4.113475-8.834853 3.282675z" fill="#3c99d4"/></g></svg>