<svg height="46" viewBox="0 0 65 46" width="65" xmlns="http://www.w3.org/2000/svg"><g fill="none"><path d="m63.6408518 7.10570142c-.7489648-2.79840288-2.9483096-4.99753607-5.7466897-5.74663057-5.0668881-1.35907085-25.3942759-1.35907085-25.3942759-1.35907085s-20.3271147 0-25.39420754 1.35907085c-2.79838012.7490945-4.99751331 2.94822769-5.74660781 5.74663057-1.35907085 5.06707008-1.35907085 15.64535648-1.35907085 15.64535648s0 10.5783319 1.35907085 15.6454475c.7490945 2.7983802 2.94822769 4.9974974 5.74660781 5.7464622 5.06709284 1.3591482 25.39420754 1.3591482 25.39420754 1.3591482s20.3273878 0 25.3942759-1.3591482c2.7983801-.7489648 4.9977249-2.948082 5.7466897-5.7464622 1.3591482-5.0671156 1.3591482-15.6454475 1.3591482-15.6454475s-.0054603-10.5782864-1.3591482-15.64535648z" fill="#f00"/><path d="m25.9937662 32.5007963 16.8867452-9.7488283-16.8867452-9.7489876z" fill="#fff"/></g></svg>