<svg height="160" viewBox="0 0 200 160" width="200" xmlns="http://www.w3.org/2000/svg"><g fill="none"><path d="m30.8267553 110.294973-10.461155 3.822185-.5567096 31.117574 36.2110511-13.228085c-12.4304113-4.162858-21.4956377-11.499792-25.1931865-21.711674" fill="#fdbd39"/><path d="m36.3024512 77.382634-36.3024512 13.2613211 20.3656003 23.4815119 10.461155-3.822185c-3.6892397-10.178646-1.4125467-21.6701287 5.4756959-32.920648" fill="#f69833"/><path d="m97.382634 32.4719568c-46.2235148 16.8840881-76.028251 51.732447-66.5558787 77.8230162l167.3867887-61.1466556c-9.472372-26.0905692-54.607395-33.5604487-100.83091-16.6763606" fill="#fecf33"/><path d="m131.649356 126.979643c46.223515-16.884088 76.078106-51.5745744 66.555879-77.8230165l-167.3867888 61.1383465c9.5222268 26.256751 54.6073951 33.568758 100.8309098 16.68467" fill="#ee6723"/><path d="m198.205235 49.1483174-167.3784797 61.1466556c3.2737848 9.040299 15.778978 13.493976 33.3111757 13.493976 17.1001247 0 38.98629-4.229331 61.803074-12.563357 46.223515-16.8840881 78.737017-44.2293311 72.26423-62.0772746" fill="#f69833"/><path d="m164.894059 35.6626506c-17.091816 0-38.98629 4.2293311-61.803074 12.5633569-46.2235151 16.8840881-78.7370174 44.221022-72.2642297 62.0689655l167.3867887-61.1466556c-3.282094-9.0402991-15.778978-13.4856668-33.319485-13.4856668" fill="#fdbd39"/><g fill="#ee6723" transform="translate(64.727877)"><path d="m90.9181554 146.888243c-4.9272954 0-12.1894475-4.445368-21.5953469-13.219776-11.1258829-10.378064-23.8637308-25.583714-35.8869963-42.8084753-12.0149564-17.2247611-21.8861653-34.4412131-27.80224344-48.4918986-6.43955131-15.3053594-7.36186124-24.7112589-2.7336934-27.9684255 1.07187371-.7312006 2.34316577-1.1051101 3.63938513-1.0718737 3.76402161 0 11.10926461 2.8001662 24.67802241 16.1611965l.2991276.2908185-.0415455.4154549c-.0914001.9638554-.1744911 1.9277109-.249273 2.8832572l-.1495637 1.8861653-1.3294558-1.3377648c-14.6240133-14.7320316-21.05525551-16.3190694-23.14914832-16.3190694-.59825509 0-1.0718737.1163274-1.41254674.3572912-2.01080183 1.4125468-2.1437474 8.3257167 4.10469464 23.1574574 5.80805982 13.7931035 15.53801412 30.7519735 27.39509762 47.7523889 11.8653926 17.0087244 24.4121313 31.9817204 35.3469049 42.1769834 11.7823016 10.992938 17.0918155 12.181139 18.8284171 12.181139.5982551 0 1.0801828-.124637 1.4457831-.382219 2.1188201-1.487328 2.1188201-8.890735-4.8442044-24.860822l-.3240548-.731201.6979643-.382219c.6979642-.382218 1.3793103-.756128 2.0108018-1.121728l.8392189-.473618.3905277.880764c4.9356044 11.316992 9.5554627 25.700042 3.4981304 29.9543-1.0718737.731201-2.3514749 1.10511-3.6560033 1.071874zm.0084545-1.744911v.872455z"/><path d="m68.0432073 126.497715-.0664728.864146c-1.1715829 14.457832-4.2459493 31.840466-12.2725384 32.546739-.166182.016618-.3323639.016618-.4902368.016618-5.4507686 0-10.6107188-7.810552-15.3219776-23.207312-4.470295-14.574159-7.935189-34.133776-9.7548816-55.0810136-1.8280016-20.9472372-1.8030743-40.8142917.0747819-55.94516 2.0440382-16.4852513 5.9326963-25.09347731 11.5662651-25.59202322.1661819-.0166182.340673-.02492729.506855-.02492729 3.9551308 0 9.9127544 4.47860407 16.0116327 25.33444121l-3.9800581.7644371c-2.0357292-6.9630246-4.2542585-12.6298297-6.4561696-16.53510598-2.0357291-3.59783964-4.0216036-5.58371417-5.575405-5.58371417-.0498546 0-.0997092 0-.1578729.0083091-2.4428749.21603656-5.9991691 6.13211465-7.9767345 22.11882015-1.8446199 14.856668-1.8695472 34.432904-.0664728 55.105941 1.8030744 20.6813457 5.2098047 39.9501457 9.5970087 54.2584127 1.9609473 6.406315 4.1130038 11.690902 6.2318239 15.272123 1.944329 3.307021 3.8304944 5.126714 5.3012048 5.126714.0498546 0 .0997092 0 .1495638-.008309 2.3348566-.199419 6.7386788-6.36477 8.5916078-28.043207z"/></g></g></svg>