<svg height="24" viewBox="0 0 24 24" width="24" xmlns="http://www.w3.org/2000/svg"><path d="m20.8744583 11.1182789c.4243311 3.7499235-1.7694258 7.2874743-5.2270023 8.4288615-3.4576324 1.1414452-7.20417458-.4350853-8.92700563-3.7563133-2.93760593.1257042-5.60515809-1.6837624-6.65842035-4.4674366-.10482046-.2777226-.07559979-.5910537.07860137-.8428106.15419953-.2517569.4147464-.4115593.70085941-.4298572l3.91817647-.25216358-.9727339-3.21405418c-.25694794-.84914231-.08796507-1.77621658.45000011-2.46894894.53796518-.69271494 1.37329772-1.05883713 2.22453287-.97500916 2.12859132.21123998 3.54215185.2026893 4.24062555-.02563459.6985297-.2283239 1.8414155-1.053127 3.4287135-2.47442672.6498093-.58091256 1.5361164-.78326669 2.3590479-.53860473.8229874.2446637 1.4725171.9036058 1.7288721 1.7539157l.9628277 3.18525375 3.2961449-2.10431383c.2444966-.15627634.5459361-.18124872.8108493-.06716229.2649133.11409224.4612489.35343559.5280366.64378092.6625628 2.88834438-.5044875 5.94218961-2.9421256 7.60492385zm-10.0254783 10.3949936-1.78827621-.8897464c-.62558904-.2974728-1.36511986-.0166715-1.6605742.6306122-.29551027.6472837-.03747717 1.4212591.57938584 1.7379593l1.7892831.8892236c.62558907.2975309 1.36517577.0166715 1.66068607-.6306122.2954543-.6473418.0374212-1.4213171-.5794977-1.7379593zm12.4839806-5.5137904c-.2901964-.1714201-.6340354-.2154514-.9556119-.1223931-.3215765.0931164-.5944886.3156546-.7584372.6184716l-.9755251 1.7965128c-.3194509.6270688-.1020274 1.4045295.4905034 1.7542823.5925308.3496946 1.3452066.1447573 1.6982192-.4624451l.974742-1.7967452c.3432237-.6304379.1310582-1.4307275-.4739463-1.7877414z" fill="currentColor" fill-rule="evenodd"/></svg>