<svg height="21" viewBox="0 0 32 21" width="32" xmlns="http://www.w3.org/2000/svg"><g fill="none"><path d="m29.6034375.01725h-27.206875c-1.323625 0-2.3965625 1.0729375-2.3965625 2.3965625v16.1724375c0 1.3235625 1.0729375 2.3965625 2.3965625 2.3965625h27.206875c1.3235625 0 2.3965625-1.0729375 2.3965625-2.3965625v-16.1724375c0-1.323625-1.0729375-2.3965625-2.3965625-2.3965625z" fill="#f5f5f5"/><g fill="#ff4b55"><path d="m.1318125 1.63h31.7363125c-.32475-.9385625-1.21575-1.61275-2.2646875-1.61275h-27.206875c-1.049 0-1.9399375.6741875-2.26475 1.61275z"/><path d="m0 6.468125h32v1.612688h-32z"/><path d="m0 3.2425h32v1.612688h-32z"/><path d="m0 10.754625c0 .3046875.2470625.55175.55175.55175h31.44825v-1.61275h-32z"/><path d="m0 16.145h32v1.61275h-32z"/><path d="m31.8681875 19.37h-31.736375c.3248125.9385625 1.2158125 1.61275 2.26475 1.61275h27.206875c1.049 0 1.9399375-.6741875 2.26475-1.61275z"/><path d="m0 12.919375h32v1.612688h-32z"/></g><path d="m.55175 11.306375h13.793125c.3046875 0 .55175-.2470625.55175-.55175v-10.1856875c0-.30475-.2470625-.55175-.55175-.55175h-11.9483125c-1.323625 0-2.3965625 1.073-2.3965625 2.396625v8.3408125c0 .30475.2470625.55175.55175.55175z" fill="#41479b"/><g fill="#f5f5f5" transform="translate(.875 1.1875)"><path d="m.6743125.0960625.122125.36625.3860625.0029375c.05.0004375.0706875.0641875.0305.093875l-.3105625.2293125.1165.3680625c.015125.047625-.0391875.087125-.079875.058l-.3140625-.2244375-.3140625.2245c-.0406875.029125-.094875-.010375-.079875-.058l.1165-.3680625-.3105625-.2293125c-.0401875-.02975-.0195-.0935.0305-.093875l.3860625-.0029375.122125-.36625c.01575-.0475.08275-.0475.098625-.0000625z"/><path d="m.6743125 2.0119375.122125.36625.3860625.0029375c.05.0004375.0706875.064125.0305.093875l-.3105625.229375.1165.3680625c.015125.047625-.0391875.087125-.079875.058l-.3140625-.2244375-.3140625.2245c-.0406875.0290625-.094875-.010375-.079875-.058l.1165-.3680625-.3105625-.229375c-.0401875-.02975-.0195-.0934375.0305-.093875l.3860625-.0029375.122125-.36625c.01575-.0474375.08275-.0474375.098625-.0000625z"/><path d="m.6743125 3.927875.122125.36625.3860625.0029375c.05.0004375.0706875.064125.0305.093875l-.3105625.229375.1165.3680625c.015125.047625-.0391875.087125-.079875.058l-.3140625-.2244375-.3140625.2245c-.0406875.0290625-.094875-.0103125-.079875-.058l.1165-.3680625-.3105625-.229375c-.0401875-.02975-.0195-.0934375.0305-.093875l.3860625-.0029375.122125-.36625c.01575-.0475.08275-.0475.098625-.0000625z"/><path d="m.6743125 5.84375.122125.36625.3860625.0029375c.05.0004375.0706875.0641875.0305.093875l-.3105625.229375.1165.3680625c.015125.047625-.0391875.087125-.079875.058l-.3140625-.2244375-.3140625.2245c-.0406875.0290625-.094875-.010375-.079875-.058l.1165-.3680625-.3105625-.229375c-.0401875-.029625-.0195-.0934375.0305-.093875l.3860625-.0029375.122125-.36625c.01575-.0475.08275-.0475.098625-.0000625z"/><path d="m.6743125 7.759625.122125.36625.3860625.0029375c.05.0004375.0706875.064125.0305.093875l-.3105625.229375.1165.3680625c.015125.047625-.0391875.087125-.079875.058l-.3140625-.2244375-.3140625.2245c-.0406875.0290625-.094875-.010375-.079875-.058l.1165-.3680625-.3105625-.229375c-.0401875-.02975-.0195-.0934375.0305-.093875l.3860625-.0029375.122125-.36625c.01575-.0474375.08275-.0474375.098625-.0000625z"/><path d="m2.161375 1.035375.122125.36625.3860625.0029375c.05.0004375.0706875.0641875.0305.093875l-.3105625.229375.1165.3680625c.015125.047625-.0391875.087125-.079875.058l-.3140625-.2245-.3140625.2245c-.0406875.0290625-.094875-.010375-.079875-.058l.1165-.3680625-.3105625-.229375c-.0401875-.02975-.0195-.0934375.0305-.093875l.3860625-.0029375.122125-.36625c.01575-.047375.0828125-.047375.098625 0z"/><path d="m2.161375 2.9513125.122125.36625.3860625.0029375c.05.0004375.0706875.0641875.0305.093875l-.3105625.229375.1165.3680625c.015125.047625-.0391875.087125-.079875.058l-.3140625-.2245-.3140625.2245c-.0406875.0290625-.094875-.0103125-.079875-.058l.1165-.3680625-.3105625-.229375c-.0401875-.029625-.0195-.0934375.0305-.093875l.3860625-.0029375.122125-.36625c.01575-.0474375.0828125-.0474375.098625 0z"/><path d="m2.161375 4.8671875.122125.36625.3860625.0029375c.05.0004375.0706875.064125.0305.093875l-.3105625.229375.1165.3680625c.015125.047625-.0391875.087125-.079875.058l-.3140625-.2245-.3140625.2245c-.0406875.0290625-.094875-.010375-.079875-.058l.1165-.3680625-.3105625-.229375c-.0401875-.02975-.0195-.0934375.0305-.093875l.3860625-.0029375.122125-.36625c.01575-.0474375.0828125-.0474375.098625 0z"/><path d="m2.161375 6.7830625.122125.36625.3860625.0029375c.05.0004375.0706875.064125.0305.093875l-.3105625.229375.1165.3680625c.015125.047625-.0391875.087125-.079875.058l-.3140625-.2245-.3140625.2245c-.0406875.029125-.094875-.010375-.079875-.058l.1165-.3680625-.3105625-.229375c-.0401875-.02975-.0195-.0934375.0305-.093875l.3860625-.0029375.122125-.36625c.01575-.047375.0828125-.047375.098625 0z"/><path d="m3.6484375.0960625.122125.36625.3860625.0029375c.05.0004375.0706875.0641875.0305.093875l-.3105625.2293125.1165.3680625c.015125.047625-.0391875.087125-.079875.058l-.3140625-.2245-.3140625.2245c-.0406875.029125-.094875-.010375-.079875-.058l.1165-.3680625-.3105625-.2293125c-.0401875-.02975-.0195-.0935.0305-.093875l.3860625-.0029375.122125-.36625c.01575-.0474375.0828125-.0474375.098625 0z"/><path d="m3.6484375 2.0119375.122125.36625.3860625.0029375c.05.0004375.0706875.064125.0305.093875l-.3105625.229375.1165.3680625c.015125.047625-.0391875.087125-.079875.058l-.3140625-.2245-.3140625.2245c-.0406875.0290625-.094875-.010375-.079875-.058l.1165-.3680625-.3105625-.229375c-.0401875-.02975-.0195-.0934375.0305-.093875l.3860625-.0029375.122125-.36625c.01575-.047375.0828125-.047375.098625 0z"/><path d="m3.6484375 3.927875.122125.36625.3860625.0029375c.05.0004375.0706875.064125.0305.093875l-.3105625.229375.1165.3680625c.015125.047625-.0391875.087125-.079875.058l-.3140625-.2245-.3140625.2245c-.0406875.0290625-.094875-.0103125-.079875-.058l.1165-.3680625-.3105625-.229375c-.0401875-.02975-.0195-.0934375.0305-.093875l.3860625-.0029375.122125-.36625c.01575-.0474375.0828125-.0474375.098625 0z"/><path d="m3.6484375 5.84375.122125.36625.3860625.0029375c.05.0004375.0706875.0641875.0305.093875l-.3105625.229375.1165.3680625c.015125.047625-.0391875.087125-.079875.058l-.3140625-.2245-.3140625.2245c-.0406875.0290625-.094875-.010375-.079875-.058l.1165-.3680625-.3105625-.229375c-.0401875-.029625-.0195-.0934375.0305-.093875l.3860625-.0029375.122125-.36625c.01575-.0474375.0828125-.0474375.098625 0z"/><path d="m3.6484375 7.759625.122125.36625.3860625.0029375c.05.0004375.0706875.064125.0305.093875l-.3105625.229375.1165.3680625c.015125.047625-.0391875.087125-.079875.058l-.3140625-.2245-.3140625.2245c-.0406875.0290625-.094875-.010375-.079875-.058l.1165-.3680625-.3105625-.229375c-.0401875-.02975-.0195-.0934375.0305-.093875l.3860625-.0029375.122125-.36625c.01575-.047375.0828125-.047375.098625 0z"/><path d="m5.1355625 1.035375.122125.36625.3860625.0029375c.05.0004375.0706875.0641875.0305.093875l-.3105625.229375.1165.3680625c.015125.047625-.0391875.087125-.079875.058l-.3140625-.2245-.3140625.2245c-.0406875.0290625-.094875-.010375-.079875-.058l.1165-.3680625-.3105625-.229375c-.0401875-.02975-.0195-.0934375.0305-.093875l.3860625-.0029375.122125-.36625c.0156875-.047375.0828125-.047375.098625 0z"/><path d="m5.1355625 2.9513125.122125.36625.3860625.0029375c.05.0004375.0706875.0641875.0305.093875l-.3105625.229375.1165.3680625c.015125.047625-.0391875.087125-.079875.058l-.3140625-.2245-.3140625.2245c-.0406875.0290625-.094875-.0103125-.079875-.058l.1165-.3680625-.3105625-.229375c-.0401875-.029625-.0195-.0934375.0305-.093875l.3860625-.0029375.122125-.36625c.0156875-.0474375.0828125-.0474375.098625 0z"/><path d="m5.1355625 4.8671875.122125.36625.3860625.0029375c.05.0004375.0706875.064125.0305.093875l-.3105625.229375.1165.3680625c.015125.047625-.0391875.087125-.079875.058l-.3140625-.2245-.3140625.2245c-.0406875.0290625-.094875-.010375-.079875-.058l.1165-.3680625-.3105625-.229375c-.0401875-.02975-.0195-.0934375.0305-.093875l.3860625-.0029375.122125-.36625c.0156875-.0474375.0828125-.0474375.098625 0z"/><path d="m5.1355625 6.7830625.122125.36625.3860625.0029375c.05.0004375.0706875.064125.0305.093875l-.3105625.229375.1165.3680625c.015125.047625-.0391875.087125-.079875.058l-.3140625-.2245-.3140625.2245c-.0406875.029125-.094875-.010375-.079875-.058l.1165-.3680625-.3105625-.229375c-.0401875-.02975-.0195-.0934375.0305-.093875l.3860625-.0029375.122125-.36625c.0156875-.047375.0828125-.047375.098625 0z"/><path d="m6.622625.0960625.122125.36625.3860625.0029375c.05.0004375.0706875.0641875.0305.093875l-.3105625.2293125.1165.3680625c.015125.047625-.0391875.087125-.079875.058l-.314125-.2244375-.3140625.2245c-.0406875.029125-.094875-.010375-.079875-.058l.1165-.3680625-.3105625-.2293125c-.0401875-.02975-.0195-.0935.0305-.093875l.3860625-.0029375.122125-.36625c.0158125-.0475.082875-.0475.0986875-.0000625z"/><path d="m6.622625 2.0119375.122125.36625.3860625.0029375c.05.0004375.0706875.064125.0305.093875l-.3105625.229375.1165.3680625c.015125.047625-.0391875.087125-.079875.058l-.314125-.2245-.3140625.2245c-.0406875.0290625-.094875-.010375-.079875-.058l.1165-.3680625-.3105625-.229375c-.0401875-.02975-.0195-.0934375.0305-.093875l.3860625-.0029375.122125-.36625c.0158125-.047375.082875-.047375.0986875 0z"/><path d="m6.622625 3.927875.122125.36625.3860625.0029375c.05.0004375.0706875.064125.0305.093875l-.3105625.229375.1165.3680625c.015125.047625-.0391875.087125-.079875.058l-.314125-.2245625-.3140625.2245c-.0406875.0290625-.094875-.010375-.079875-.058l.1165-.3680625-.3105625-.229375c-.0401875-.02975-.0195-.0934375.0305-.093875l.3860625-.0029375.122125-.36625c.0158125-.047375.082875-.047375.0986875.0000625z"/><path d="m6.622625 5.84375.122125.36625.3860625.0029375c.05.0004375.0706875.0641875.0305.093875l-.3105625.229375.1165.3680625c.015125.047625-.0391875.087125-.079875.058l-.314125-.2245-.3140625.2245c-.0406875.0290625-.094875-.010375-.079875-.058l.1165-.3680625-.3105625-.229375c-.0401875-.029625-.0195-.0934375.0305-.093875l.3860625-.0029375.122125-.36625c.0158125-.0474375.082875-.0474375.0986875 0z"/><path d="m6.622625 7.759625.122125.36625.3860625.0029375c.05.0004375.0706875.064125.0305.093875l-.3105625.229375.1165.3680625c.015125.047625-.0391875.087125-.079875.058l-.314125-.2245-.3140625.2245c-.0406875.0290625-.094875-.010375-.079875-.058l.1165-.3680625-.3105625-.229375c-.0401875-.02975-.0195-.0934375.0305-.093875l.3860625-.0029375.122125-.36625c.0158125-.047375.082875-.047375.0986875 0z"/><path d="m8.1096875 1.035375.122125.36625.3860625.0029375c.05.0004375.0706875.0641875.0305.093875l-.3105625.229375.1165.3680625c.015125.047625-.0391875.087125-.079875.058l-.3140625-.2245-.3140625.2245c-.0406875.0290625-.094875-.010375-.079875-.058l.1165-.3680625-.3105625-.229375c-.0401875-.02975-.0195-.0934375.0305-.093875l.3860625-.0029375.122125-.36625c.0158125-.047375.0828125-.047375.098625 0z"/><path d="m8.1096875 2.9513125.122125.36625.3860625.0029375c.05.0004375.0706875.0641875.0305.093875l-.3105625.229375.1165.3680625c.015125.047625-.0391875.087125-.079875.058l-.3140625-.2245-.3140625.2245c-.0406875.0290625-.094875-.0103125-.079875-.058l.1165-.3680625-.3105625-.229375c-.0401875-.029625-.0195-.0934375.0305-.093875l.3860625-.0029375.122125-.36625c.0158125-.0474375.0828125-.0474375.098625 0z"/><path d="m8.1096875 4.8671875.122125.36625.3860625.0029375c.05.0004375.0706875.064125.0305.093875l-.3105625.229375.1165.3680625c.015125.047625-.0391875.087125-.079875.058l-.3140625-.2245-.3140625.2245c-.0406875.0290625-.094875-.010375-.079875-.058l.1165-.3680625-.3105625-.229375c-.0401875-.02975-.0195-.0934375.0305-.093875l.3860625-.0029375.122125-.36625c.0158125-.0474375.0828125-.0474375.098625 0z"/><path d="m8.1096875 6.7830625.122125.36625.3860625.0029375c.05.0004375.0706875.064125.0305.093875l-.3105625.229375.1165.3680625c.015125.047625-.0391875.087125-.079875.058l-.3140625-.2245-.3140625.2245c-.0406875.029125-.094875-.010375-.079875-.058l.1165-.3680625-.3105625-.229375c-.0401875-.02975-.0195-.0934375.0305-.093875l.3860625-.0029375.122125-.36625c.0158125-.047375.0828125-.047375.098625 0z"/><path d="m9.5968125.0960625.122125.36625.3860625.0029375c.05.0004375.0706875.0641875.0305.093875l-.3105625.2293125.1165.3680625c.015125.047625-.0391875.087125-.079875.058l-.3140625-.2245-.3140625.2245c-.0406875.029125-.094875-.010375-.079875-.058l.1165-.3680625-.3105625-.2293125c-.0401875-.02975-.0195-.0935.0305-.093875l.3860625-.0029375.122125-.36625c.0156875-.0474375.0828125-.0474375.098625 0z"/><path d="m9.5968125 2.0119375.122125.36625.3860625.0029375c.05.0004375.0706875.064125.0305.093875l-.3105625.229375.1165.3680625c.015125.047625-.0391875.087125-.079875.058l-.3140625-.2245-.3140625.2245c-.0406875.0290625-.094875-.010375-.079875-.058l.1165-.3680625-.3105625-.229375c-.0401875-.02975-.0195-.0934375.0305-.093875l.3860625-.0029375.122125-.36625c.0156875-.047375.0828125-.047375.098625 0z"/><path d="m9.5968125 3.927875.122125.36625.3860625.0029375c.05.0004375.0706875.064125.0305.093875l-.3105625.229375.1165.3680625c.015125.047625-.0391875.087125-.079875.058l-.3140625-.2245-.3140625.2245c-.0406875.0290625-.094875-.0103125-.079875-.058l.1165-.3680625-.3105625-.229375c-.0401875-.02975-.0195-.0934375.0305-.093875l.3860625-.0029375.122125-.36625c.0156875-.0474375.0828125-.0474375.098625 0z"/><path d="m9.5968125 5.84375.122125.36625.3860625.0029375c.05.0004375.0706875.0641875.0305.093875l-.3105625.229375.1165.3680625c.015125.047625-.0391875.087125-.079875.058l-.3140625-.2245-.3140625.2245c-.0406875.0290625-.094875-.010375-.079875-.058l.1165-.3680625-.3105625-.229375c-.0401875-.029625-.0195-.0934375.0305-.093875l.3860625-.0029375.122125-.36625c.0156875-.0474375.0828125-.0474375.098625 0z"/><path d="m9.5968125 7.759625.122125.36625.3860625.0029375c.05.0004375.0706875.064125.0305.093875l-.3105625.229375.1165.3680625c.015125.047625-.0391875.087125-.079875.058l-.3140625-.2245-.3140625.2245c-.0406875.0290625-.094875-.010375-.079875-.058l.1165-.3680625-.3105625-.229375c-.0401875-.02975-.0195-.0934375.0305-.093875l.3860625-.0029375.122125-.36625c.0156875-.047375.0828125-.047375.098625 0z"/><path d="m11.083875 1.035375.122125.36625.3860625.0029375c.05.0004375.0706875.0641875.0305.093875l-.3105625.229375.1165.3680625c.015125.047625-.0391875.087125-.079875.058l-.3140625-.2245-.3140625.2245c-.0406875.0290625-.094875-.010375-.079875-.058l.1165-.3680625-.3105625-.229375c-.0401875-.02975-.0195-.0934375.0305-.093875l.3860625-.0029375.122125-.36625c.01575-.047375.0828125-.047375.098625 0z"/><path d="m11.083875 2.9513125.122125.36625.3860625.0029375c.05.0004375.0706875.0641875.0305.093875l-.3105625.229375.1165.3680625c.015125.047625-.0391875.087125-.079875.058l-.3140625-.2245-.3140625.2245c-.0406875.0290625-.094875-.0103125-.079875-.058l.1165-.3680625-.3105625-.229375c-.0401875-.029625-.0195-.0934375.0305-.093875l.3860625-.0029375.122125-.36625c.01575-.0474375.0828125-.0474375.098625 0z"/><path d="m11.083875 4.8671875.122125.36625.3860625.0029375c.05.0004375.0706875.064125.0305.093875l-.3105625.229375.1165.3680625c.015125.047625-.0391875.087125-.079875.058l-.3140625-.2245-.3140625.2245c-.0406875.0290625-.094875-.010375-.079875-.058l.1165-.3680625-.3105625-.229375c-.0401875-.02975-.0195-.0934375.0305-.093875l.3860625-.0029375.122125-.36625c.01575-.0474375.0828125-.0474375.098625 0z"/><path d="m11.083875 6.7830625.122125.36625.3860625.0029375c.05.0004375.0706875.064125.0305.093875l-.3105625.229375.1165.3680625c.015125.047625-.0391875.087125-.079875.058l-.3140625-.2245-.3140625.2245c-.0406875.029125-.094875-.010375-.079875-.058l.1165-.3680625-.3105625-.229375c-.0401875-.02975-.0195-.0934375.0305-.093875l.3860625-.0029375.122125-.36625c.01575-.047375.0828125-.047375.098625 0z"/><path d="m12.571.0960625.122125.36625.3860625.0029375c.05.0004375.0706875.0641875.0305.093875l-.3105625.2293125.1165.3680625c.015125.047625-.0391875.087125-.079875.058l-.3140625-.2245-.3140625.2245c-.0406875.029125-.094875-.010375-.079875-.058l.1165-.3680625-.3105625-.2293125c-.0401875-.02975-.0195-.0935.0305-.093875l.3860625-.0029375.122125-.36625c.01575-.0474375.08275-.0474375.098625 0z"/><path d="m12.571 2.0119375.122125.36625.3860625.0029375c.05.0004375.0706875.064125.0305.093875l-.3105625.229375.1165.3680625c.015125.047625-.0391875.087125-.079875.058l-.3140625-.2245-.3140625.2245c-.0406875.0290625-.094875-.010375-.079875-.058l.1165-.3680625-.3105625-.229375c-.0401875-.02975-.0195-.0934375.0305-.093875l.3860625-.0029375.122125-.36625c.01575-.047375.08275-.047375.098625 0z"/><path d="m12.571 3.927875.122125.36625.3860625.0029375c.05.0004375.0706875.064125.0305.093875l-.3105625.229375.1165.3680625c.015125.047625-.0391875.087125-.079875.058l-.3140625-.2245-.3140625.2245c-.0406875.0290625-.094875-.0103125-.079875-.058l.1165-.3680625-.3105625-.229375c-.0401875-.02975-.0195-.0934375.0305-.093875l.3860625-.0029375.122125-.36625c.01575-.0474375.08275-.0474375.098625 0z"/><path d="m12.571 5.84375.122125.36625.3860625.0029375c.05.0004375.0706875.0641875.0305.093875l-.3105625.229375.1165.3680625c.015125.047625-.0391875.087125-.079875.058l-.3140625-.2245-.3140625.2245c-.0406875.0290625-.094875-.010375-.079875-.058l.1165-.3680625-.3105625-.229375c-.0401875-.029625-.0195-.0934375.0305-.093875l.3860625-.0029375.122125-.36625c.01575-.0474375.08275-.0474375.098625 0z"/><path d="m12.571 7.759625.122125.36625.3860625.0029375c.05.0004375.0706875.064125.0305.093875l-.3105625.229375.1165.3680625c.015125.047625-.0391875.087125-.079875.058l-.3140625-.2245-.3140625.2245c-.0406875.0290625-.094875-.010375-.079875-.058l.1165-.3680625-.3105625-.229375c-.0401875-.02975-.0195-.0934375.0305-.093875l.3860625-.0029375.122125-.36625c.01575-.047375.08275-.047375.098625 0z"/></g></g></svg>