<svg height="60" viewBox="0 0 60 60" width="60" xmlns="http://www.w3.org/2000/svg"><g fill="none"><path d="m58.9531992 35.8790342-18.1267606 18.971831c-3.2607646 3.2607646-7.6828974 5.0921529-12.2933601 5.0921529h-3.4225352c-8.800322 0-15.93561372-7.1345674-15.93561372-15.9356137 0-4.2410463-1.1167002-8.4060362-3.23661972-12.0784708l-5.42052314-9.3887324c-.82985916-1.4371026-.63356137-3.1969014.38269618-4.4100604 1.70571428-2.040845 4.95597585-1.793843 6.30905432.5468813 7.88849098 13.6637022-1.24635815-2.1592756 7.71911468 13.3702214-6.17686116-23.0517103-6.15006035-22.37553324-5.93239435-23.62575457 0-.12531187.15754527-.74969819.37545271-1.18551307 1.77899394-3.65420524 7.08120724-3.08148894 8.11267604.76418511.3219718 1.20193159 5.3840644 20.09565393 5.6945674 21.25472833 0-26.32418507-.0190744-24.99319916.0350101-25.39798789.3010865-2.25609658 2.2693762-3.78712274 4.0877263-3.78712274 2.5179477-.12277666 4.5694165 1.8783501 4.5694165 4.34004024v25.59356139c7.2660363-25.34486923 6.6631389-23.56768614 7.2-24.38631793 1.1304628-1.79130784 3.6875252-2.54305835 5.7259558-1.40040241 1.616499.81150905 2.6383098 2.89521127 2.0945674 4.92796781l-6.3283702 23.61609653v5.1344065c0 1.7215292 2.0800804 2.583501 3.2969818 1.3665996 5.8425755-6.7639437 5.3205634-6.1768612 5.6004025-6.4382294 3.0232998-2.8018913 7.1344466-3.2139235 8.494165-2.534004 2.1486519.9237827 2.8008048 3.7871227.9983903 5.5895372z" fill="#f9cfac"/><path d="m59.765674 32.1752113-20.7187122 21.5046277c-2.6040242 2.2901409-5.826157 3.7448692-9.2474849 4.1867204-10.783823 1.4019718-18.6929578-6.5874447-18.6929578-15.7907445 0-4.2410463-1.11670019-8.4060362-3.2366197-12.0784708-7.31227364-12.4360564-6.88780684-11.707002-6.9694165-11.8672033.95046277-1.1371026 2.49766599-1.6554929 3.98873239-1.2458752.83746479.2298591 1.31722334.6121932 1.86156942 1.1565392 4.10269619 6.8717505 8.18993959 14.0064387 8.17786719 14.0064387 1.0354527 0 1.7891348-.9822133 1.5211268-1.9824145-5.767002-21.5220121-5.4950101-20.18438634-5.4555332-21.11336019.0331992-1.35911469.8275654-2.80647887 2.1235412-3.56257545.5437425-.3193159 1.1468813-.48603622 1.1963783-.48651911 1.4921529.36338028 2.7440644 1.51026156 3.1702213 3.09778672.5676459 2.11883303 5.0809256 18.96434603 5.6945674 21.25472833 0-27.25859151-.0290945-25.04402411.0676057-25.61408447.1172233-.65251509.391509-1.26663984.7062374-1.70704225.3737626-.54531188.876338-.94285715.8885312-.94285715 2.9463984-2.27239436 7.0297786-.11758551 7.0297786 3.41891348v25.59356139c7.0489739-24.58768614 6.670986-23.29424549 6.7364186-23.46398392 1.0292957-2.93299799 4.9586317-3.95987928 7.2953722-1.4498994.1486117.16816902.6666398-2.05665996-7.2712274 28.03340042v5.1344064c0 1.4771831 1.6486117 2.9034205 3.5529175 2.1621731 1.2793159-.4983501 1.9962978-1.5289739 2.9770624-2.6643864 4.412837-5.1077263 3.8853924-4.507002 4.1919115-4.829336 1.2848692-1.2427364 2.9607646-2.2090141 4.8817304-2.6531589.8090945-.1851912 2.088169-.3490141 2.8708249-.2293763 1.0627364.1637022 1.9387123.8059558 2.4350101 1.665996.1372635.2298591.2187525.4539235.2245472.465996z" fill="#ffe4cc"/><path d="m27.0421328 54.9933199c-.5333602 0-.9657948-.4324346-.9657948-.9657947 0-7.7146479 5.7579477-14.2991952 13.3935212-15.3162978.5304627-.0695373 1.0145674.3010865 1.0848289.8297384.070503.5287726-.3010865 1.0144467-.8297384 1.084829-6.6797988.8897384-11.7171429 6.6513078-11.7171429 13.4017304.0001208.5333601-.4323138.9657947-.965674.9657947z" fill="#f9cfac"/></g></svg>