<svg width="60" height="60" viewBox="0 0 496.994 496.994" enable-background="new 0 0 496.994 496.994">
  <path d="m488.329 297.198-150.15 157.15c-27.01 27.01-63.64 42.18-101.83 42.18h-28.35c-72.896 0-132-59.098-132-132 0-35.13-9.25-69.63-26.81-100.05l-44.9-77.77c-6.874-11.904-5.248-26.481 3.17-36.53 14.129-16.905 41.052-14.859 52.26 4.53 65.343 113.181-10.324-17.886 63.94 110.75-51.165-190.945-50.943-185.344-49.14-195.7 0-1.038 1.305-6.21 3.11-9.82 14.736-30.269 58.656-25.525 67.2 6.33 2.667 9.956 44.598 166.459 47.17 176.06 0-218.052-.158-207.027.29-210.38 2.494-18.688 18.798-31.37 33.86-31.37 20.857-1.017 37.85 15.559 37.85 35.95v212c60.187-209.94 55.193-195.219 59.64-202 9.364-14.838 30.545-21.065 47.43-11.6 13.39 6.722 21.854 23.982 17.35 40.82l-52.42 195.62v42.53c0 14.26 17.23 21.4 27.31 11.32 48.396-56.028 44.072-51.165 46.39-53.33 25.043-23.209 59.097-26.622 70.36-20.99 17.798 7.652 23.2 31.37 8.27 46.3z" fill="#f9cfac"/>
  <path d="m495.059 266.518-171.62 178.13c-21.57 18.97-48.26 31.02-76.6 34.68-89.326 11.613-154.84-54.566-154.84-130.8 0-35.13-9.25-69.63-26.81-100.05-60.57-103.012-57.054-96.973-57.73-98.3 7.873-9.419 20.689-13.713 33.04-10.32 6.937 1.904 10.911 5.071 15.42 9.58 33.984 56.921 67.84 116.02 67.74 116.02 8.577 0 14.82-8.136 12.6-16.421-47.77-178.274-45.517-167.194-45.19-174.889.275-11.258 6.855-23.247 17.59-29.51 4.504-2.645 9.5-4.026 9.91-4.03 12.36 3.01 22.73 12.51 26.26 25.66 4.702 17.551 42.087 157.088 47.17 176.06 0-225.792-.241-207.448.56-212.17.971-5.405 3.243-10.492 5.85-14.14 3.096-4.517 7.259-7.81 7.36-7.81 24.406-18.823 58.23-.974 58.23 28.32v212c58.389-203.668 55.258-192.954 55.8-194.36 8.526-24.295 41.074-32.801 60.43-12.01 1.231 1.393 5.522-17.036-60.23 232.21v42.53c0 12.236 13.656 24.05 29.43 17.91 10.597-4.128 16.536-12.665 24.66-22.07 36.553-42.309 32.184-37.333 34.723-40.003 10.643-10.294 24.525-18.298 40.437-21.977 6.702-1.534 17.297-2.891 23.78-1.9 8.803 1.356 16.059 6.676 20.17 13.8 1.137 1.904 1.812 3.76 1.86 3.86z" fill="#ffe4cc"/>
  <path d="m223.999 455.528c-4.418 0-8-3.582-8-8 0-63.903 47.695-118.445 110.943-126.87 4.394-.576 8.404 2.494 8.986 6.873.584 4.38-2.494 8.403-6.873 8.986-55.331 7.37-97.057 55.095-97.057 111.011.001 4.418-3.581 8-7.999 8z" fill="#f9cfac"/>
</svg>