<svg height="48" viewBox="0 0 48 48" width="48" xmlns="http://www.w3.org/2000/svg"><g fill="none" fill-rule="evenodd"><g fill-rule="nonzero"><circle cx="24" cy="24" fill="#f8c24f" r="24"/><path d="m11.527125 12.426h24.94575c.7455844 0 1.35.6044156 1.35 1.35v17.865h-27.64425v-17.8665c.0008267-.7444133.6040867-1.3476733 1.3485-1.3485z" fill="#000"/><path d="m16.07775 9.89775h15.844125v24.271875h-15.844125z" fill="#64a6fc" transform="matrix(0 1 -1 0 46.033501 -1.966125)"/><path d="m8.55 31.641h30.9c.3727922 0 .675.3022078.675.675v1.2375c0 1.117134-.905616 2.02275-2.02275 2.02275h-28.2045c-.53685672 0-1.05169237-.213419-1.43109632-.593245-.37940396-.379826-.59225085-.8948986-.59165493-1.431755v-1.2375c0-.3727922.30220904-.675.67500125-.675z" fill="#e6e6e6"/><path d="m27.255 33.115875h-6.51l-.769125-1.474875h8.04825z" fill="#b0b0b0"/></g><g transform="translate(14.625 12.65625)"><path d="m0 0h18.75v18.75h-18.75z"/><path d="m6.796875 12.421875-3.046875-3.046875 3.046875-3.046875c.3046875-.3046875.3046875-.7890625 0-1.09375s-.7890625-.3046875-1.09375 0l-3.5859375 3.5859375c-.3046875.3046875-.3046875.796875 0 1.1015625l3.5859375 3.59375c.3046875.3046875.7890625.3046875 1.09375 0s.3046875-.7890625 0-1.09375zm5.15625 0 3.046875-3.046875-3.046875-3.046875c-.3046875-.3046875-.3046875-.7890625 0-1.09375s.7890625-.3046875 1.09375 0l3.5859375 3.5859375c.3046875.3046875.3046875.796875 0 1.1015625l-3.5859375 3.59375c-.3046875.3046875-.7890625.3046875-1.09375 0s-.3046875-.7890625 0-1.09375z" fill="#fff" fill-rule="nonzero"/></g></g></svg>