<svg height="21" viewBox="0 0 24 21" width="24" xmlns="http://www.w3.org/2000/svg"><path d="m20.2285608 14.3390558c.2063691-.119957.3339191-.3421629.3346759-.5830415l.0120003-3.90516264c.0007567-.24087864.1283068-.46308445.3346759-.5830414l2.091391-1.2160192c.2062908-.11991301.4600766-.11947974.6659666.00113695s.3327304.34313972.3327304.5839289v7.09974359c0 .2416025-.1276911.4647479-.3346787.5850659l-7.8928843 4.5887517c-.2051359.1192012-.4573126.119458-.6626849.0006748l-6.19417094-3.5859746c-.20770776-.120093-.33593211-.3436172-.33600927-.5857406v-3.579901c0-.004049.0046668-.0067482.0086669-.0047238.00333343.0020245.00800023 0 .00800023-.0047237v-.0040489c0-.0026993.00133337-.0053985.00400011-.0067483l5.10147407-2.9664929c.0046668-.0026993.0026668-.0101223-.0026668-.0101223-.0029456 0-.0053335-.002417-.0053335-.0053985l.0100003-3.50972022c.0009497-.24156761-.1257446-.46522266-.3321918-.58642246s-.4611523-.12145451-.6678358-.00066783l-3.79143787 2.21137343c-.20593395.12002556-.45941773.12002556-.66535168 0l-3.80343824-2.21677197c-.20622916-.12019767-.46011878-.12001391-.6661779.00048221-.20605912.12049611-.33303977.34303183-.33318301.58390883v6.34327441c.00016108.2406144-.12626419.4631129-.3318164.583971-.20555221.1208579-.4591311.1217893-.66554444.0024445l-2.11072488-1.2214177c-.20812205-.1203323-.33641114-.3444847-.33601115-.5870904l.01866906-11.08723385c.00051705-.24054806.12750026-.46263035.33330358-.58291815s.45930627-.12059185.66539064-.00079806l7.23019942 4.20343152c.20559431.11950817.45842403.11950817.66401832 0l7.22819935-4.20343152c.2063941-.11997315.4603219-.11947544.6662553.00130587.2059334.12078132.3326348.3435251.332439.58443479v11.0899332c.0000949.2414629-.1272784.4645758-.3340093.5850658l-3.7854378 2.2066497c-.2069623.120764-.3342703.344383-.3337195.5861852.0005508.2418021.1288761.4648245.3363863.5846213l2.0880577 1.2031978c.2053199.1183168.4571706.1178033.6620182-.0013497zm.438012-9.94814385c.0001896.24295236.1293893.46704745.3382715.58672738.2088823.11967993.4651988.11646792.6710897-.00840971l2.0000553-1.21466957c.2008355-.12181121.3238238-.34133079.3240088-.57831767v-2.47522666c-.0004292-.24283165-.1297231-.46670447-.338561-.58621934-.2088378-.11951487-.4650114-.11623958-.6708002.00857648l-2.0000551 1.21466957c-.2008356.12181122-.3238239.3413308-.324009.57831768v2.47522665z" fill-rule="evenodd" fill="currentColor" /></svg>