<svg height="1000" viewBox="0 0 1000 1000" width="1000" xmlns="http://www.w3.org/2000/svg"><g fill="none"><path d="m1000 0v1000h-1000v-1000z" fill="#61dafb"/><path d="m131.168097 426.83991h-7.20524v450h87.772926v-167.030567c0-7.174048-.185664-15.350683-.46858-23.645785l-.180713-4.984208c-.064516-1.683877-.132302-3.365355-.202621-5.037075l-.085551-2.000905c-.967849-22.280605-2.337644-42.279625-2.337644-42.279625s12.803745 18.73719 27.629918 38.09895l3.092805 4.008853c5.710081 7.344117 11.604163 14.598372 17.09387 20.774292l88.427948 98.908297h8.515285l88.427947-98.908297c5.489708-6.17592 11.383788-13.430175 17.09387-20.774292l3.092805-4.008853c14.826173-19.36176 27.629918-38.09895 27.629918-38.09895s-1.369795 19.99902-2.337643 42.279625l-.085552 2.000905c-.014065.334345-.028028.669077-.041883 1.004145l-.121642 3.02295c-.01316.336525-.026193.673205-.039095 1.00998l-.180715 4.984208c-.254623 7.465592-.430473 14.835225-.463098 21.464377l-.007912 167.822065-.645448 1.487143h88.556853l.038595-.099643.48038.00241-.00038-1.15491 20.472657-49.25806h181.049563l20.991255 50.510203h96.428572l-204.008747-450.000001h-7.87172l-107.06158 245.625358.00038-245.72259h-7.860263l-216.157205 241.048035z" fill="#323330"/><path d="m684.302988 592.899243c.876525 3.067837 7.02356 24.289657 14.724217 46.84164l.737975 2.151292c.247478.718078.496403 1.43696.746655 2.156105l1.885705 5.35029c2.859905 8.008073 5.848595 15.88252 8.80049 22.87385l32.142858 77.405248h-117.419825l32.142857-77.405248c2.49271-6.16618 5.011663-12.9621 7.451895-19.904957l.729603-2.086783c.484687-1.393482.965807-2.790912 1.44252-4.188425l1.064807-3.14292.700558-2.090607c7.313967-21.919095 13.27408-42.661378 14.599835-47.136545l.226445-.75058c.009037-.028543.016845-.05268.023405-.07236z" fill="#61dafb"/></g></svg>