<svg height="66" viewBox="0 0 100 100" width="66" xmlns="http://www.w3.org/2000/svg"><g fill="none" fill-rule="evenodd"><rect height="95" rx="7" stroke="#62a5fc" stroke-width="5" width="95" x="2.5" y="2.5"/><g fill="#62a5fc" fill-rule="nonzero"><path d="m58.384 90 2.112-5.082h18.216l2.112 5.082h9.702l-20.526-45.276h-.792l-19.734 45.276zm17.028-12.804h-11.814l3.234-7.788c1.254-3.102 2.574-7.788 2.64-7.986.0937895.3282632.787338 2.7223629 1.6308262 5.1462752l.1897271.5383104c.2877445.8057191.5884467 1.5979933.8854467 2.3014144z"/><path d="m20.64 90v-16.83c0-.7228571-.0187075-1.5467347-.0472141-2.3825494l-.0182086-.5022086c-.09621-2.5110787-.2645773-4.969242-.2645773-4.969242s1.2901054 1.8879592 2.7839906 3.8388503l.311631.403932c.5753478.7399932 1.1692355 1.470932 1.7223784 2.0932177l8.91 9.966h.858l8.91-9.966c.5531429-.6222857 1.1470306-1.3532245 1.7223784-2.0932177l.311631-.403932c1.4938852-1.9508911 2.7839906-3.8388503 2.7839906-3.8388503s-.1683673 2.4581633-.2645773 4.969242l-.0182086.5022086c-.025656.7522332-.0433746 1.4947974-.0466618 2.1627507l-.0005523 17.0497987h8.91v-45.342h-.792l-21.78 24.288-22.11-24.288h-.726v45.342z"/></g></g></svg>