<?xml version="1.0" standalone="no"?>
<!DOCTYPE svg PUBLIC "-//W3C//DTD SVG 20010904//EN"
 "http://www.w3.org/TR/2001/REC-SVG-20010904/DTD/svg10.dtd">
<svg version="1.0" xmlns="http://www.w3.org/2000/svg"
 width="700.000000pt" height="700.000000pt" viewBox="0 0 700.000000 700.000000"
 preserveAspectRatio="xMidYMid meet">
<metadata>
Created by potrace 1.14, written by Peter Selinger 2001-2017
</metadata>
<g transform="translate(0.000000,700.000000) scale(0.100000,-0.100000)"
fill="#000000" stroke="none">
<path d="M870 2436 l0 -1576 306 0 306 0 -5 823 c-3 452 -9 838 -13 857 -6 29
7 16 76 -80 132 -183 182 -243 538 -643 314 -352 339 -378 367 -375 25 3 73
51 308 313 343 382 456 516 572 678 50 69 92 121 93 116 2 -5 -1 -102 -7 -215
-6 -114 -11 -492 -11 -840 l0 -634 311 2 311 3 72 172 71 173 635 0 635 0 70
-173 71 -172 337 -3 c185 -1 337 2 337 6 0 5 -319 713 -709 1573 l-709 1564
-33 0 -32 0 -368 -843 c-202 -464 -370 -846 -373 -850 -3 -3 -6 378 -6 846 l0
852 -28 0 c-25 0 -120 -102 -782 -840 l-754 -841 -37 38 c-20 21 -364 398
-764 838 -603 663 -733 801 -756 803 l-29 3 0 -1575z m3930 379 c0 -42 153
-465 265 -735 70 -168 129 -311 132 -317 4 -10 -80 -13 -401 -13 -223 0 -406
4 -406 9 0 4 56 145 125 311 111 267 219 569 257 713 12 45 28 64 28 32z"/>
</g>
</svg>
