<svg viewBox="0 0 50 50" xmlns="http://www.w3.org/2000/svg"><g fill="#e4f4f3"><path d="m20.8 1.8c-.1 0-.2-.1-.2-.1-.1 0-.2 0-.3 0z"/><path d="m1.8 20.6v.3c0 .1.1.2.1.2z"/><path d="m48.2 29.4c0-.1 0-.2 0-.3s-.1-.2-.1-.2z"/><path d="m28.9 48c.1 0 .2.1.2.1h.3z"/><path d="m48.2 29.2v.3l-.1-.5s.1.1.1.2c.3-1.4.4-2.8.4-4.3 0-3.2-.6-6.3-1.9-9.2-1.2-2.8-2.9-5.3-5.1-7.5-2.1-2.2-4.6-3.9-7.4-5.1-2.9-1.2-6-1.9-9.2-1.9-1.5 0-3 .1-4.5.4.1 0 .2.1.2.1l-.5-.1h.3c-2-1.1-4.3-1.6-6.6-1.6-3.7 0-7.2 1.5-9.9 4.1-2.5 2.7-4 6.2-4 9.9 0 2.4.6 4.7 1.8 6.8 0-.1 0-.2 0-.3l.1.5c0-.1-.1-.2-.1-.2-.2 1.3-.4 2.7-.4 4.1 0 3.2.6 6.3 1.9 9.2 1.2 2.8 2.9 5.3 5.1 7.5s4.7 3.9 7.5 5.1c2.9 1.2 6 1.9 9.2 1.9 1.4 0 2.8-.1 4.1-.4-.1 0-.2-.1-.2-.1l.5.1c-.1 0-.2 0-.3 0 2.1 1.2 4.5 1.8 6.9 1.8 3.7 0 7.2-1.5 9.9-4.1 2.6-2.6 4.1-6.1 4.1-9.9-.1-2.4-.7-4.8-1.9-6.8zm-23.1 10.1c-8.4 0-12.1-4.1-12.1-7.2 0-1.6 1.2-2.7 2.8-2.7 3.6 0 2.7 5.2 9.4 5.2 3.4 0 5.3-1.9 5.3-3.8 0-1.1-.6-2.4-2.8-3l-7.6-1.8c-6-1.5-7.1-4.8-7.1-7.8 0-6.3 6-8.7 11.6-8.7 5.2 0 11.3 2.9 11.3 6.7 0 1.6-1.4 2.6-3 2.6-3.1 0-2.5-4.2-8.7-4.2-3.1 0-4.8 1.4-4.8 3.4s2.4 2.6 4.5 3.1l5.5 1.2c6 1.3 7.6 4.9 7.6 8.2 0 5-3.9 8.8-11.9 8.8z"/></g></svg>