<svg height="78" viewBox="0 0 200 78" width="200" xmlns="http://www.w3.org/2000/svg"><g fill="none" fill-rule="nonzero"><path d="m137.163959 6.92281434-.044314-.42897781-.694239.05916935.044313.42897781zm4.667651 11.24217716.014771.2366774.487445-.044377c-.014771-.1479234.044313-.3846008.14771-.6804476l-.044313-.4289778c-.206795.0147923-.413589.3254314-.605613.917125zm-18.212703 14.1562677c-.029542-.3993931-1.27031-1.9525886-3.722304-4.6891712-.044313-.5029395.797636-1.2573488 2.525849-2.2484354l4.93353-4.3045705c1.107829-1.4052721 1.757755-3.6832922 1.949779-6.8488526l-.059084-.7248246c-.192024-2.1892661-1.772526-3.94955434-4.771049-5.29565713-1.772526-1.1981794-4.963073-1.86383463-9.57164-1.98217333-3.81093.32543144-8.788774 1.68632657-14.918759 4.09747776-1.6838996 1.2129717-3.6041359 2.4259434-5.7607091 3.6389152l.0295421.3698084c.1329395-.0147923.3397342-.088754.5760709-.2514697.2511079-.0295847.3988184.088754.4135894.3254314l.3692762-.1923004.1772526-.0147923.0147711.1627157c.014771.1923004-1.3146234 1.2425564-4.0029543 3.1211834l.2067947.3846008-.1772526.0147923-.4431314-.1627157c.014771.1331311-.1772526.2218851-.5465288.2514698l.014771.1627157.4283604.5325242c-.1329394.0147923-.3397341-.044377-.620384-.1479234-.6203841.0591693-1.2259971.3846008-1.8316101 1.005879l.2511079-1.094633c.901034-3.890385 1.521418-7.3369999 1.8463811-10.3250522l-.0443132-.19230039c-.620384-.39939314-1.225997-.961502-1.7872969-1.67153424.0147711-.45856248.0147711-.72482457 0-.78399393l-.0443131-.16271572-.1772526.04437702c-1.9497784 2.92888298-5.7016248 7.92869336-11.2703102 14.99943106-4.239291 5.029395-6.4254062 7.825147-6.5583456 8.3872558-1.7282127 1.789873-2.5553915 2.8697137-2.4667652 3.2395221-.4579025.2958468-.6499261.5916936-.5760709.917125-.1329394.0295847-.2215657-.0147923-.2511078-.1479234-.7385524 1.1981794-1.8316101 1.967381-3.2939439 2.3076048l-1.536189.3550161c-.2067947.044377-.3101921.1923004-.295421.4437702l.0443131.1923004.5760709-.1331311.0443132.1627157-1.2998523.5029395-2.3042836.5325242-1.211226.0739617c-.1772526.1775081.9601181-.0147923.5169867.088754l-1.506647.3550162c-.915805.2070927-1.4180207.133131-1.506647-.2366774l-.1772525.044377c.0295421.1627157.0443131.2810544.014771.3846008l-.0886263-.3698085-1.211226.2810544c-.0886263-.5621088-1.7282127-2.6034515-4.9039882-6.124028-.0590842-.6804476 1.0635155-1.6715343 3.3530281-2.9584677l6.4697193-5.6950503c1.4475628-1.8638346 2.3042837-4.8518869 2.5849336-8.964157l-.0886263-.961502c-.2511078-2.8992983-2.3485968-5.23648774-6.2924668-7.04115302-2.3338257-1.5827802-6.5288035-2.42594348-12.5849335-2.55907453-5.0221566.42897782-11.5805022 2.21885075-19.6454948 5.34003414-2.2156574 1.61236491-4.7415067 3.20993741-7.577548 4.79271761l.0443131.5029395c.1920236-.0147923.4431315-.1183387.7533235-.2958468.3249631-.0295846.5022156.1183388.5317577.4141855l.5022157-.2810544.2511078-.0147923.0147711.2366774c.014771.2366774-1.7429838 1.6123648-5.3028065 4.1270624l.2806499.4437701-.2511078.0147923-.5465288-.1923004c.014771.1479234-.2363368.2514698-.7533235.2958468l.0295421.2662621.5908419.6508629c-.1920236.0147923-.4579025-.044377-.7976366-.1627157-1.1521418.1035463-2.27474151.9319173-3.38257016 2.4999051l.28064992.4437702c.96011817-.8875403 1.52141802-1.3313105 1.68389956-1.3461028l.0590842.7248246c-.16248154.0147923-.41358937.1183387-.75332349.2958468l.605613.9171249c1.16691287-1.2573487 2.45199407-2.3371894 3.85524367-3.2395221.6942393.1775081 1.0635156.3993932 1.0782866.6360706l.5317578-.044377c3.8109305-2.8253367 7.577548-4.8666793 11.3146233-6.1240281l.0443131.5029395c-.6942392 1.0354637-1.1669128 1.5679879-1.4180206 1.5975725.0295421.3550162.1477105.6656553.3692762.9319174.0590842.6360705-1.6395864 4.9258486-5.0812408 12.854542-7.8138848 18.4312535-14.37223041 32.0697895-19.70457901 40.8860231.01477105.1775081.11816839.4141855.31019203.7100322 1.31462334-.3106391 2.14180207-.6360705 2.49630723-.9467096l.28064993-.0295847.04431315.5029395.48744461-.044377.50221565-.2810544c.01477105.1479234.17725259.221885.51698671.1923004l.04431315.5029395c.04431314.4881471-.23633678 1.2277641-.82717873 2.2484354-.53175776.6064859-1.10782866 1.878627-1.71344166 3.8164233l.01477105.2366774.48744461-.044377c2.12703102-2.3815665 3.73707533-4.7187559 4.84490399-6.996776 6.20384049-1.8194577 10.93057609-3.6093306 14.20974889-5.3696189 3.2939439-.2810544 5.8050222-1.1538023 7.5184638-2.5886592l-.0295421-.2662621-1.2407681.3698085-.2806499.0295847-.0295421-.2662621c2.422452-.3698085 4.0915805-.9023326 5.0221566-1.6419496 4.7119645-3.6389152 8.2717873-6.2127821 10.6794682-7.7363929 4.9483013-3.6389152 8.16839-7.1890764 9.6307238-10.6356913.2658789-.0591693.5317577-.1183387.8271787-.1923004.6942393-.0295846 1.0782866-.044377 1.1816839-.0739617-.0295421-.133131.0295421-.2070927.1624816-.2366774 1.1078286-.1183387.5760709.0739617 1.2850812-.088754l1.8611521-.4289778c-.1181684.0295847-.1624815.088754-.1329394.2070927l.2806499-.177508c-.0590842 0-.1033973-.0147924-.1477105-.0295847l.3101921-.0739617-.1477105.088754c.2067947.0295847.4283604.0147924.6794682-.044377l.1329395.5473165-8.463811 13.4758202-1.8759232 2.3519818-.915805 3.0768064.1772526-.044377.915805-.3846008-.295421 1.1981794.0886263.3550161.2511079.3106391c-.1181684.0295847-.1624816.1035464-.1329395.2366774l.0443132.1923004.3840472-.088754c.5612999-.4881472.7976367-.9319173.7090104-1.3313104.605613.1035463 1.0044313.1479233 1.211226.088754l.0443131.1923004c-.3692762.088754-.5612998.3846008-.5908419.8875403l.0443131.1923004.2067947-.044377c3.0723781-3.3578608 10.605613-14.8515077 16.6469719-22.64707-.1920236-.8431633 2.9542098-2.011758 9.4534712-3.5205765l.2067947-.044377c.2363368 1.0206713-.2658789 3.4909918-1.506647 7.4109615-.7976366 2.3667741-1.1816839 3.6684999-1.1225997 3.8755926-1.0339734 3.1507681-1.521418 4.851887-1.4623338 5.1181491l-2.3042836 7.5588848c-1.4918759 3.8755927-2.6292467 7.9434857-3.4268833 12.2332638.1329394-.0295846.3397341-.0147923.6351551.0591694l.3249631-.2810544c.0295421.133131.1181684.177508.2511078.1479234l-.1329394-.5473166 1.0044313-.0295846c.2954209-.0739617.5465288-.4437702.7533235-1.1242178-.0443132-1.0206713.1624815-1.5679878.620384-1.6863265.6203841-2.4259435 1.0044313-3.6389153 1.1373708-3.6832923.5760709-2.4111511 1.0044313-3.7868386 1.2850812-4.1270624.8714919-3.1359757 1.506647-4.7483406 1.9202363-4.8518869l.0886263.3846008-.6351551 1.6419495c-1.1078286 4.9258487-2.2304283 8.8162337-3.3677991 11.671155l.3249631 1.4200644.2067947-.044377c2.747415-5.9169353 6.7060561-17.6324673 11.8611521-35.1465958.1477105-1.5384032.8862629-2.7365826 2.2008863-3.5797459l-.295421-.3106391-.0443131-.1627157c.5908419-.1331311 1.0044313-.3698085 1.2407681-.6952399-.0295421-.1331311-.5465288-.3254315-1.5509602-.5916936l2.5701625-11.0350844c.5612999-.5029395.8862629-.7692016.9896603-.7692016l.0443131.5621089c-.1329394.0147923-.3397341.088754-.5760709.2514697l.4874446.6952399c.886263-.9615019 1.8463811-1.7898729 2.8951256-2.4851128.5317577.1479234.7976366.3254315.8271787.5029395l.3840473-.0295847c2.9246676-2.144889 5.7902511-3.6832922 8.6115219-4.6152095l.029542.3698084c-.516987.783994-.871492 1.1833871-1.063516 1.1981794.029542.2662621.103397.5029395.236337.7100323.044313.4881471-1.225997 3.7424616-3.8257018 9.7777356-5.9379615 13.9787597-10.915805 24.3186042-14.9630723 31.0343258.014771.1331311.1033973.3106391.2658788.5473165.9896603-.2366774 1.6248154-.4881471 1.8759232-.7248245l.1772526-.0147924.0295421.3698085.4135894-.0295847.3692762-.1923004c.0147711.1035464.1477105.1479234.3988183.1331311l.0295421.3993931c.0295421.3550161-.1772526.917125-.6351551 1.6863266-.4283604.4585624-.8714919 1.4200644-1.3441654 2.8845059l.014771.1923004.3840473-.0295846c1.6100443-1.8046653 2.8360414-3.5797459 3.6779911-5.3252418 4.7119646-1.3904798 8.3013294-2.7365826 10.7828656-4.0678931 2.5258489-.2218851 4.4313149-.8727479 5.7311669-1.967381l-.014771-.1923004-.960118.2810544-.206795.0147924-.014771-.1923004c1.83161-.2662621 3.116691-.6804476 3.810931-1.2277641 3.574593-2.7513749 6.277695-4.7187559 8.109305-5.8725583 5.701625-4.1566471 8.360414-8.1505784 8.035451-11.9817941zm-.974889.2514698.132939 1.4940262c-.177252.3698084-.369276.5621088-.546529.5769012l-.221565-2.5442822c.413589.1479234.620384.2958467.635155.4733548zm-111.8463814-12.0409634-.2511078.0147923-.0443131-.4585625 1.0192023-.088754.0147711.2366774c-.1624816.0147924-.4135894.1035464-.7385525.2958468zm-4.97784339 49.8649725c-.59084195-.2662621-1.12259971-.3698085-1.58050222-.3254314l-.0590842-.7248246c-.02954209-.2810544.13293944-.4733548.48744461-.5473165.32496308-.0295847.51698671.2070927.54652881.6804475.85672082-1.050256 1.32939438-1.5827802 1.41802068-1.5975725l.5465288.2218851c-.17725259 1.4792338-.6351551 2.233643-1.35893648 2.2928124zm53.19054649-55.7227385c-.2511078.0295847-.7533235-.7544092-1.4771048-2.3076048l-.0443132-.4585624c.4726736-.0443771.9601182.7248245 1.4771049 2.3076047zm-.7090103-5.51754218-.2067947.48814717-7.2230428-3.01763702c4.8153619.16271572 7.2968981 1.00587901 7.4298375 2.52948985zm-30.5022157 26.22681588-1.0192023.088754-.0443132-.4585625 1.0192024-.088754zm-.8271787-15.7538403.2511078-.0147924.0590842.7248246c-.2363367.0147923-.5465288.3698085-.930576 1.050256l-.0443132-.5029395c.4579025-.5473165.6942393-.961502.6646972-1.2573487zm-2.1418021 5.0589797.0886263.961502-.2511078.0147923-.0886263-.961502zm-1.1225997 1.8046652.4874446-.044377c-.0443131.7987863-.2658788 1.2277641-.6646972 1.2573488l-.2511078.0147923c.310192-.5325242.4579025-.9467096.4283604-1.2277641zm-.8419497 2.5146976.2806499-.0295847.014771.2366774-.4579025.7692016-.4874446.044377-.014771-.2366774c.4874446-.044377.7090103-.2958468.6646972-.7839939zm-.8271788 2.2632277-.1477105 1.2129718-.2511078.0147923-.1033973-1.1981794zm-8.2865583 23.5937797c-.3249631 1.6567418-.6794683 2.4999051-1.0487445 2.5294898l-.014771-.2366774c-.0886263-.8135786.2658788-1.5827802 1.0635155-2.2928124zm-1.521418 3.2986914.014771.2366774c.0295421.3254315-.1181684.5177319-.4431315.5325242l-.014771-.2366774c-.0295421-.2810544.1181684-.4585625.4431315-.5325242zm-.4431315 6.8488526.7680945-.0739616.0295421.266262c-.1920236.0147924-.4431314.1183388-.7533235.2958468l-.4874446.044377c-.0295421-.2514697.1329395-.4437701.4431315-.5325242zm21.8611521-6.7600986c-4.3131462 2.1300968-6.8537666 3.5797459-7.6070901 4.3341552-4.6676514 1.6271572-6.986706 2.6330362-6.9423929 3.0324293-4.1506647 1.6419496-6.8833087 2.8549213-8.197932 3.6093306-.3101921.0295846-.7533235-.0887541-1.34416546-.3550161-.07385525-.8431633.31019202-1.5236109 1.12259966-2.0709274.7237814-.0591694 1.4180207.044377 2.0827179.3254314.7680945-.3993931 2.11226-.8431633 4.0177253-1.3165181l-.0443132-.5029395-1.536189.1331311c.1920236-.2662621 1.6691285-.961502 4.4460856-2.0857197l.7680946-.0739617.014771.2366774c-1.3146233.1183387-2.0384047.5029395-2.2008862 1.1981794.029542.3106391.2067946.4437701.5317577.4141855.9896603-.6212783 1.4771049-.9910867 1.4623338-1.0946331 1.8759232-.3550161 7.0605613-3.0768064 15.5539144-8.1505784l.0445347.4585625c.0145495.2218851-.7092319.8431633-2.1715658 1.9082116zm-13.028065 4.2897781c1.2407681-.1035463 2.3042837-.6064858 3.1905466-1.4792338.3545051-.0295847.5465288.1035464.5612998.4141855-.605613.0591693-1.7725258.5621088-3.4711964 1.5384032l-.2511079.0147923zm21.0192024-16.1680257-6.5140325 5.162526c-4.844904 3.1803528-7.4446086 4.7779253-7.8138848 4.80751-7.7104874 4.2454011-12.5110783 6.4494595-14.3722304 6.6121752l-.2806499.0295847c.2363368-.872748 3.6632201-7.8991087 10.310192-21.1234591 2.9246676-.2514698 7.5332349-1.6123649 13.8109306-4.0974778l1.536189-.133131c3.1757755-.2810544 5.5539144.3402238 7.1196455 1.8194576l.0886263.961502c-1.1816839 3.4022378-2.4815362 5.3844112-3.8847858 5.9613124zm-12.732644-7.1742841 1.0487445-.0887541.014771.2366775-1.0487445.088754zm14.7267356-2.4999052.7680945-.0739617c.7090104.3402238 1.0782866.6360705 1.1078287.9023326l.014771.2366774c-.6794682.0591694-1.3146233-.2958467-1.8906942-1.0650483zm2.0827179-11.8782477c-.6794683.8135786-2.5406204 2.2040584-5.5834565 4.1566471-1.0044313.088754-4.7415066 1.5384032-11.211226 4.3785321-.324963-.1479234-.6646972-.2070927-1.0339734-.177508l-.0443131-.4585625c-.0738553-.9319173.3397341-2.1005121 1.2555391-3.5205765.5022157-2.6626209 1.0487445-4.1862318 1.6543575-4.5560402l5.3914328-12.1445098c-.0590842-.7544093 1.0930576-1.3313105 3.4564254-1.7307036l.7680945-.0739617.0590842.6952399c2.3190547-.3550161 3.7666174-.5621088 4.3279173-.6064859 4.2836041-.3698084 6.5140325.5029395 6.6912851 2.5886592l.4874446-.044377-.1033974-1.227764.5317578-.0443771c1.2555391.6952399 1.9350074 1.5384032 2.0236337 2.5294899.0590842.6804476-.310192 1.5236108-1.0930576 2.5294898-.3249631.0295847-.5169867-.2070927-.5465288-.6804475l-.5317578.044377-.1181684 1.4792338c-2.1713441 3.2543145-3.7518464 4.9258487-4.7267356 5.0146027-.8862629 1.2277641-1.4327917 1.83425-1.6543574 1.8490423zm3.3087149 8.5055946c-.4431315-.2958468-.7976366-.4289779-1.0635155-.4141855l-.0590842-.7248246.4874446-.044377 1.0782865.6360705c.0443132.3402238-.1033973.5177319-.4431314.5473166zm3.4268833 4.067893c.4726736.1923004.7533235.3993931.8124077.5916935l-.2363368.0591694.014771.0147923c-.0443131 0-.1033973.0147924-.1477104.0295847l-.3545052.2810544zm.3249631 2.0413427-.0443132-.1923004.6203841-.1479234.0443131.1923004zm1.4918759 1.6715342c.6351551-.1035464.9453471-.1479234 2.127031-.4141855l.0443132.1923004-2.2451995.5177319c.0295421-.1035464.0590842-.2070928.0738553-.2958468zm2.1861152.9319173c-.9453471.0887541-.7385524-.0295847-2.2451994.3106391l-.0443132-.1923004 1.8759232-.6064858.901034-.2070928.0886263.3550161c-.3988183.0887541-.1033973.0887541-.5760709.3402238zm1.9940916-.4733548c-.2215657.0591694-.3988183-.044377-.5022157-.2958468l.5760709-.133131c.2511079-.0591694.4135894.044377.4726736.2958468zm5.4062038-5.8281813-.0443131-.1923004.930576-.2218851.0886263.3550161zm5.7754801 35.4720273c.0590842-.2662621.0738552-.4585625.0443131-.5916935l.2067947-.044377c.2511078-.0591694.3988183.0295846.4579025.266262l.0443132.1923004zm4.0472673-33.9484165-.4135893-.0739616c-.6646972.266262-1.2259971.4585624-1.6838996.5621088l-.3840473.088754c-.2215657.0591694-.3988183-.0295846-.4874446-.266262l2.703102-.6212783.8862629-.4141854.295421.3402238c-.4283605.088754-.7385525.221885-.9158051.3846007zm2.0827179-.6656552-.0443131-.1923004c.1329394-.0295847.310192-.133131.5022156-.3254314l1.9202364-.4437702.0443131.1923004c-1.0192024.2514698-1.83161.5029395-2.422452.7692016zm.295421-3.890385c-.1329395.0295847-.310192.1479234-.5317578.3254315-.0295421-.1331311-.2954209-.1331311-.7976366-.0147924-.0886263-.3698084 1.3293944-.8875403 4.2688331-1.5679878l.4135894-.088754.0886262.3550161c-2.0679468.6064858-3.2200886.9467096-3.4416543.9910866zm5.169867-5.5915038c-.2067946 2.3519817-1.0339734 3.6832922-2.4963072 4.023516l-.0443131-.1923004-1.2998523.5029395-.5760709.133131c-.295421.0739617-.5612999.0591694-.7976367-.0147923l-.1181684-.5177319c-.0443131-.1923003 1.8316101-2.7957519 5.6425407-7.7955622l.4431314.0739616c.1624816.6804476-.0886263 1.9377964-.7533235 3.7868387zm9.1432792-7.8399394-.1772526.0147924-.0295421-.3698085.7680946-.0739617.014771.1923004c-.1329394.0295847-.3249631.1035464-.5760709.2366774zm-3.7666174 37.8831785c-.4431315-.2070927-.8419498-.2958468-1.1816839-.2662621l-.0443132-.5621088c-.014771-.1923004.1033974-.3254315.3545052-.3993932.2511078-.0295847.3988183.1479234.4283604.5325242.6351551-.8135786.9896603-1.2277641 1.0635155-1.2277641l.3988184.1627157c-.1477105 1.1242177-.4874447 1.7159113-1.0192024 1.7602883zm40.3840472-42.3060876c-.192024.0147923-.5613-.5769012-1.137371-1.7750806l-.029542-.3698085c.369276-.0295847.753324.5473165 1.137371 1.7307036zm-.531758-4.2306088-.177252.3846008-5.465288-2.29281243c3.648449.11833871 5.539143.75440926 5.64254 1.90821163zm-23.175775 19.9252797-.768095.0739617-.029542-.3698084.768095-.0591694zm-.635155-11.9670017.206794-.0147923.044314.5621089c-.192024.0147923-.428361.2810544-.709011.7987862l-.029542-.3698084c.339734-.4289778.502216-.7544093.487445-.9762944zm-1.610045 3.846008.059085.7248246-.206795.0147923-.059084-.7248246zm-.871491 1.3756875.384047-.0295847c-.044313.6212782-.206795.9467096-.487445.9762943l-.2067945.0147924c.2215655-.4141855.3249635-.739617.3101925-.961502zm-.6203845 1.8934193.1772526-.0147924.014771.1923004-.3397341.5916936-.3840473.0295846-.014771-.1923004c.3988183-.0295846.5760709-.2366774.5465288-.6064858zm-.6203841 1.7159112-.1329394.9467097-.1772526.0147923-.0738552-.9319173zm-6.3072378 17.9431064c-.2511078 1.2425564-.5169867 1.878627-.7976366 1.9082117l-.0147711-.1627158c-.0443131-.6212782.2215658-1.2129717.8124077-1.7454959zm-1.1669128 2.4999052.014771.1627157c.0295421.2662621-.0886263.4141855-.3545051.4289778l-.0147711-.1923004c-.014771-.1923004.1033973-.3254314.3545052-.3993931zm-.3249631 5.2069031.590842-.044377.014771.1923004c-.1329394.0147923-.3397341.088754-.5760709.221885l-.3840473.0295847c-.014771-.2070927.1033974-.3402238.3545052-.3993931zm16.5878873-5.1329414c-3.24963 1.6123649-5.184638 2.7069979-5.790251 3.2691068-3.5450514 1.2425564-5.3028062 2.011758-5.2732641 2.3223971-3.1462333 1.2573487-5.2141802 2.1596814-6.1890694 2.7365826-.2363368.0147923-.5760709-.0739617-1.0192024-.2810545-.0590841-.6360705.2363368-1.1538024.8567209-1.5384032.5612998-.044377 1.0930576.0295847 1.5805022.2366775.5908419-.2958468 1.6100443-.6212783 3.0576071-.9910867l-.0295421-.3698085-1.211226.0887541c.1477105-.2070928 1.2850812-.739617 3.3973412-1.5975726l.5908419-.044377.0147711.1627157c-1.0044313.0887541-1.5657312.3846008-1.6838996.917125.0147711.2366774.1624816.3550161.4135894.3254314.7385524-.4881471 1.0930576-.7692015 1.0930576-.8579556 1.4180207-.2514697 5.3471192-2.3223971 11.8020682-6.1979897l.029542.3698084c.014771.1627157-.531758.6360706-1.639587 1.4496492zm-9.8966022 3.2543144c.9601182-.088754 1.7725258-.4585625 2.4519942-1.1094254.251108-.0295846.398818.0887541.413589.3254315-.443131.044377-1.3146231.4141855-2.6292464 1.1242177l-.2067947.0147923zm15.9822752-12.2924331-4.91876 3.9643466c-3.677991 2.4111512-5.672082 3.6241229-5.982274 3.6537076-5.8493357 3.2247298-9.4830137 4.896264-10.9158055 5.0146027l-.2067947.0147923c.1772526-.6656552 2.7917283-6.0056893 7.8434269-16.0348947 2.2008863-.1923004 5.6868533-1.2425564 10.4726733-3.1359757l1.196455-.1035464c2.407681-.2070927 4.209749.2662621 5.391433 1.4052721l.059084.7248246c-.901034 2.5442822-1.875923 4.0383084-2.939438 4.4968709zm-9.660266-5.4435805.768094-.0739617.014771.1923004-.768094.0739617zm11.181684-1.9082117.590841-.044377c.546529.2662621.827179.5029395.84195.6952399l.014771.1627157c-.516986.044377-1.004431-.2218851-1.447562-.8135786zm1.55096-9.008534c-.516987.6212782-1.920237 1.6863265-4.209749 3.1655604-.768095.0739617-3.604136 1.1685947-8.508124 3.2986914-.236337-.088754-.502216-.1183387-.782866-.1035463l-.029542-.3698085c-.059084-.7100322.251108-1.5975725.930576-2.6774132.384047-2.0413427.812408-3.1803528 1.255539-3.4466149l4.121123-9.2304191c-.044313-.5473165.827179-.9910867 2.599704-1.3313104l.590842-.0443771.044314.5621089c1.742983-.2810544 2.836041-.4437701 3.279172-.4881472 3.249631-.2810544 4.948302.3698085 5.081241 1.967381l.384047-.0295846-.073855-.8875403.384047-.0295847c.945348.5177318 1.447563 1.13901 1.506647 1.878627.044314.5325241-.221565 1.183387-.782865 1.9377963-.251108.0295846-.398819-.1479234-.428361-.5325242l-.384047.0295847-.118168 1.1094253c-1.639587 2.4999052-2.836042 3.7868387-3.589365 3.846008-.664697.9023326-1.078287 1.3608951-1.27031 1.3756875zm1.728212 6.1536127-.044313-.5621088.384047-.0295847.827179.5029395c.014771.2366774-.103397.3698084-.354505.3993931-.354505-.2218851-.620384-.3254314-.812408-.3106391zm-68.7592315 35.9305898-.3840473.088754-.3249631.2810545c.0590842.2366774.2067947.3254314.4579025.2662621.2511079-.0591694.3545052-.2070928.295421-.4437702zm-1.4623339-2.9140906.0443132.1923004c.2511078-.0591694.3545052-.2070928.295421-.4437702l-.0443132-.1923004c-.2363368.0591694-.3397341.2070928-.295421.4437702zm10.3988184-24.7771667.4431314-.1035464-.0886263-.3846008-.4431314.1035464zm134.032496 11.2717618c-4.490399 1.005879-5.051698.8283709-5.997046.9023326l.029543.3698085.413589-.0295847.221566-.0147923-.059085-.0443771.487445-.1923004c4.446086-.4881471 4.963072-.3106391 4.918759-.8135786zm-24.180207 3.2099374.029543.3698084h.059084l-.029542-.3698084zm-2.776957-9.748151-.398818-.133131c-.324963.8727479-.487445 1.3904798-.472674 1.5384032l.014771.1627157c.310192-.0147923.590842-.5473165.856721-1.5679879zm27.872969 6.4642519.029542.3698084.649927.1183387-.029543-.3698084zm-30.5613 3.7424616-1.004431-.1183387-.177252.3846008.014771.1923004 5.982274-.5029395-.029542-.3698085zm-2.717873-13.1208041-.014771-.1923004-.206794.0147923-.369276.2366774.206794.3550162c.28065-.0295847.41359-.1627158.384047-.4141855zm36.115215 6.6565522.28065-.0295847c.162481-.0147923.236336-.1479233.221565-.3846007l-.162481-.3550162c-1.019203.0887541-1.491876.1331311-2.319055.5916936l-.014771-.1923004-1.225997.1183387c-.029542-.3698085-.132939-.5621089-.295421-.5473165l-.635155.0591693c-.738552.0591694-1.093058.0295847-1.462334.3106391-.014771-.133131-.059084-.1923004-.132939-.1923004l-.709011.0591694-.413589.2366774c-.014771-.1331311-.059084-.1923004-.132939-.1923004l-.251108.2218851-.014771-.1923004-.989661-.0739617-.236336.0147923.029542.3698085.502215.133131.472674-.0295847c.162481.1035464.339734.1331311.546529.1183387l.413589-.2070927.014771.1627157c-2.319055.5769012-2.304283.4733549-3.899557.7396169-.177252-.1183387-.310192-.177508-.398818-.1627157l-.029542.0295847c-.177253-.0147923-.28065-.133131-.295421-.3254314l.827179-.1035464c.059084 0 .103397.0591693.561299.1479234.664698-.3254315.69424-.4585625 1.048745-.4881472l-.029542-.3698085c-2.274742.4437702-1.358937.1479234-4.209749.3993932l-.132939.0147923-.029543-.3698084c3.66322-.4437702 2.437223-.1923004 3.692763-.5473166.014771.1331311.059084.1923004.132939.1923004.147711-.1479233.310192-.221885.502216-.2514697l.251108-.0147923c1.285081-.1035464 1.713441.1479233 4.254062-.5621089l.014771.1627157.413589-.2070927.384047-.0295847c-.029542-.3698085.531758-.4289778.723782-.4437701l-.029542-.3993932c-4.460857.9023327-5.62777.6508629-6.868538 1.005879l-.014771-.1627157c-1.166913.2070927-1.211226.1183387-1.506647.133131-.088626.0147924-.221566.0887541-.369276.2366775-.014771-.1331311-.059085-.1923004-.147711-.1923004-.044313 0-.059084.0147923-.073855.0147923l-3.781389.6212782c-.014771-.1035464-.059084-.1627157-.14771-.1479234-1.96455.4141855-1.432792.4881472-4.062038.7248246-.118169.0147923-.28065.0739617-.487445.2070927-.014771-.1035463-.073855-.1627157-.206795-.1479233l-1.610044.133131-1.078287.2662621c-.014771-.1035464-.073855-.1627157-.206794-.1479234-.605613.1627157-1.137371.2662621-1.565731.2958468h-.029543c-.265878.0295847.13294-.0739617-.073855-.1627157l-.324963.1923004c-.472673.044377-.221566-.0295847-1.846381-.0147924-2.850812.3550161-2.54062.3993932-2.850812.4141855l-1.063516-.0739617c.014771.1035464-.044313.1775081-.162481.1775081-1.211226-.1627158-1.83161-.3550162-1.846382-.5769012.162482-1.1538024.443132-1.745496.84195-1.7750806l.206795-.0147924-.177253.3846008.206795-.0147923c.384047-.2070928.5613-.3993932.546529-.5769012l-.029542-.3993931-.384048.0295846-.029542-.3698084c-.029542-.2810545.014771-.5325242.118169-.7396169l.871492-1.4052722.029542.3698085.413589-.0295847-.029542-.3698085-.236337-.3402237c.310192-.2662621.546529-.4141855.738553-.4289779l-.014771-.1923004-.5613.0443771-.044313-.5621089c1.122599-2.3371894 1.654357-3.6980846 1.624815-4.0826854l.398818.1627157c.251108-.0147923.369276-.1627157.354505-.4289778l-.384047.0295847-.014771-.1627157c-.029542-.2810544.029542-.5473165.147711-.7839939.605613-.6360706.886263-1.2721411.827178-1.9377964.118169-.0147923.177253.0443771.192024.1775081.516987-.2958468.915805-1.0798407 1.211226-2.3815665.915805-1.6567419 2.215657-4.9702256 3.914328-9.925659 3.249631-8.7570643 3.116691-9.6889816 3.574594-11.75990896l-.384048.02958468c.029543.26626209-.029542.51773184-.14771.75440925-.265879-.10354637-.472674-.16271572-.620384-.14792338l-.014771-.16271572c-.059084-.75440926.251108-1.65674189.960118-2.72179025l.177253-.01479234.324963 1.27214109.384047-.02958467c-.014771-.08875403.088626-.59169354.295421-1.52361085-.014771-.1923004-.162482-.31063911-.457903-.32543144l-.369276.23667741c-.029542-.26626209-.014771-.96150199.029542-2.07092737l-.192023.01479234c-.324963-.32543144-.487445-.59169353-.502216-.81357861l-2.11226.20709274c-.014771-.14792338-.088626-.36980846-.236337-.65086289-.014771-.19230039.457903-.38460079 1.432792-.57690119l.42836.16271572.398819-.23667741c.014771.13313104.088626.1923004.236336.17750806l.398819-.23667742c.014771.13313105.088626.1923004.236337.17750806l.192023-.01479233-.029542-.42897782c-.295421.02958468-1.078286.02958468-2.319055-.01479233l-.398818.26626209-.014771-.23667742c-9.911374.81357861-15.539143 1.2721411-16.883309 1.40527214-.177252.01479234-.871492 0-2.097489-.02958467.014771.16271572-.132939.25146975-.42836.28105443l-.42836-.1923004-1.447563.36980846c-.339734.02958467-.915805.01479233-1.713442-.0739617-.221566.17750806-.487444.28105443-.812407.31063911-.177253.01479234 2.112259-.11833871 4.23929-.26626209-.221565.17750806-.561299.28105443-1.033973.32543144-.324963.02958468-.605613-.01479234-.84195-.14792338-.324963.14792338-1.373707.3846008-3.131462.73961692l-.42836-.16271573-6.912851 1.06504836c-.265879-.13313104-.576071-.17750806-.930576-.14792338-.369277.02958468-.989661.16271572-1.846381.39939313l-3.338257 1.39047981.251107.41418547c.162482-.01479234.398819-.10354637.679469-.26626209l1.181684.10354637-.147711 1.10942537c-1.093058.48814717-1.728213 1.21297175-1.905465 2.13009672-1.639587.72482457-2.451994 1.24255647-2.451994 1.55319557l.014771.1923004.251108-.0147924.443131-.2366774.516987.6212782.073855.8579556c.029542.2662621-2.732644 6.0796511-8.257016 17.4401669-4.78582 10.9463304-7.296898 16.9372274-7.533235 18.0170681-1.639587.4585625-2.584934 1.1242177-2.865584 2.011758.029542.2810544.516987.4733548 1.462334.5473165l.044313.4289778-.42836.7100323.073855.8579556c.044313.4437702 1.240768.7839939 3.589365 1.0206714-.014771-.1479234.059084-.2366775.221566-.2514698.044313.5325242-.103398 1.5679879-.443132 3.1063911l.251108-.0147924c.974889-1.3313104 1.432792-2.2484354 1.388479-2.7513749l.206794-.0147924c.236337-.0147923.487445.2514698.782866.828371-.295421.1183387-1.329394 2.4703205-3.10192 7.0707377l.251108.4141855.251107-.0147924c2.171345-5.5027498 3.530281-8.5499715 4.091581-9.1268727 2.850812-.2514697 7.784343-.7544093 14.78582-1.5088185l.443131-.2662621c.014771.1479234.103398.2218851.265879.2070927l.457903-.044377.443131-.2662621c.014771.1479234.103397.2218851.265879.2070928l5.302806-.4585625c1.40325-.1183387 2.067947-.5473165 2.008863-1.2721411-.014771-.1923004.812408-.4141855 2.481536-.6508629.162482-.0147923.398819.0295847.723782.133131-.014771-.133131.827178-.266262 2.511078-.4141854.044313-.8875403.324963-1.3608952.827179-1.4052722l-.044314-.4289778c-.472673.044377-1.004431.1627157-1.624815.3698085-1.107829-.0591694-1.816839-.1479234-2.11226-.2514698-.295421.1627157-.516987.2514698-.679468.2662621l-3.692762.1183387-.443132.2366774c-.014771-.133131-.103397-.1923004-.265879-.177508l-.206794.0147923-.472674.2366774c-.014771-.133131-.398818-.2366774-1.166913-.3402238l-.472673.2810545-.915805.0739617-.014771-.2366774c4.756277-.5177319 7.104874-1.1685948 7.04579-1.9377964.310192-.0295846.472673.1183387.502216.4289778l1.388478-.3550161-.044313-.4289778-11.388479.3106391c.014771.1479234-.059084.2366774-.221565.2514698l-1.388479-.1183387c-.354505.0295846-.649926.133131-.886263.3106391l-.516987-.1923004c-1.432791.1183387-2.496307.2958467-3.205317.5177318-.974889-.0739617-2.053176-.0591693-3.249631.044377l-2.555391.2218851-1.181684-.133131c-.059084-.7544093 1.403249-4.4672862 4.416543-11.1238385.871492-2.2484354 1.669129-3.6537075 2.437223-4.1862317.162482-.0147924.398819.044377.723782.177508l1.816839-.6212782.930576.1479234c1.565731-.133131 3.38257-.5769012 5.465288-1.3461028.516987-.044377.901034-.0147923 1.181684.1035464l1.388478-.3254314 4.135894-.3550162c1.757755-.1479233 3.66322-.5325241 5.731167-1.1685947l-.044313-.4289778c-.768095.0739617-1.166913-.0591694-1.196455-.3698085-.044313-.5769012-.605613-.8135786-1.6839-.7248245l-.044313-.4289779 1.137371-.3254314 2.983752-.2514697-.044313-.4289779c-.118169.0147924-.723782 0-1.846381-.044377l-.044314-.4585625 1.152142-.1035463c.310192-.0295847.443132-.1775081.41359-.4733549-1.550961.0443771-2.333826-.0295846-2.348597-.2366774-10.812408.5325242-16.233383.6360706-16.262925.2958468-.162481.0147923-.384047.1183387-.679468.2958468l-.28065-.4437702c2.865583-6.0944434 4.549483-9.1712497 5.036928-9.2156268.014771.2366775-.103398.6212782-.369277 1.1390101l.014771.1923004.457903-.044377c1.137371-2.7217903 2.097489-4.1270624 2.895125-4.1862318 3.397342-.2958467-.472673-.5177318 6.794683-1.65674187.295421.13313107.502216.19230037.649926.17750807 2.850812-.5769012 6.824225-1.18338707 11.920236-1.80466528l-.029542-.42897781-2.717873.25146975-.029542-.42897781c.324963-.02958468.590842-.13313105.812408-.31063911l.014771.23667741c.14771-.01479233.354505-.1183387.620384-.29584676.472674-.04437702.827179 0 1.078287.13313104.945347-.25146975 1.713441-.39939313 2.274741-.45856249l1.698671-.16271572c.413589-.26626209.605613-.5029395.590842-.72482458l-.014771-.19230039c-.428361.04437701-.915805.01479233-1.491876-.08875403-.014771-.23667742.103397-.39939314.384047-.47335483l3.161004-.29584677 1.447563-.36980846c.014771.16271573.088626.22188508.206795.22188508.14771-.01479234.354505-.11833871.620384-.29584677.073855.01479234.162481.01479234.236337.02958468-.192024.39939313-.41359.97629433-.635155 1.73070358l-.41359.02958468c-.029542-.28105443-.103397-.53252418-.236337-.75440925l-.206794.01479233c-3.840473 10.70965291-5.553915 15.69467101-9.098966 23.91921111-.649926 2.100512-1.196455 3.2691067-1.669129 3.5205765.014771.2366774.162482.3550161.41359.3254314.088626 1.0354637-.147711 2.0561351-.723782 3.0620141-1.639586 4.7335482-2.732644 7.3222074-3.293944 7.7955623l.369277 2.2336431c.014771.2366774-.103398.3698084-.354506.3993931l-.384047.0295847c-.059084-.6212782-.28065-.917125-.679468-.872748l-.206795.0147923c-.502216.783994-.886263 1.6863266-1.137371 2.7365826l.384048-.0295846c.516986-.3402238.753323-.739617.70901-1.1981794l.768095-.0739617.443131.1627157c-.354505.5621088-.516987 1.005879-.487445 1.3461028l.206795.3550161-.502216 1.1833871.014771.1923004c.443132-.0443771.930577.1035463 1.447563.4141854.354505-.0295846.738553-.1923004 1.166913-.4733548.443132-.044377 2.097489-.0591694 4.948301-.0591694l1.432792-.4881471c1.742984-.0147924 2.023634.0295847 3.530281-.1035464l.620384-.0591693.324963-.2218851.014771.1923004c1.580502-.1331311 1.6839-.0295847 2.924668.1183387l.014771.1923004-.871492.0739617.029542.3698084c.265879-.0295846.502216-.1035463.694239-.2662621.221566-.0147923.354505.1035464.369276.3698085-.354505.0295847-.753323.1183387-1.196455.2662621l-.384047-.133131c-.605613.1627157-.472673.2070927-.886263.2366774l-.605613-.1183387c.014771.1035463-.044313.177508-.14771.177508.014771.2366774.14771.3550161.369276.3402238l.620384-.0591694 3.23486-.2810544 1.225997-.2662621c.014771.1035464.059084.1627158.162481.1479234l.590842-.2218851 1.107829-.088754c.856721-.0739617.84195-.133131 2.703102-.4289778-.014771-.1183387.029542-.1627157.118168-.1775081l.014771.1627158c3.028065-.5177319 3.220089-.5473166 3.707533-.7100323l.044314.088754c.753323-.177508.324963-.133131.531757-.2810544.014771.1331311.059085.1923004.13294.1923004l.531758-.044377-.029543-.3993931-1.078286-.0147924-.014771-.0295846c-.044313.0147923-.073855.0147923-.118169.0295846h-.14771v.0295847c-.723781.1479234-.738552.044377-1.211226.088754l-2.703102.1479234-.014771-.1923004 1.506647-.2070927.546529-.044377.310192-.2218851.014771.1923004c2.127031-.1775081 2.880354.3550161 12.717873-1.7454959.531758-.044377.487444-.4881472.827179-1.4052722-.177253.0147924-.354506-.0295846-.516987-.1183387-.812408.3106391-1.240768.1627157-2.806499.4141855-.13294.0147923-.236337-.1035464-.28065-.3402238l-.014771-.1627157 1.506647.044377c.28065-.0295847.827178-.0739617 1.639586-.5325242 0 .1331311-.295421.2070928-.118168.1923004zm-72.732644 1.1685948-.69424.0591693c-.029542-.2810544.339734-1.3461028 1.107829-3.1655604l.457903-.044377c.014771.4289778-.265879 1.4792338-.871492 3.1507681zm.841949-3.3726532-.014771-.1923004c-.014771-.2366774.13294-.3993931.457903-.4733548l.014771.1923004c.014771.2810544-.13294.4437701-.457903.4733548zm9.231906 7.1446994.014771.1923004-1.152142.1035464-.014771-.1923004zm-1.388479-.1183387c.014771.2366774-.339734.5029395-1.107828.7692016l-1.418021-.1035464-.457903.0443771-.044313-.4289779zm9.335303-43.03091217-.694239.05916935-.014771-.23667741c-.014771-.23667742.118168-.39939314.413589-.47335483l.251108-.01479234.472674.1923004c.014771.28105443-.118169.44377015-.428361.47335483zm10.5613-2.07092737.221566-.01479234.029542.42897781-.635155.05916936c-.014771-.23667742.103397-.39939314.384047-.47335483zm-2.658789.93191732-1.048744-.11833871-.014771-.1923004c1.373707-.11833871 1.83161-.26626209 2.673559-.5029395.014772.16271572.162482.22188507.428361.1923004l.029542.42897781-.413589.04437701c-.324963.02958468-.605613-.01479234-.84195-.14792338-.251108.16271572-.516987.26626209-.812408.29584677zm1.314624 3.83121562-.014772-.1923004 1.698671-.16271572.014771.1923004zm1.816839-1.47923383-.014772-.23667741.827179-.07396169.014771.23667741zm.192023-2.89929831-.221566.01479234.192024-.45856249 1.890694-.17750806.014771.23667741c-.487444.04437702-1.122599.17750806-1.875923.3846008zm.960118 4.08268538-.029542-.42897782.827179-.07396169c.28065-.02958467.42836.10354637.443131.39939314zm5.007386-6.83406031-1.063516.29584677-.192023.01479233c-.502216.04437702-1.152142.02958468-1.920237-.04437701 1.373708-.08875403 2.688331-.1923004 3.175776-.26626209zm-1.137371 4.73354826.014771.1923004-1.462334.13313105-.014771-.1923004zm2.39291 1.13901005c-.014771-.17750806-.295421-.29584676-.871492-.35501612l-1.462334.41418548-1.122599.04437701c-.251108-.17750806-.384048-.29584676-.398819-.38460079l1.299853.07396169 2.924667-.47335483 1.491876.05916936.014771.23667741c-.738552.07396169-1.358936.20709273-1.875923.38460079zm15.051699-3.89038498c.177252.01479234.295421.01479234.339734.01479234.516986-.5029395 1.093057-.90233263 1.757755-1.18338706-.531758 2.33718945-1.358937 4.06789304-2.496308 5.19211075l-.827178-.5029395c.694239-1.76028826 1.107828-2.92888299 1.225997-3.52057653zm-2.540621 4.36373981.206795-.01479234c-.28065.53252418-.531758.81357861-.738552.82837095l-.044314-.56210886c.13294 0 .324963-.08875403.576071-.25146975zm-1.639586 3.91996963c.398818-1.5975725.782865-2.4999051 1.137371-2.7365826l.014771.1923004c-.206795 1.4792339-.531758 2.2632278-.960119 2.3223972l.073856.9319173c-.354505.5029395-.516987.8875403-.502216 1.183387l-.206795.0147924-.118168-1.2869335c.236337-.0295846.42836-.2366774.5613-.6212782zm-.635155 2.1300967c.014771.2218851-.13294.739617-.428361 1.5384032l-.206794.0147924-.044313-.5621089c.280649-.6508629.516986-.9762943.679468-.9910867zm-11.920237 34.6436564-.014771-.1627157.384048-.0295847.044313.5621089c-.206795.0147923-.354505-.1035464-.41359-.3698085zm17.03102.4437702c-.014771-.1331311-.073856-.1923004-.206795-.1775081l-.960118.088754-.014771-.1923004h.088626l2.274742-.1923004.014771.1923004c-.664698.0295847-1.063516.1331311-1.196455.2810545zm-1.137371-.4733549c.088626.044377.044313.0887541 0 .1183387-.044313-.0147923-.103397-.0591693 0-.1183387zm.118168-2.6626209-1.27031.1035464-.014771-.1923004 1.152142-.1035464 1.004431-.2514697c.014771.1183387.073855.1627157.206795.1479234 1.196455-.2070928 1.078286-.2662621 1.654357-.3106391.192024-.0147924.310192.1035463.324963.3402237zm4.446086-.3846008c-.70901-.0739617-.753324-.133131-1.255539-.088754l-.014771-.1627157 1.13737-.1035464.014772.1627157c-.118169.0147924.310192.0443771.118168.1923004zm.088626-.2070927-.014771-.1627157.620384-.0591694.014771.1627157zm1.373708-.1183387-.014771-.1627157c.103397-.0147924.251108-.0887541.443131-.2366774.310192-.0295847.472674.177508.502216.4141854zm1.757755-.2218851-.014771-.1923004.753323-.0591693.014771.1923004zm1.048744-.088754c-.014771-.2218851.073855-.3550161.265879-.3846008l.251108.3254314c-.014771-.1035463.029542-.1627157.118168-.177508l.192024.3550161zm-11.152142 4.8223023-.029542-.3698085-.118168.0147924.029542.3698084zm25.952733-6.730514c.118168-.0739616.177252-.1479233-.103397-.1923004-.13294.1479234.14771.1923004-.147711.2070928l.014771.133131c.029542-.0295846.103397-.0739617.162482-.1183387l-.162482.1331311v.0147923l-.310192.3993931.620384-.221885h.073855l-.029542-.3698085zm1.078286.8431633-.118168.0147924.029542.3698084.871492-.0739617c-.014771-.2366774-.590842-.3106391-.782866-.3106391zm-1.344165-.6508629.014771-.0147923v-.0147923s-.014771.0147923-.014771.0295846z" fill="#000"/><path d="m141.166913 16.9816044.014771.2366774.487445-.044377c-.014772-.1479234.044313-.3846008.14771-.6804476l-.044313-.4289778c-.206795.0147924-.41359.3254315-.605613.917125zm-4.667652-11.24217713-.044313-.42897781-.694239.05916935.044313.42897781zm-13.545051 25.39844493c-.029542-.3993932-1.27031-1.9525887-3.722305-4.6891713-.044313-.5029395.797637-1.2573487 2.52585-2.2484354l4.93353-4.3045704c1.107829-1.4052722 1.757755-3.6832923 1.949779-6.8488527l-.059085-.7248246c-.192023-2.189266-1.772526-3.94955431-4.771048-5.29565709-1.772526-1.19817941-4.963073-1.86383463-9.57164-1.98217334-3.810931.32543144-8.788774 1.68632657-14.9187592 4.09747772-1.6838996 1.21297171-3.6041359 2.42594351-5.7607091 3.63891521l.0295421.3698085c.1329395-.0147924.3397342-.0887541.5760709-.2514698.2511079-.0295847.3988184.0887541.4135894.3254315l.3692762-.1923004.1772526-.0147924.0147711.1627157c.014771.1923004-1.3146234 1.2425565-4.0029542 3.1211834l.2067946.3846008-.1772525.0147924-.4431315-.1627158c.014771.1331311-.1772526.2218851-.5465288.2514698l.014771.1627157.4283604.5325242c-.1329394.0147923-.3397341-.044377-.620384-.1479234-.620384.0591694-1.225997.3846008-1.83161 1.005879l.2511078-1.094633c.901034-3.890385 1.521418-7.33699982 1.8463811-10.32505216l-.0443132-.1923004c-.620384-.39939314-1.225997-.96150199-1.7872969-1.67153423.0147711-.45856249.0147711-.72482458 0-.78399393l-.0443131-.16271573-.1772526.04437702c-1.9497784 2.92888299-5.7016248 7.92869333-11.2703102 14.99943103-4.239291 5.0293951-6.4254062 7.825147-6.5583456 8.3872559-1.7282127 1.7898729-2.5553915 2.8697136-2.4667652 3.2395221-.4579025.2958467-.6499261.5916935-.5760709.9171249-.1329394.0295847-.2215657-.0147923-.2511078-.1479233-.7385524 1.1981794-1.83161 1.9673809-3.2939439 2.3076047l-1.536189.3550162c-.2067947.044377-.3101921.1923003-.295421.4437701l.0443131.1923004.5760709-.133131.0443132.1627157-1.2998523.5029395-2.3042836.5325242-1.211226.0739617c-.1772526.177508.9601182-.0147924.5169867.088754l-1.506647.3550161c-.915805.2070927-1.4180207.133131-1.506647-.2366774l-.1772525.044377c.0295421.1627157.0443131.2810544.014771.3846008l-.0886263-.3698085-1.211226.2810545c-.0886263-.5621089-1.7282127-2.6034516-4.9039882-6.1240281-.0590842-.6804476 1.0635155-1.6715342 3.3530281-2.9584677l6.4697194-5.6950502c1.4475627-1.8638346 2.3042836-4.851887 2.5849335-8.964157l-.0886263-.961502c-.2511078-2.89929835-2.3485968-5.23648781-6.2924668-7.04115308-2.3338257-1.5827802-6.5288035-2.42594349-12.5849335-2.55907453-5.0221566.42897781-11.5805022 2.21885075-19.6454948 5.34003413-2.2156573 1.61236488-4.7415067 3.20993738-7.577548 4.79271758l.0443131.5029395c.1920236-.0147923.4431315-.1183387.7533235-.2958467.3249631-.0295847.5022157.1183387.5317577.4141855l.5022157-.2810545.2511078-.0147923.0147711.2366774c.014771.2366774-1.7429838 1.6123649-5.3028065 4.1270624l.2806499.4437701-.2511078.0147924-.5465288-.1923004c.014771.1479234-.2363368.2514697-.7533235.2958467l.0295421.2662621.5908419.6508629c-.1920236.0147924-.4579025-.044377-.7976366-.1627157-1.1521418.1035464-2.2747415.9319173-3.38257016 2.4999052l.28064993.4437701c.96011817-.8875403 1.52141802-1.3313104 1.68389956-1.3461028l.05908419.7248246c-.16248153.0147924-.41358936.1183387-.75332348.2958468l.60561299.917125c1.16691287-1.2573488 2.45199407-2.3371895 3.85524377-3.2395221.6942392.177508 1.0635155.3993931 1.0782865.6360705l.5317578-.044377c3.8109305-2.8253366 7.577548-4.8666793 11.3146233-6.1240281l.0443132.5029395c-.6942393 1.0354637-1.1669129 1.5679879-1.4180207 1.5975726.0295421.3550161.1477105.6656552.3692762.9319173.0590842.6360705-1.6395864 4.9258487-5.0812408 12.854542-7.8138848 18.4312536-14.3722304 32.0697895-19.704579 40.8860231.01477105.1775081.11816839.4141855.31019202.7100323 1.31462334-.3106391 2.14180207-.6360706 2.49630724-.9467097l.28064993-.0295847.04431314.5029395.48744461-.044377.50221566-.2810544c.01477105.1479234.17725258.2218851.51698671.1923004l.04431314.5029395c.04431315.4881472-.23633678 1.2277641-.82717873 2.2484354-.53175775.6064859-1.10782865 1.878627-1.71344165 3.8164233l.01477105.2366774.48744461-.044377c2.12703101-2.3815665 3.73707533-4.7187559 4.84490398-6.996776 6.20384049-1.8194576 10.93057609-3.6093306 14.20974889-5.3696188 3.2939439-.2810545 5.8050222-1.1538024 7.5184638-2.5886592l-.0295421-.2662621-1.2407681.3698084-.2806499.0295847-.0295421-.2662621c2.422452-.3698084 4.0915805-.9023326 5.0221566-1.6419495 4.7119645-3.6389153 8.2717873-6.2127821 10.6794682-7.736393 4.9483013-3.6389152 8.16839-7.1890764 9.6307238-10.6356912.2658789-.0591694.5317578-.1183387.8271787-.1923004.6942393-.0295847 1.0782866-.044377 1.1816839-.0739617-.0295421-.1331311.0295421-.2070928.1624816-.2366774 1.1078286-.1183387.5760709.0739617 1.2850812-.0887541l1.8611521-.4289778.3101921-.0739617-.1477105.0887541c.2067947.0295846.4283604.0147923.6794682-.0443771l.1329395.5473166-8.463811 13.4758202-1.8759232 2.3519818-.915805 3.0768063.1772526-.044377.915805-.3846008-.2954209 1.1981794.0886262.3550162.2511079.3106391c-.1181684.0295846-.1624816.1035463-.1329395.2366774l.0443132.1923004.3840472-.0887541c.5612999-.4881471.7976367-.9319173.7090104-1.3313104.605613.1035464 1.0044313.1479234 1.211226.088754l.0443131.1923004c-.3692762.0887541-.5612998.3846008-.5908419.8875403l.0443131.1923004.2067947-.044377c3.0723781-3.3578608 10.605613-14.8515077 16.6469719-22.64707-.1920236-.8431633 2.9542098-2.011758 9.4534712-3.5205765l.2067947-.044377c.2363368 1.0206713-.2658789 3.4909918-1.5066469 7.4109615-.7976367 2.3667741-1.1816839 3.6684999-1.1225998 3.8755926-1.0339734 3.1507681-1.521418 4.851887-1.4623338 5.1181491l-2.3042836 7.5588849c-1.4918759 3.8755926-2.6292467 7.9434857-3.4268833 12.2332638.1329394-.0295847.3397341-.0147924.6351551.0591693l.3249631-.2810544c.0295421.133131.1181684.1775081.2511078.1479234l-.1329394-.5473165 1.0044313-.0295847c.295421-.0739617.5465288-.4437702.7533235-1.1242177-.0443132-1.0206714.1624815-1.5679879.620384-1.6863266.6203841-2.4259435 1.0044313-3.6389152 1.1373708-3.6832922.5760709-2.4111512 1.0044313-3.7868386 1.2850812-4.1270624.8714919-3.1359758 1.506647-4.7483406 1.9202363-4.851887l.0886263.3846008-.6351551 1.6419496c-1.1078286 4.9258486-2.2304283 8.8162336-3.3677991 11.6711549l.3249631 1.4200645.2067947-.044377c2.747415-5.9169354 6.7060561-17.6324673 11.8611521-35.1465959.1477105-1.5384032.8862629-2.7365826 2.2008863-3.5797459l-.295421-.3106391-.0443131-.1627157c.5908419-.1331311 1.0044313-.3698085 1.2407681-.6952399-.0295421-.1331311-.5465288-.3254315-1.5509602-.5916935l2.5701625-11.0350844c.5612999-.5029395.8862629-.7692016.9896603-.7692016l.0443131.5621088c-.1329394.0147924-.3397341.0887541-.5760709.2514698l.4874446.6952399c.886263-.961502 1.8463811-1.789873 2.8951256-2.4851129.5317578.1479234.7976366.3254315.8271787.5029395l.3840473-.0295846c2.9246676-2.1448891 5.7902511-3.6832923 8.6115211-4.6152096l.029542.3698085c-.516986.7839939-.871491 1.183387-1.063515 1.1981794.029542.2662621.103397.5029395.236337.7100322.044313.4881472-1.2259974 3.7424616-3.8257019 9.7777356-5.9379616 13.9787598-10.9158051 24.3186043-14.9630724 31.0343259.014771.133131.1033973.3106391.2658789.5473165.9896602-.2366774 1.6248153-.4881472 1.8759231-.7248246l.1772526-.0147923.0295421.3698084.4135894-.0295847.3692762-.1923004c.0147711.1035464.1477105.1479234.3988183.1331311l.0295421.3993931c.0295421.3550161-.1772526.917125-.6351551 1.6863266-.4283604.4585625-.8714918 1.4200645-1.3441654 2.884506l.014771.1923004.3840473-.0295847c1.6100443-1.8046653 2.8360414-3.5797459 3.6779911-5.3252418 4.7119646-1.3904798 8.3013294-2.7365826 10.7828656-4.0678931 2.5258491-.221885 4.4313151-.8727479 5.7311671-1.9673809l-.014771-.1923004-.960118.2810544-.206795.0147923-.014771-.1923004c1.83161-.2662621 3.116691-.6804475 3.81093-1.2277641 3.574594-2.7513749 6.277696-4.7187559 8.109306-5.8725583 5.701625-4.156647 8.360414-8.1505784 8.035451-11.981794zm-.974889.2514697.132939 1.4940262c-.177253.3698085-.369276.5621089-.546529.5769012l-.221566-2.5442822c.41359.1479234.620384.2958468.635156.4733548zm-111.8463816-12.0409634-.25110779.0147924-.04431315-.4585625 1.01920234-.088754.0147711.2366774c-.1624816.0147923-.4135894.1035463-.7385525.2958467zm-4.97784339 49.8649725c-.59084195-.2662621-1.1225997-.3698084-1.58050221-.3254314l-.0590842-.7248246c-.0295421-.2810544.13293944-.4733548.48744461-.5473165.32496307-.0295847.51698671.2070927.5465288.6804476.85672083-1.0502561 1.32939439-1.5827802 1.41802068-1.5975726l.54652881.2218851c-.17725259 1.4792338-.6351551 2.2336431-1.35893649 2.2928124zm53.19054649-55.7227384c-.2511078.0295846-.7533234-.7544093-1.4771048-2.3076048l-.0443132-.4585625c.4726736-.044377.9601182.7248246 1.4771049 2.3076048zm-.7090103-5.51754224-.2067947.48814716-7.2230428-3.01763702c4.8153619.16271573 7.2968981 1.00587901 7.4298375 2.52948986zm-30.5022157 26.22681584-1.0192023.088754-.0443132-.4585624 1.0192024-.0887541zm-.8271787-15.7538403.2511078-.0147923.0590842.7248245c-.2363367.0147924-.5465288.3698085-.930576 1.0502561l-.0443132-.5029395c.4579025-.5473166.6942393-.961502.6646972-1.2573488zm-2.1418021 5.0589797.0886263.961502-.2511078.0147923-.0886263-.961502zm-1.1225997 1.8046653.4874446-.044377c-.0443131.7987862-.2658788 1.227764-.6646971 1.2573487l-.2511079.0147924c.3101921-.5325242.4579025-.9467097.4283604-1.2277641zm-.8419497 2.5146975.2806499-.0295847.014771.2366774-.4579025.7692016-.4874446.044377-.014771-.2366774c.4874446-.044377.7090103-.2958467.6646972-.7839939zm-.8271788 2.2632278-.1477105 1.2129717-.2511078.0147923-.1033973-1.1981794zm-8.2865583 23.5937796c-.3249631 1.6567419-.6794683 2.4999052-1.0487445 2.5294898l-.014771-.2366774c-.0886263-.8135786.2658789-1.5827802 1.0635155-2.2928124zm-1.521418 3.2986914.014771.2366775c.0295421.3254314-.1181684.5177318-.4431314.5325241l-.0147711-.2366774c-.0295421-.2810544.1181684-.4585625.4431315-.5325242zm-.4431315 6.8488527.7680945-.0739617.0295421.2662621c-.1920236.0147923-.4431314.1183387-.7533234.2958467l-.4874447.0443771c-.0295421-.2514698.1329395-.4437702.4431315-.5325242zm21.8611521-6.7600986c-4.3131462 2.1300967-6.8537666 3.5797458-7.6070901 4.3341551-4.6676514 1.6271572-6.986706 2.6330362-6.9423929 3.0324294-4.1506647 1.6419495-6.8833087 2.8549213-8.197932 3.6093305-.31019204.0295847-.75332351-.088754-1.34416546-.3550161-.07385524-.8431633.31019203-1.5236109 1.12259966-2.0709274.7237814-.0591693 1.4180207.044377 2.0827179.3254315.7680946-.3993932 2.11226-.8431633 4.0177253-1.3165181l-.0443132-.5029396-1.536189.1331311c.1920236-.2662621 1.6691285-.961502 4.4460856-2.0857197l.7680946-.0739617.014771.2366774c-1.3146233.1183387-2.0384047.5029395-2.2008862 1.1981794.0295421.3106391.2067946.4437702.5317577.4141855.9896603-.6212782 1.4771049-.9910867 1.4623338-1.094633 1.8759232-.3550162 7.0605613-3.0768064 15.5539144-8.1505785l.0445347.4585625c.0145495.2218851-.7092319.8431633-2.1715658 1.9082117zm-13.0280649 4.2897781c1.240768-.1035464 2.3042836-.6064859 3.1905465-1.4792339.3545052-.0295846.5465288.1035464.5612998.4141855-.605613.0591694-1.7725258.5621089-3.4711964 1.5384032l-.2511078.0147923zm21.0192023-16.1680258-6.5140325 5.1773184c-4.844904 3.1803527-7.4446085 4.7779253-7.8286558 4.80751-7.7104875 4.2454011-12.5110783 6.4494595-14.3722304 6.6121752l-.28065.0295847c.2363368-.872748 3.6632201-7.8991087 10.3101921-21.1234592 2.9246676-.2514697 7.5332348-1.6123648 13.8109305-4.0974777l1.5361891-.133131c3.1757755-.2810545 5.5539143.3402238 7.1196455 1.8194576l.0886263.961502c-1.1669129 3.3874455-2.4667652 5.3696188-3.8700148 5.94652zm-12.732644-7.1742841 1.0487445-.088754.014771.2366774-1.0487445.088754zm14.7267356-2.4999052.7680945-.0739617c.7090104.3402238 1.0782866.6360706 1.1078287.9023327l.014771.2366774c-.6794682.0591693-1.3146233-.2958468-1.8906942-1.0650484zm2.0827179-11.8782477c-.6794683.8135787-2.5406204 2.2040585-5.5834565 4.1566471-1.0044313.088754-4.7415066 1.5384032-11.211226 4.3785322-.324963-.1479234-.6646971-.2070928-1.0339734-.1775081l-.0443131-.4585625c-.0738553-.9319173.3397341-2.100512 1.2555391-3.5205765.5022157-2.6626209 1.0487445-4.1862318 1.6543575-4.5560402l5.3914328-12.1445098c-.0590842-.7544092 1.0930576-1.33131043 3.4564254-1.73070356l.7680945-.0739617.0590842.69523986c2.3190547-.35501607 3.7666174-.56210881 4.3279173-.60648583 4.2836041-.36980845 6.5140325.50293953 6.6912851 2.58865923l.4874446-.044377-.1033973-1.2277641.5317577-.044377c1.2555391.6952399 1.9350074 1.5384032 2.0236337 2.5294898.0590842.6804476-.310192 1.5236109-1.0930576 2.5294899-.3249631.0295847-.5169867-.2070928-.5465288-.6804476l-.5317578.044377-.1181684 1.4792339c-2.1713441 3.2543144-3.7518464 4.9258486-4.7267356 5.0146027-.8862629 1.227764-1.4327917 1.8342499-1.6543574 1.8490422zm3.3087149 8.5055946c-.4431315-.2958468-.7976366-.4289778-1.0635155-.4141855l-.0590842-.7248246.4874446-.044377 1.0782866.6360706c.0443131.3402237-.1033974.5177318-.4431315.5473165zm3.4268833 4.067893c.4726736.1923004.7533235.3993932.8124077.5916936l-.2363368.0591693.014771.0147924c-.0443131 0-.1033973.0147923-.1477104.0295846l-.3545052.2810545zm.3249631 2.0413427-.0443132-.1923004.6203841-.1479234.0443131.1923004zm1.4918759 1.6715342c.6351551-.1035463.9453471-.1479233 2.127031-.4141854l.0443132.1923004-2.2451995.5177318c.0295421-.1035464.0590842-.2070927.0738553-.2958468zm2.1861152.9319174c-.9453471.088754-.7385524-.0295847-2.2451994.3106391l-.0443131-.1923004 1.8906942-.6064859.901034-.2070927.0886263.3550161c-.4135894.088754-.1181684.088754-.590842.3402238zm1.9940916-.4733549c-.2215657.0591694-.3988183-.044377-.5022157-.2958467l.5760709-.1331311c.2511079-.0591693.4135894.044377.4726736.2958468zm5.4062038-5.8281813-.0443131-.1923004.9305761-.221885.0886262.3550161zm5.7754801 35.4720273c.0590842-.266262.0738552-.4585624.0443131-.5916935l.2067947-.044377c.2511078-.0591694.3988183.0295847.4579025.2662621l.0443132.1923004zm4.0472673-33.9484164-.4135893-.0739617c-.6646972.2662621-1.2259971.4585625-1.6838996.5621088l-.3840472.0887541c-.2215658.0591693-.3988184-.0295847-.4874447-.2662621l2.703102-.6212782.8862629-.4141855.295421.3402238c-.4283604.088754-.7385525.2218851-.9158051.3846008zm2.0827179-.6656552-.0443131-.1923004c.1329394-.0295847.310192-.1331311.5022156-.3254315l1.9202364-.4437701.0443131.1923004c-1.0192024.2514697-1.83161.5029395-2.422452.7692016zm.295421-3.890385c-.1329394.0295847-.310192.1479234-.5317578.3254314-.0295421-.133131-.2954209-.133131-.7976366-.0147923-.0886263-.3698085 1.3293944-.8875403 4.2688331-1.5679879l.4135894-.088754.0886262.3550161c-2.0679468.6064859-3.2200886.9467097-3.4416543.9910867zm5.1698671-5.5915039c-.2067947 2.3519818-1.0339735 3.6832922-2.4963073 4.023516l-.0443131-.1923004-1.2998523.5029395-.5760709.1331311c-.295421.0739617-.5612999.0591693-.7976367-.0147924l-.1181683-.5177318c-.0443132-.1923004 1.83161-2.795752 5.6425406-7.7955623l.4431314.0739617c.1624816.6804475-.0886263 1.9377963-.7533234 3.7868386zm9.1432791-7.8399393-.1772526.0147923-.0295421-.3698084.7680946-.0739617.014771.1923004c-.1329394.0295846-.324963.1035463-.5760709.2366774zm-3.7666174 37.8831784c-.4431315-.2070927-.8419498-.2958467-1.1816839-.2662621l-.0443132-.5621088c-.014771-.1923004.1033974-.3254315.3545052-.3993932.2511078-.0295846.3988183.1479234.4283604.5325242.6351551-.8135786.9896603-1.2277641 1.0635155-1.2277641l.3988184.1627158c-.1477105 1.1242177-.4874446 1.7159112-1.0192024 1.7602882zm40.3840474-42.3060876c-.192024.0147924-.5613-.5769012-1.137371-1.7750806l-.029542-.3698084c.369276-.0295847.753323.5473165 1.137371 1.7307035zm-.531758-4.23060875-.177252.3846008-5.465289-2.29281244c3.64845.11833871 5.539144.75440925 5.642541 1.90821164zm-23.175775 19.92527975-.768095.0739617-.029542-.3698085.768095-.0739617zm-.635155-11.9670017.206794-.0147924.044313.5621089c-.192023.0147923-.42836.2810544-.70901.7987863l-.029542-.3698085c.339734-.4289778.502216-.7544093.487445-.9762943zm-1.610045 3.8460079.059084.7248246-.206794.0147924-.059084-.7248246zm-.8714917 1.3756875.3840473-.0295847c-.0443131.6212782-.2067947.9467097-.4874446.9762944l-.2067947.0147923c.2215658-.4141855.3249631-.7396169.310192-.961502zm-.620384 1.8934193.1772526-.0147923.014771.1923004-.3397341.5916935-.3840473.0295847-.014771-.1923004c.3988183-.0295847.5760709-.2366774.5465288-.6064859zm-.6203841 1.7159113-.1329394.9467096-.1772526.0147923-.0738552-.9319173zm-6.3072378 17.9431063c-.2511078 1.2425565-.5169867 1.878627-.7976366 1.9082117l-.014771-.1627157c-.0443132-.6212782.2215657-1.2129718.8124076-1.745496zm-1.1669128 2.4999052.014771.1627157c.0295421.2662621-.0886263.4141855-.3545051.4289779l-.0147711-.1923004c-.014771-.1923004.1033974-.3254315.3545052-.3993932zm-.3249631 5.2069031.590842-.044377.014771.1923004c-.1329394.0147923-.3397341.088754-.5760709.2218851l-.3840473.0295846c-.014771-.2070927.1033974-.3402237.3545052-.3993931zm16.5878875-5.1329414c-3.24963 1.6123649-5.184638 2.7069979-5.790251 3.2691068-3.5450516 1.2425564-5.3028064 2.011758-5.2732643 2.3223971-3.1462333 1.2573488-5.2141802 2.1596814-6.1890694 2.7365826-.2363368.0147923-.5760709-.0739617-1.0192023-.2810544-.0590842-.6360706.2363367-1.1538024.8567208-1.5384032.5612998-.044377 1.0930576.0295847 1.5805022.2366774.5908419-.2958468 1.6100443-.6212782 3.0576071-.9910867l-.0295421-.3698084-1.196455.1035463c.1477105-.2070927 1.2850813-.7396169 3.3973413-1.5975725l.5908419-.044377.0147711.1627157c-1.0044314.088754-1.5657312.3846008-1.6838996.917125.014771.2366774.1624815.3550161.4135894.3254314.7385524-.4881471 1.0930576-.7692016 1.0930576-.8579556 1.4180206-.2514698 5.3471193-2.3223971 11.8020683-6.1979898l.029542.3698085c0 .1479234-.546529.6212782-1.654358 1.4348568zm-9.8966024 3.2543144c.9601182-.088754 1.7725258-.4585624 2.4519941-1.1094253.2511078-.0147924.3988183.088754.4135893.3254314-.4431314.044377-1.3146233.4141855-2.6292466 1.1242177l-.2067947.0147924zm15.9822744-12.2924331-4.918759 3.9643467c-3.677991 2.4111511-5.672083 3.6241229-5.982275 3.6537075-5.8493349 3.2247298-9.4830129 4.896264-10.9158047 5.0146027l-.2067946.0147924c.1772525-.6656553 2.7917282-6.0056894 7.8434268-16.0348948 2.2008865-.1923004 5.6868535-1.2425564 10.4726735-3.1359757l1.196455-.1035464c2.407681-.2070927 4.209749.2662621 5.391433 1.4052722l.059084.7248245c-.901034 2.5442822-1.875923 4.0383084-2.939439 4.4968709zm-9.660266-5.4435805.768095-.0739617.014771.1923004-.768094.0739617zm11.181684-1.9082117.590842-.044377c.546529.2662621.827179.5029395.84195.6952399l.014771.1627158c-.516987.044377-1.004431-.2218851-1.447563-.8135787zm1.55096-9.008534c-.516986.6212782-1.920236 1.6863266-4.209748 3.1655604-.768095.0739617-3.604136 1.1685947-8.508124 3.2986915-.236337-.0887541-.502216-.1183388-.782866-.1035464l-.029542-.3698085c-.059084-.7100322.251108-1.5975725.930576-2.6774132.384047-2.0413427.812408-3.1803527 1.255539-3.4466148l4.121123-9.2304192c-.044314-.5473165.827178-.9910866 2.599704-1.3313104l.590842-.044377.044313.5621088c1.742984-.2810544 2.836042-.4437701 3.279173-.4881471 3.249631-.2810545 4.948301.3698084 5.081241 1.967381l.384047-.0295847-.073855-.8875403.384047-.0295847c.945347.5177319 1.447563 1.1390101 1.506647 1.878627.044313.5325242-.221566 1.1833871-.782865 1.9377963-.251108.0295847-.398819-.1479234-.428361-.5325242l-.384047.0295847-.118168 1.1094254c-1.639587 2.4999052-2.836042 3.7868386-3.589365 3.8460079-.664698.9023327-1.078287 1.3608952-1.270311 1.3756875zm1.728213 6.1536128-.044313-.5621089.384047-.0295847.827179.5029395c.014771.2366774-.103397.3698085-.354505.3993932-.354505-.2218851-.620384-.3254315-.812408-.3106391zm-68.7592317 35.9305897-.3840473.0887541-.3249631.2810544c.0590842.2366774.2067947.3254314.4579025.2662621.2511079-.0591694.3545052-.2070927.295421-.4437702zm-1.4623339-2.9140906.0443132.1923004c.2511078-.0591694.3545052-.2070927.295421-.4437702l-.0443132-.1923004c-.2363368.0591694-.3397341.2070928-.295421.4437702zm10.4579026-19.67381.2806499-.177508c-.0590842 0-.1033974-.0147924-.1477105-.0295847-.1033973.0295847-.1477105.1035464-.1329394.2070927zm-.0590842-5.1033567.4431314-.1035464-.0886263-.3846008-.4431314.1035464zm104.3870012 14.9402617-1.004431-.1183387-.177253.3846008.014771.1923004 5.982275-.5029395-.029542-.3698085zm5.465288-.4585625.029542.3698085h.059085l-.029543-.3698085zm25.096012-3.2838991.029542.3698085.649926.1183387-.029542-.3698085zm-.915805.0739617c-4.490399 1.005879-5.051699.828371-5.997046.9023326l.029542.3698085.41359-.0295847.221565-.0147923-.059084-.044377.487445-.1923004c4.446086-.4881472 4.963072-.3106391 4.918759-.8135786zm-26.957164-6.5382135-.398818-.1331311c-.324963.872748-.487445 1.3904798-.472674 1.5384032l.014771.1627157c.310192-.0147923.590842-.5473165.856721-1.5679878zm-5.406204-2.9140907-.014771-.1923004-.206794.0147924-.369277.2366774.206795.3550161c.28065-.0295847.413589-.1627157.384047-.4141855zm11.742984 12.1593021-.029542-.3698084-.118168.0147923.029542.3698085zm24.37223-5.5027498.28065-.0295847c.162482-.0147924.236337-.1479234.221566-.3846008l-.162481-.3550161c-1.019203.088754-1.491876.133131-2.319055.5916935l-.014771-.1923004-1.225997.1183387c-.029542-.3698084-.13294-.5621088-.295421-.5473165l-.635155.0591693c-.738553.0591694-1.093058.0295847-1.462334.3106391-.014771-.133131-.059084-.1923003-.13294-.1923003l-.70901.0591693-.413589.2366774c-.014771-.133131-.059084-.1923004-.13294-.1923004l-.251107.2218851-.014772-.1923004-.98966-.0739617-.236337.0147923.029543.3698085.502215.133131.472674-.0295846c.162481.1035463.339734.133131.546529.1183387l.413589-.2070928.014771.1627158c-2.319055.5769012-2.304284.4733548-3.899557.7396169-.177253-.1183387-.310192-.1775081-.398818-.1627157l-.029542.0295846c-.177253-.0147923-.28065-.133131-.295421-.3254314l.827178-.1035464c.059085 0 .103398.0591694.5613.1479234.664697-.3254314.69424-.4585625 1.048745-.4881472l-.029542-.3698084c-2.274742.4437701-1.358937.1479234-4.209749.3993931l-.13294.0147924-.029542-.3698085c3.66322-.4437702 2.437223-.1923004 3.692762-.5473165.014771.133131.059085.1923004.13294.1923004.14771-.1479234.310192-.2218851.502215-.2514698l.251108-.0147923c1.285082-.1035464 1.713442.1479234 4.254062-.5621089l.014771.1627158.41359-.2070928.384047-.0295847c-.029542-.3698084.531758-.4289778.723781-.4437701l-.029542-.3993931c-4.460856.9023326-5.627769.6508628-6.868537 1.005879l-.014771-.1627158c-1.166913.2070928-1.211226.1183387-1.506647.1331311-.088627.0147923-.221566.088754-.369277.2366774-.014771-.133131-.059084-.1923004-.14771-.1923004-.044313 0-.059084.0147923-.073855.0147923l-3.781389.6212782c-.014771-.1035463-.059084-.1627157-.14771-.1479233-1.96455.4141854-1.432792.4881471-4.062039.7248245-.118168.0147924-.28065.0739617-.487444.2070928-.014771-.1035464-.073856-.1627157-.206795-.1479234l-1.610044.133131-1.078287.2662621c-.014771-.1035463-.073855-.1627157-.206795-.1479234-.605613.1627158-1.13737.2662621-1.565731.2958468h-.029542c-.265879.0295847.13294-.0739617-.073855-.1627157l-.324963.1923004c-.472674.044377-.221566-.0295847-1.846381-.0147923-2.850813.3550161-2.540621.3993931-2.850813.4141854l-1.063515-.0739617c.014771.1035464-.044313.1775081-.162482.1775081-1.211226-.1627157-1.83161-.3550161-1.846381-.5769012.162482-1.1538024.443132-1.7454959.84195-1.7750806l.206795-.0147923-.177253.3846008.206795-.0147924c.384047-.2070927.5613-.3993931.546529-.5769012l-.029542-.3993931-.384048.0295847-.029542-.3698085c-.029542-.2810544.014771-.5325242.118169-.7396169l.871491-1.4052722.029543.3698085.413589-.0295847-.029542-.3698084-.236337-.3402238c.310192-.2662621.546529-.4141855.738552-.4289778l-.014771-.1923004-.561299.044377-.044314-.5621089c1.1226-2.3371894 1.654358-3.6980845 1.624816-4.0826853l.398818.1627157c.251108-.0147924.369276-.1627157.354505-.4289778l-.384047.0295846-.014771-.1627157c-.029542-.2810544.029542-.5473165.14771-.7839939.605613-.6360706.886263-1.2721411.827179-1.9377963.118169-.0147924.177253.044377.192024.177508.516986-.2958467.915805-1.0798407 1.211226-2.3815664.915805-1.6567419 2.215657-4.9702257 3.914328-9.9256591 3.24963-8.75706424 3.116691-9.68898156 3.574593-11.75990892l-.384047.02958467c.029542.26626209-.029542.51773184-.14771.75440926-.265879-.10354637-.472674-.16271572-.620384-.14792339l-.014771-.16271572c-.059085-.75440925.251107-1.65674189.960118-2.72179025l.177252-.01479234.324963 1.2721411.384048-.02958468c-.014771-.08875403.088626-.59169353.295421-1.52361085-.014771-.1923004-.162482-.3106391-.457903-.32543144l-.369276.23667741c-.029542-.26626209-.014771-.96150199.029542-2.07092736l-.192024.01479234c-.324963-.32543145-.487444-.59169354-.502215-.81357861l-2.11226.20709273c-.014771-.14792338-.088626-.36980845-.236337-.65086288-.014771-.1923004.457903-.3846008 1.432792-.5769012l.42836.16271573.398818-.23667742c.014772.13313105.088627.1923004.236337.17750806l.398819-.23667741c.014771.13313104.088626.1923004.236336.17750806l.192024-.01479234-.029542-.42897781c-.295421.02958468-1.078287.02958468-2.319055-.01479234l-.398818.26626209-.014771-.23667741c-9.911374.81357861-15.539143 1.27214109-16.883309 1.40527214-.177252.01479234-.871492 0-2.097489-.02958468.014771.16271572-.132939.25146975-.42836.28105443l-.428361-.1923004-1.447562.36980846c-.339734.02958468-.915805.01479234-1.713442-.07396169-.221566.17750806-.487445.28105443-.812408.3106391-.177252.01479234 2.11226-.1183387 4.239291-.26626209-.221565.17750806-.5613.28105443-1.033973.32543145-.324963.02958467-.605613-.01479234-.84195-.14792339-.324963.14792339-1.373707.3846008-3.131462.73961692l-.428361-.16271572-6.91285 1.06504836c-.265879-.13313105-.576071-.17750806-.930577-.14792339-.369276.02958468-.98966.16271573-1.846381.39939314l-3.338257 1.3904798.251108.41418547c.162482-.01479233.398819-.10354636.679468-.26626209l1.181684.10354637-.14771 1.10942538c-1.093058.48814716-1.728213 1.21297174-1.905465 2.13009672-1.639587.72482457-2.451995 1.24255643-2.451995 1.55319553l.014772.1923004.251107-.0147923.443132-.2366775.516987.6212782.073855.8579557c.029542.2662621-2.732644 6.079651-8.257016 17.4401669-4.78582 10.9463303-7.296899 16.9372273-7.533235 18.017068-1.639587.4585625-2.584934 1.1242178-2.865584 2.0117581.029542.2810544.516987.4733548 1.462334.5473165l.044313.4289778-.42836.7100322.073855.8579556c.044313.4437702 1.240768.783994 3.589365 1.0206714-.014771-.1479234.059084-.2366774.221566-.2514698.044313.5325242-.103398 1.5679879-.443132 3.1063911l.251108-.0147924c.974889-1.3313104 1.432792-2.2484354 1.388479-2.7513749l.206794-.0147923c.236337-.0147924.487445.2514697.782866.8283709-.295421.1183387-1.329395 2.4703205-3.10192 7.0707377l.251107.4141855.251108-.0147923c2.171344-5.5027499 3.530281-8.5499716 4.091581-9.1268728 2.850812-.2514697 7.784342-.7544092 14.78582-1.5088185l.443131-.2662621c.014771.1479234.103397.2218851.265879.2070928l.457902-.044377.443132-.2662621c.014771.1479234.103397.221885.265879.2070927l5.302806-.4585625c1.40325-.1183387 2.067947-.5473165 2.008863-1.2721411-.014771-.1923004.812408-.4141855 2.481536-.6508629.162482-.0147923.398818.0295847.723781.1331311-.014771-.1331311.827179-.2662621 2.511079-.4141855.044313-.8875403.324963-1.3608951.827178-1.4052721l-.044313-.4289778c-.472673.044377-1.004431.1627157-1.624815.3698084-1.107829-.0591693-1.816839-.1479234-2.11226-.2514697-.295421.1627157-.516987.2514697-.679468.266262l-3.692762.1183388-.443132.2366774c-.014771-.1331311-.103397-.1923004-.265879-.1775081l-.206795.0147923-.472673.2366775c-.014771-.1331311-.398818-.2366775-1.166913-.3402238l-.472673.2810544-.915805.0739617-.014772-.2366774c4.756278-.5177319 7.104875-1.1685947 7.045791-1.9377963.310192-.0295847.472673.1183387.502215.4289778l1.388479-.3550161-.044313-.4289779-11.388479.3106392c.014771.1479233-.059084.2366774-.221566.2514697l-1.388478-.1183387c-.354505.0295847-.649926.133131-.886263.3106391l-.516987-.1923004c-1.432791.1183387-2.496307.2958468-3.205317.5177318-.97489-.0739616-2.053176-.0591693-3.249631.0443771l-2.555391.221885-1.181684-.133131c-.059085-.7544093 1.403249-4.4672862 4.416543-11.1238384.871492-2.2484355 1.669129-3.6537076 2.437223-4.1862318.162482-.0147923.398819.044377.723782.1775081l1.816839-.6212782.930576.1479234c1.565731-.1331311 3.38257-.5769012 5.465288-1.3461028.516986-.044377.901034-.0147924 1.181684.1035463l1.388478-.3254314 4.135894-.3550161c1.757755-.1479234 3.66322-.5325242 5.731167-1.1685948l-.044313-.4289778c-.768095.0739617-1.166913-.0591693-1.196455-.3698084-.044313-.5769012-.605613-.8135786-1.6839-.7248246l-.044313-.4289778 1.137371-.3254315 2.983752-.2514697-.044314-.4289778c-.118168.0147923-.723781 0-1.846381-.044377l-.044313-.4585625 1.152142-.1035464c.310192-.0295847.443131-.1775081.413589-.4733548-1.55096.044377-2.333825-.0295847-2.348596-.2366774-10.812408.5325241-16.233383.6360705-16.262925.2958467-.162482.0147924-.384047.1183387-.679468.2958468l-.28065-.4437702c2.865583-6.0944433 4.549483-9.1712497 5.036927-9.2156267.014771.2366774-.103397.6212782-.354505 1.13901l.014771.1923004.457903-.044377c1.137371-2.7217902 2.097489-4.1270624 2.895125-4.1862317 3.397342-.2958468-.472673-.51773188 6.794683-1.65674193.295421.13313104.502215.19230039.649926.17750806 2.850812-.5769012 6.824224-1.18338707 11.920236-1.80466528l-.029542-.42897781-2.717873.25146975-.029542-.42897781c.324963-.02958468.590842-.13313105.812408-.31063911l.014771.23667742c.14771-.01479234.354505-.11833871.620384-.29584677.472673-.04437701.827179 0 1.078286.13313105.945348-.25146976 1.713442-.39939314 2.274742-.45856249l1.698671-.16271572c.413589-.26626209.605613-.50293951.590841-.72482458l-.014771-.1923004c-.42836.04437701-.915805.01479234-1.491875-.08875403-.014772-.23667741.103397-.39939314.384047-.47335483l3.161004-.29584676 1.447563-.36980846c.014771.16271572.088626.22188507.206795.22188507.14771-.01479233.354505-.1183387.620384-.29584676.073855.01479234.162481.01479234.236337.02958467-.192024.39939314-.41359.97629433-.635156 1.73070359l-.413589.02958467c-.029542-.28105442-.103397-.53252418-.236337-.75440925l-.206794.01479234c-3.840473 10.70965297-5.553915 15.69467097-9.098966 23.91921107-.649927 2.100512-1.196455 3.2691068-1.669129 3.5205765.014771.2366774.162482.3550161.413589.3254315.088627 1.0354637-.14771 2.056135-.723781 3.062014-1.639586 4.7335483-2.732644 7.3222075-3.293944 7.7955623l.369276 2.2336431c.014771.2366774-.103397.3698084-.354505.3993931l-.384047.0295847c-.059084-.6212782-.28065-.917125-.679468-.872748l-.206795.0147924c-.502216.7839939-.886263 1.6863265-1.137371 2.7365826l.384048-.0295847c.516986-.3402238.753323-.7396169.70901-1.1981794l.768094-.0739617.443132.1627157c-.354505.5621089-.516987 1.005879-.487445 1.3461028l.206795.3550161-.502216 1.1833871.014771.1923004c.443132-.044377.930576.1035464 1.447563.4141855.354505-.0295847.738553-.1923004 1.166913-.4733549.443131-.044377 2.097489-.0591693 4.948301-.0591693l1.432792-.4881472c1.742984-.0147923 2.023634.0295847 3.530281-.1035464l.620384-.0591693.324963-.2218851.014771.1923004c1.580502-.133131 1.683899-.0295847 2.924667.1183387l.014772.1923004-.871492.0739617.029542.3698085c.265879-.0295847.502215-.1035464.694239-.2662621.221566-.0147924.354505.1035464.369276.3698084-.354505.0295847-.753323.1183387-1.196455.2662621l-.384047-.133131c-.605613.1627157-.472674.2070927-.886263.2366774l-.605613-.1183387c.014771.1035464-.044313.1775081-.14771.1775081.014771.2366774.14771.3550161.369276.3402237l.620384-.0591693 3.23486-.2810544 1.225997-.2662621c.014771.1035463.059084.1627157.162481.1479233l.590842-.221885 1.107829-.0887541c.856721-.0739617.84195-.133131 2.703102-.4289778-.014771-.1183387.029542-.1627157.118168-.177508l.014771.1627157c3.028065-.5177318 3.220089-.5473165 3.707533-.7100322l.044314.088754c.753323-.1775081.324963-.1331311.531757-.2810544.014771.133131.059084.1923004.13294.1923004l.531757-.0443771-.029542-.3993931-1.078286-.0147923-.014771-.0295847c-.044313.0147923-.073855.0147923-.118169.0295847h-.14771v.0295846c-.723782.1479234-.738553.0443771-1.211226.0887541l-2.703102.1479234-.014771-.1923004 1.506647-.2070928.546529-.044377.310192-.2218851.014771.1923004c2.127031-.177508 2.880354.3550161 12.717873-1.7454959.531757-.044377.487444-.4881472.827178-1.4052721-.177252.0147923-.354505-.0295847-.516986-.1183387-.812408.3106391-1.240768.1627157-2.8065.4141854-.132939.0147924-.236336-.1035463-.280649-.3402238l-.014771-.1627157 1.506646.044377c.28065-.0295846.827179-.0739616 1.639587-.5325241 0 .133131-.310192.2070927-.13294.1923004zm-72.732644 1.1685947-.694239.0591693c-.029542-.2810544.339734-1.3461027 1.107829-3.1655604l.457902-.044377c.014771.4289778-.265879 1.4792339-.871492 3.1507681zm.84195-3.3726532-.014771-.1923003c-.014771-.2366775.13294-.3993932.457903-.4733549l.014771.1923004c.014771.2810545-.13294.4437702-.457903.4733548zm9.231906 7.1446995.014771.1923004-1.152142.1035463-.014771-.1923004zm-1.388479-.1183387c.014771.2366774-.339734.5029395-1.107829.7692015l-1.41802-.1035463-.457903.044377-.044313-.4289778zm9.335303-43.03091224-.694239.05916935-.014771-.23667741c-.014771-.23667741.118168-.39939313.413589-.47335483l.251108-.01479233.472673.19230039c.014771.28105443-.118168.44377015-.42836.47335483zm10.5613-2.07092736.221565-.01479234.029543.42897781-.635156.05916935c-.014771-.23667741.103398-.39939313.384048-.47335482zm-2.658789.93191731-1.048744-.11833871-.014772-.1923004c1.373708-.1183387 1.831611-.26626209 2.67356-.5029395.014771.16271572.162482.22188508.428361.1923004l.029542.42897781-.41359.04437702c-.324963.02958467-.605613-.01479234-.841949-.14792339-.251108.16271572-.516987.26626209-.812408.29584677zm1.314623 3.83121563-.014771-.1923004 1.698671-.16271572.014771.19230039zm1.816839-1.47923384-.014771-.23667741.827179-.07396169.014771.23667741zm.192024-2.89929831-.221566.01479234.192024-.45856249 1.890694-.17750806.014771.23667742c-.487444.04437701-1.1226.17750805-1.875923.38460079zm.960118 4.08268538-.029542-.42897781.827179-.07396169c.28065-.02958468.42836.10354637.443131.39939313zm5.007386-6.83406031-1.063516.29584677-.192024.01479234c-.502215.04437701-1.152141.02958467-1.920236-.04437702 1.373708-.08875403 2.688331-.1923004 3.175776-.26626209zm-1.137371 4.73354827.014771.1923004-1.462334.13313104-.014771-.1923004zm2.39291 1.13901005c-.014771-.17750806-.295421-.29584677-.871492-.35501612l-1.462334.41418547-1.1226.04437702c-.251107-.17750806-.384047-.29584677-.398818-.3846008l1.299852.07396169 2.924668-.47335482 1.491876.05916935.014771.23667741c-.738552.07396169-1.358937.20709274-1.875923.3846008zm15.051698-3.89038498c.177253.01479234.295421.01479234.339735.01479234.516986-.50293951 1.093057-.90233264 1.757754-1.18338707-.531757 2.33718946-1.358936 4.06789304-2.496307 5.19211075l-.827179-.5029395c.69424-1.76028826 1.107829-2.92888299 1.225997-3.52057652zm-2.54062 4.36373981.206795-.01479234c-.28065.53252418-.531758.8135786-.738553.82837094l-.044313-.56210885c.13294 0 .324963-.08875403.576071-.25146975zm-1.639586 3.91996969c.398818-1.5975726.782865-2.49990522 1.13737-2.73658263l.014771.1923004c-.206794 1.47923383-.531757 2.26322773-.960118 2.32239713l.073856.9319173c-.354506.5029395-.516987.8875403-.502216 1.1833871l-.206795.0147923-.118168-1.2869334c.236337-.0295847.42836-.2366774.5613-.6212782zm-.635155 2.1300967c.014771.2218851-.13294.7396169-.428361 1.5384032l-.206795.0147923-.044313-.5621089c.28065-.6508628.516987-.9762943.679469-.9910866zm-11.920237 34.6436563-.014771-.1627157.384047-.0295847.044314.5621089c-.206795.0147923-.354506-.1035464-.41359-.3698085zm17.031019.4437702c-.014771-.1331311-.073855-.1923004-.206794-.1775081l-.960118.0887541-.014771-.1923004h.088626l2.274741-.1923004.014771.1923004c-.664697.0295846-1.063515.133131-1.196455.2810544zm-1.13737-.4733548c.088626.044377.044313.088754 0 .1183387-.044313-.0147924-.103398-.0591694 0-.1183387zm.118168-2.6626209-1.27031.1035463-.014771-.1923004 1.152142-.1035463 1.004431-.2514698c.014771.1183387.073855.1627157.206795.1479234 1.196455-.2070927 1.078286-.2662621 1.654357-.3106391.192024-.0147923.310192.1035464.324963.3402238zm4.446086-.3846008c-.709011-.0739617-.753324-.1331311-1.255539-.0887541l-.014771-.1627157 1.13737-.1035463.014771.1627157c-.118168.0147923.310192.044377.118169.1923004zm.088626-.2070928-.014771-.1627157.620384-.0591693.014771.1627157zm1.373708-.1183387-.014771-.1627157c.103397-.0147923.251107-.088754.443131-.2366774.310192-.0295847.472674.1775081.502216.4141855zm1.757754-.221885-.014771-.1923004.753324-.0591694.014771.1923004zm1.048745-.0887541c-.014771-.2218851.073855-.3550161.265879-.3846008l.251108.3254315c-.014772-.1035464.029542-.1627158.118168-.1775081l.192024.3550161zm14.534712-1.7159112.014771-.0147924v-.0147923s-.014771.0147923-.014771.0295847zm.265879-.1923004c.118168-.0739617.177252-.1479234-.103398-.1923004-.132939.1479234.147711.1923004-.14771.2070927l.014771.1331311c.029542-.0295847.103397-.0739617.162481-.1183387l-.162481.133131v.0147923l-.310192.3993932.620384-.2218851h.073855l-.029542-.3698085zm1.078286.8431633-.118168.0147923.029542.3698085.871492-.0739617c-.014771-.2366774-.590842-.3106391-.782866-.3106391z" fill="#f9dc3e"/></g></svg>