<svg height="176" viewBox="0 0 200 176" width="200" xmlns="http://www.w3.org/2000/svg"><g fill="none" fill-rule="evenodd"><path d="m178.708861 51.4402888c-.405064-.4320578-.835443-.8641155-1.265823-1.2707581s-.835443-.8641155-1.265823-1.2707581-.835443-.8641156-1.265823-1.2707582c-.430379-.4066426-.835443-.8641155-1.265822-1.2707581-.43038-.4066426-.835443-.8641155-1.265823-1.2707581s-.835443-.8641155-1.265823-1.2707581-.835443-.8641156-1.265823-1.2707582c12.557376 12.3891768 19.751248 29.243368 20.025317 46.9163899 0 42.1129242-42.582279 76.3725632-94.9367091 76.3725632-29.3164557 0-55.5443038-10.750614-72.9873418-27.600866l1.2658228 1.270758 1.2658228 1.270758 1.2658227 1.270758 1.2658228 1.270758 1.2658228 1.270758 1.2658228 1.270758 1.2658228 1.270758c17.4177215 17.561878 44.2278481 28.871625 74.2531644 28.871625 52.354431 0 94.936709-34.259639 94.936709-76.2454874 0-17.9431047-7.696203-34.9458483-21.291139-48.3142238z" fill="#000"/><path d="m183.544304 89.4613718c0 38.6564622-39.670886 69.9933572-88.6075951 69.9933572-48.9367089 0-88.60759498-31.336895-88.60759498-69.9933572 0-23.9664982 15.18987338-45.1373285 38.53164558-57.6924187 23.3417721-12.5550903 37.8734177-25.41516249 50.0759494-25.41516249 12.2025321 0 22.6329111 10.49646209 50.0759491 25.41516249 23.341772 12.5550902 38.531646 33.7259205 38.531646 57.6924187z" fill="#fbf0df"/><path d="m183.544304 89.4613718c-.012312-4.9659259-.693592-9.9073675-2.025317-14.6899639-6.911392 84.6324911-109.7468351 88.6989171-150.1772148 63.3854151 18.174756 14.141947 40.6027466 21.653068 63.5949367 21.297906 48.8607591 0 88.6075951-31.387725 88.6075951-69.9933572z" fill="#f6dece"/><path d="m60.835443 27.1179783c11.3164557-6.8112635 26.3544304-19.59509021 41.139241-19.62050538-2.274468-.73805669-4.6477217-1.12371426-7.0379751-1.14368231-6.1265823 0-12.6582279 3.17689531-20.886076 7.95494589-2.8607595 1.6774007-5.8227848 3.5327075-8.9620253 5.4642599-5.8987342 3.6597834-12.6582279 7.8024549-20.2531646 11.9451263-24.1012658 13.0888087-38.50632908 34.6662816-38.50632908 57.7432491v3.0244044c15.34177218-54.4138628 43.21518988-58.5565343 54.50632908-65.3677979z" fill="#fffefc"/><path d="m87.6455696 12.7838267c.0716592 12.1435951-5.1325534 23.7154525-14.2531645 31.6927076-.7088608.6353791-.1518988 1.8553069.7594936 1.4994946 8.5316456-3.3293863 20.0506329-13.29213 15.1898735-33.3955235-.2025317-1.1436823-1.6962026-.8387003-1.6962026.2033213zm5.7468355 0c6.2686222 10.2679701 7.7573999 22.7723356 4.0759493 34.2342238-.3037974.8895307.7848102 1.6519856 1.3924051.9149459 5.5443035-7.1162455 10.3797465-21.2470758-4.1012658-36.4961733-.7341772-.6607942-1.8734178.3558123-1.3670886 1.245343zm6.9873419-.4320577c9.814805 6.9756205 16.139621 17.8763258 17.341772 29.888231-.053245.4443758.250473.8524221.690063.9271044.439591.0746823.860138-.2103184.955507-.6475376 2.329114-8.8698917 1.012658-23.9919134-18.151899-31.8451986-1.012658-.4066426-1.6708862.9657762-.835443 1.5757401zm-46.7341774 26.4317689c11.6700424-3.5000356 21.3072034-11.8164272 26.5063291-22.8736462.4556962-.9149459 1.8987342-.5591336 1.6708861.4574729-4.3797468 20.33213-19.0379747 24.5764621-28.1518987 24.0173285-.9620253.0254152-.9367089-1.3215884-.0253165-1.6011552z" fill="#ccbea7"/><path d="m94.9367089 165.833935c-52.3544304 0-94.9367089-34.259639-94.9367089-76.3725632 0-25.4151624 15.6455696-49.127509 41.8481013-63.3345848 7.5949367-4.066426 14.1012658-8.1582671 19.8987341-11.7418051 3.1898735-1.9823826 6.2025317-3.8376895 9.1139241-5.56592053 8.8860759-5.28635379 16.4810127-8.81906137 24.0759494-8.81906137 7.5949371 0 14.2278481 3.04981949 22.5316451 7.98036101 2.531646 1.44866426 5.063292 3.02440429 7.772152 4.75263539 6.303798 3.913935 13.417722 8.3361733 22.78481 13.3937906 26.202532 14.2070758 41.848102 37.8940072 41.848102 63.3345848 0 42.1129242-42.582279 76.3725632-94.9367091 76.3725632zm0-159.48014439c-6.1265823 0-12.6582279 3.17689531-20.886076 7.95494589-2.8607595 1.6774007-5.8227848 3.5327075-8.9620253 5.4642599-5.8987342 3.6597834-12.6582279 7.8024549-20.2531646 11.9451263-24.1012658 13.0888087-38.50632908 34.6662816-38.50632908 57.7432491 0 38.6056322 39.74683548 70.0187722 88.60759498 70.0187722 48.8607591 0 88.6075951-31.41314 88.6075951-70.0187722 0-23.0769675-14.405063-44.6544404-38.531646-57.6924187-9.56962-5.0830325-17.037974-9.8610831-23.088607-13.6225271-2.759494-1.7028159-5.29114-3.278556-7.594937-4.6763899-7.670886-4.57472924-13.265823-7.11624549-19.3924051-7.11624549z" fill="#000" fill-rule="nonzero"/><g transform="translate(75.9702 104.5308)"><path d="m35.2818401 2.07184122c-1.1372918 4.67620674-3.7261258 8.86831258-7.392405 11.97054148-2.7525056 2.6786221-6.3157847 4.359893-10.1265823 4.7780506-3.9252801-.3518843-7.6135873-2.0373692-10.45569622-4.7780506-3.62883435-3.1169006-6.18122785-7.30740246-7.29113924-11.97054148-.07454115-.56102629.11371844-1.12510535.50989913-1.52780229.39618069-.40269693.95568711-.59868287 1.51541732-.53082587h31.24050631c.5556031-.0593386 1.107624.14041401 1.4977427.54196862.3901186.4015546.5752349.96054768.5022573 1.51665954z" fill="#b71422" transform="translate(1.5328 1.4118)"/><g transform="translate(7.1437 5.7964)"><path d="m1.69620253 9.86108303c2.83631944 2.74226427 6.5113024 4.44364577 10.43037977 4.82888087 3.9101506-.3907799 7.5753771-2.0917731 10.4050633-4.82888087.9051544-.8469672 1.7510434-1.75559728 2.5316455-2.71942238-3.1521245-3.58991976-7.6407016-5.71421357-12.4050633-5.87090253-5.12015222.12172662-9.85319978 2.76356135-12.6582278 7.06541517.58227848.53371841 1.08860759 1.04202166 1.69620253 1.52490974z" fill="#ff6164"/><path d="m2.10126582 7.8532852c2.5429537-3.29982845 6.45192443-5.2478857 10.60759498-5.28635379 3.7913135.11225607 7.4036197 1.64440599 10.1265822 4.29516245.5822785-.63537906 1.1392405-1.29617328 1.6708861-1.95696751-3.2207223-3.07925306-7.4770553-4.83015568-11.9240506-4.90512635-4.81207892.04165993-9.35334853 2.24190176-12.37974685 5.99797834.59858068.6528847 1.23244771 1.2722541 1.89873417 1.85530686z" fill="#000"/></g><path d="m19.1943411 21.7571301c-4.2186495-.3710827-8.1886322-2.1623012-11.26582275-5.0830324-3.91884298-3.3274534-6.67721765-7.82394961-7.87341772-12.83465708-.17373565-.90347776.06814268-1.8374062.65822784-2.54151625.70307714-.85231735 1.75896739-1.33072762 2.8607595-1.29617328h31.24050633c1.0995218-.02324729 2.150738.45304525 2.8607595 1.29617328.5844723.70672866.8173357 1.64181397.6329114 2.54151625-1.1962001 5.01070747-3.9545748 9.50720368-7.8734177 12.83465708-3.070546 2.9155408-7.0307603 4.7063764-11.2405064 5.0830324zm-15.62025313-18.80722017c-.40506329 0-.50632912.17790614-.53164557.22873646 1.07015173 4.34515757 3.4909212 8.23527051 6.9113924 11.10642601 2.5011709 2.4737719 5.7530658 4.0389785 9.2405063 4.4476534 3.4784354-.404054 6.7266957-1.9496431 9.2405064-4.3968231 3.4097625-2.8760185 5.8211184-6.76525041 6.8860759-11.10642598-.1125612-.1656928-.3081487-.25405035-.5063291-.22873646z" fill="#000" fill-rule="nonzero"/></g><g transform="translate(42.0253 69.3322)"><ellipse cx="91.443038" cy="31.515191" fill="#febbd0" rx="14.810127" ry="8.742816"/><ellipse cx="14.810127" cy="31.515191" fill="#febbd0" rx="14.810127" ry="8.742816"/><path d="m21.7721519 28.0079213c5.6442849.0102605 10.7384949-3.395117 12.9055709-8.627139 2.167076-5.2320221.9798844-11.25945037-3.0076076-15.26976755-3.987492-4.01031719-9.9893447-5.21308455-15.2049747-3.04706703-5.21563 2.16601753-8.61703923 7.2738951-8.61703923 12.94019588 0 7.7241457 6.22991643 13.9897361 13.92405063 14.0037777zm62.7088608-.0000232c5.6510266.0411848 10.768469-3.3444842 12.9595092-8.5739331 2.1910402-5.229449 1.0227171-11.26931135-2.9586837-15.29546329-3.9814009-4.02615194-9.9891339-5.24300478-15.2140982-3.08158145-5.2249643 2.16142334-8.6348525 7.27401431-8.6348525 12.94722334-.0140363 7.7002578 6.1778745 13.961766 13.8481252 14.0037545z" fill="#000" fill-rule="nonzero"/><path d="m17.4683544 14.8937361c2.1218607.0102288 4.0404956-1.2650126 4.8596092-3.2300536.8191136-1.96504099.3770286-4.23202039-1.1197336-5.74191258-1.4967623-1.50989218-3.75277-1.96467362-5.7141228-1.15189191-1.9613529.81278171-3.2409426 2.73269915-3.2409426 4.86285765 0 2.89563984 2.3308297 5.24695004 5.2151898 5.26100044zm62.7088608 0c2.1218607.0102288 4.0404956-1.2650126 4.8596091-3.2300536.8191136-1.96504099.3770287-4.23202039-1.1197336-5.74191258-1.4967623-1.50989218-3.7527699-1.96467362-5.7141228-1.15189191s-3.2409426 2.73269915-3.2409426 4.86285765c-.0003009 2.87601904 2.3000086 5.21925724 5.164557 5.26100044z" fill="#fff"/></g></g></svg>