<svg height="200" viewBox="0 0 200 200" width="200" xmlns="http://www.w3.org/2000/svg"><path d="m39.2 133 39.4-22 .6-2-.6-1h-2l-6.6-.4-22.4-.6-19.6-1-19-1-4.8-1-4.2-6 .4-3 4-2.6 5.8.4 12.6 1 19 1.2 13.8.8 20.4 2.4h3.2l.4-1.4-1-.8-.8-.8-19.8-13.2-21.2-14-11.2-8.2-6-4-3-4-1.2-8.4 5.4-6 7.4.6 1.8.4 7.4 5.8 16 12.2 20.6 15.6 3 2.4 1.2-.8.2-.6-1.4-2.2-11-20.8-12-20.8-5.4-8.6-1.4-5.2c-.6-2-.8-4-.8-6l6-8.4 3.6-1 8.4 1.2 3.2 2.8 5.2 12 8.2 18.6 13 25.2 4 7.6 2 6.8.6 2h1.4v-1l1-14.4 2-17.4 2-22.4.6-6.4 3.2-7.6 6-4 5.2 2.2 4 5.8-.6 3.6-2.2 15.4-5.2 24.2-3 16.4h1.8l2-2.2 8.2-10.8 13.8-17.2 6-7 7.2-7.4 4.6-3.6h8.6l6.2 9.4-2.8 9.8-8.8 11.2-7.4 9.4-10.6 14.2-6.4 11.4.6.8h1.4l24-5.2 12.8-2.2 15.2-2.6 7 3.2.8 3.2-2.8 6.8-16.4 4-19.2 4-28.6 6.6-.4.2.4.6 12.8 1.2 5.6.4h13.6l25.2 2 6.6 4 3.8 5.4-.6 4-10.2 5.2-13.6-3.2-32-7.6-10.8-2.6h-1.6v.8l9.2 9 16.6 15 21.2 19.4 1 4.8-2.6 4-2.8-.4-18.4-14-7.2-6-16-13.6h-1v1.4l3.6 5.4 19.6 29.4 1 9-1.4 2.8-5.2 2-5.4-1.2-11.6-16-12-18-9.4-16.4-1 .8-5.8 60.4-2.6 3-6 2.4-5-4-2.8-6 2.8-12.4 3.2-16 2.6-12.8 2.4-15.8 1.4-5.2v-.4h-1.4l-12 16.6-18 24.6-14.4 15.2-3.4 1.4-6-3 .6-5.6 3.2-4.6 20-25.6 12-15.8 8-9.2-.2-1h-.6l-52.8 34.4-9.4 1.2-4-4 .4-6 2-2 16-11z" fill="#d97757" fill-rule="evenodd"/></svg>