<svg height="200" viewBox="0 0 134 200" width="134" xmlns="http://www.w3.org/2000/svg"><g fill="none" fill-rule="evenodd"><path d="m0 166.666667c0-18.409445 14.9985083-33.333334 33.5-33.333334h33.5v33.333334c0 18.409444-14.9985083 33.333333-33.5 33.333333s-33.5-14.923889-33.5-33.333333" fill="#24cb71"/><path d="m67 0v66.6666667h33.5c18.501492 0 33.5-14.9238889 33.5-33.3333334 0-18.4094444-14.998508-33.3333333-33.5-33.3333333z" fill="#ff7237"/><ellipse cx="100.220833" cy="100" fill="#00b6ff" rx="33.5" ry="33.333333"/><path d="m0 33.3333333c0 18.4094445 14.9985083 33.3333334 33.5 33.3333334h33.5v-66.6666667h-33.5c-18.5014917 0-33.5 14.9238889-33.5 33.3333333" fill="#ff3737"/><path d="m0 100c0 18.409444 14.9985083 33.333333 33.5 33.333333h33.5v-66.6666663h-33.5c-18.5014917 0-33.5 14.9238889-33.5 33.3333333" fill="#874fff"/></g></svg>