<svg height="123" viewBox="0 0 200 123" width="200" xmlns="http://www.w3.org/2000/svg" xmlns:xlink="http://www.w3.org/1999/xlink"><linearGradient id="a" x1="65.401776%" x2="37.868014%" y1="16.994292%" y2="89.627289%"><stop offset="0" stop-color="#3f8b3d"/><stop offset=".64" stop-color="#3f873f"/><stop offset=".93" stop-color="#3da92e"/><stop offset="1" stop-color="#3dae2b"/></linearGradient><linearGradient id="b" x1="45.354928%" x2="124.734453%" y1="53.428577%" y2="2.775588%"><stop offset=".14" stop-color="#3f873f"/><stop offset=".4" stop-color="#52a044"/><stop offset=".71" stop-color="#64b749"/><stop offset=".91" stop-color="#6abf4b"/></linearGradient><linearGradient id="c" x1=".225822%" x2="101.845838%" y1="49.015627%" y2="49.015627%"><stop offset=".09" stop-color="#6abf4b"/><stop offset=".29" stop-color="#64b749"/><stop offset=".6" stop-color="#52a044"/><stop offset=".86" stop-color="#3f873f"/></linearGradient><mask id="d" fill="#fff"><path d="m23.1899921.31397592c-.7467233-.41863456-1.6332609-.41863456-2.3797814 0l-19.64374066 11.30775568c-.74652055.4188356-1.16647004 1.2097795-1.16647004 2.0475511v22.6615351c0 .8377715.46658801 1.628615 1.16647004 2.0475511l19.64374066 11.3076552c.7465205.4186345 1.6330581.4186345 2.3797814 0l19.6435379-11.3076552c.7467233-.4189361 1.16647-1.2097796 1.16647-2.0475511v-22.6615351c0-.8377716-.4664866-1.6287155-1.16647-2.0475511z" fill="#fff" fill-rule="evenodd"/></mask><mask id="e" fill="#fff"><path d="m23.1899921.31397592c-.7467233-.41863456-1.6332609-.41863456-2.3797814 0l-19.64374066 11.30775568c-.74652055.4188356-1.16647004 1.2097795-1.16647004 2.0475511v22.6615351c0 .8377715.46658801 1.628615 1.16647004 2.0475511l19.64374066 11.3076552c.7465205.4186345 1.6330581.4186345 2.3797814 0l19.6435379-11.3076552c.7467233-.4189361 1.16647-1.2097796 1.16647-2.0475511v-22.6615351c0-.8377716-.4664866-1.6287155-1.16647-2.0475511z" fill="#fff" fill-rule="evenodd"/></mask><g fill="none" fill-rule="evenodd"><path d="m42.912598 41.3540311c0-.8220782-.4519794-1.5968425-1.176129-2.0088673l-19.1275712-11.1818402c-.3163856-.1823555-.6779691-.274026-1.0395526-.3193685h-.1807918c-.3615835 0-.723167.137013-1.0405352.3193685l-19.17178659 11.1384692c-.73225575.4207782-1.18173254 1.2046977-1.17618077 2.0512526l.04524973 29.9437537c0 .4100534.22598969.8210925.58757321 1.0034479.36158351.2286837.81454546.2286837 1.12994847 0l11.39577605-6.5726825c.7218186-.4100737 1.1703033-1.1757246 1.1761289-2.0078816v-14.0127856c0-.8210925.4519794-1.5968425 1.1751464-2.0078816l4.8381446-2.8299597c.3533018-.2177374.761573-.3289424 1.176129-.3203542.4067815 0 .8135629.0916706 1.1299485.3203542l4.8391272 2.828974c.7217429.4105015 1.1698725 1.1765618 1.1751464 2.0088673v14.0137714c0 .8210924.4519794 1.5968424 1.1761289 2.0078815l11.3043976 6.5726825c.3615835.2286837.8135629.2286837 1.176129 0 .3615835-.1823554.5875732-.5933945.5875732-1.0034479zm92.15565-41.2172645c-.362566-.18235547-.814546-.18235547-1.130931 0-.361584.22769791-.587573.59339456-.587573 1.00443364v29.66972766c-.004222.2966715-.157634.5711-.407764.7294219-.25425.1359835-.559314.1359835-.813563 0l-4.792947-2.7846173c-.714202-.410633-1.591876-.410633-2.306077 0l-19.17277 11.1847973c-.72144.4103261-1.169522 1.1759292-1.175146 2.0078816v22.3193237c0 .8220781.451979 1.5978281 1.175146 2.0088672l19.17277 11.182826c.714201.410633 1.591875.410633 2.306077 0l19.172769-11.182826c.721743-.4105015 1.169873-1.1765617 1.175147-2.0088672v-55.64108929c0-.86742061-.45198-1.64317063-1.175147-2.05420971zm-1.763702 56.7825359c0 .2286836-.090396.4110391-.271188.5027097l-6.557631 3.8343934c-.185348.0910312-.402226.0910312-.587574 0l-6.556648-3.8343934c-.180792-.0916706-.271188-.3203542-.271188-.5027097v-7.6687867c0-.2276979.090396-.4100534.271188-.501724l6.556648-3.8343934c.185348-.0910312.402226-.0910312.587574 0l6.557631 3.8343934c.180792.0916706.271188.3193685.271188.5027097zm65.564523-7.8511422c.72415-.4110391 1.130931-1.1867891 1.130931-2.0088673v-5.4312358c0-.8220782-.451979-1.5968425-1.130931-2.0078816l-19.037175-11.1384692c-.714202-.410633-1.591876-.410633-2.306078 0l-19.171787 11.1838116c-.721818.4100738-1.170303 1.1757246-1.176128 2.0078816v22.3212951c0 .8210925.451979 1.5968425 1.176128 2.0078816l19.036193 10.955128c.72415.4100534 1.582911.4100534 2.26088 0l11.53137-6.4819977c.361583-.1823554.587573-.5933945.587573-1.0044336s-.22599-.8210925-.587573-1.0034479l-19.263165-11.1838117c-.361584-.2276979-.587574-.5933945-.587574-1.0034479v-6.9837216c0-.4110391.22599-.8220782.587574-1.0054193l6.014273-3.4677111c.358929-.2273783.816218-.2273783 1.175147 0l6.014273 3.4686968c.361584.2276979.587573.5933945.587573 1.0044336v5.477564c0 .4100534.22599.8210925.588556 1.0034479.361584.2286837.813563.2286837 1.175147 0z" fill="#fff"/><path d="m178.38556 48.0193699c.137495-.0905562.315466-.0905562.452961 0l3.662016 2.1448946c.135594.0906849.225993.2276979.225993.4110391v4.2897892c.000563.1669924-.084897.3224313-.225993.4110391l-3.662016 2.1458803c-.137495.0905562-.315466.0905562-.452961 0l-3.662016-2.1458803c-.141096-.0886078-.226556-.2440467-.225993-.4110391v-4.2888035c0-.1823555.090399-.3203542.225993-.4110391z" fill="#5fa04e"/><g transform="translate(52 28)"><path d="m23.1899921.31397592c-.7467233-.41863456-1.6332609-.41863456-2.3797814 0l-19.64374066 11.30775568c-.74652055.4188356-1.16647004 1.2097795-1.16647004 2.0475511v22.6615351c0 .8377715.46658801 1.628615 1.16647004 2.0475511l19.64374066 11.3076552c.7465205.4186345 1.6330581.4186345 2.3797814 0l19.6435379-11.3076552c.7467233-.4189361 1.16647-1.2097796 1.16647-2.0475511v-22.6615351c0-.8377716-.4664866-1.6287155-1.16647-2.0475511z" fill="url(#a)"/><path d="m22.0001024-1.15638805 21.8049486 13.05832845-21.8049486 39.3155416-21.8452037-13.0811826z" fill="url(#b)" mask="url(#d)"/><path d="m22.0001024-1.15638805-21.8452037 13.05832845 21.8452037 39.3155416 21.8049486-13.0811826z" fill="url(#c)" mask="url(#e)"/></g><g fill="#5fa04e" transform="translate(76.8722 73.3138)"><path d="m21.8414183 49.6861975c-.6653077-.0035976-1.3188163-.1765696-1.899296-.5027097l-6.0142736-3.6057098c-.9049413-.5027096-.4519794-.6850651-.1807918-.77575 1.2203444-.4110391 1.4463341-.5027096 2.712859-1.2321315.1355938-.0916706.3163855-.0463282.4519793.0453424l4.6121549 2.7846173c.1807918.0906849.4067815.0906849.5423753 0l18.0428207-10.5450746c.1798092-.0906849.2721702-.2730404.2721702-.501724v-21.0418497c0-.2286836-.092361-.4110391-.2721702-.5027097l-18.0428207-10.49776073c-.1807917-.09167059-.4067814-.09167059-.5423753 0l-18.04183812 10.49776073c-.18079175.0916706-.27118763.3193685-.27118763.5027097v21.0418497c0 .1833412.09039588.4110391.27118763.5027097l4.92854048 2.8753022c2.66766094 1.3701302 4.34096724-.2286836 4.34096724-1.8255261v-20.7688094c0-.274026.2259897-.5480521.5433579-.5480521h2.3060774c.2711876 0 .5423753.2286836.5423753.5480521v20.7688094c0 3.6057097-1.944494 5.7052619-5.3363045 5.7052619-1.03955261 0-1.85311551 0-4.16017552-1.140461l-4.74774872-2.7392748c-1.17847859-.6928673-1.90161383-1.9613678-1.89930156-3.3316837v-21.0438211c0-1.3701303.72415514-2.6476043 1.89930156-3.3316838l18.04282074-10.54408888c1.1299485-.6397227 2.6676609-.6397227 3.7976094 0l18.0428207 10.54310318c1.1784042.693293 1.9011852 1.9622036 1.898322 3.3326695v21.0428354c0 1.3701302-.7231755 2.6476042-1.898322 3.3326694l-18.0428207 10.5440889c-.5423753.2286836-1.2203443.4110391-1.8983134.4110391"/><path d="m27.4489104 35.2160446c-7.9145521 0-9.5426605-3.6520379-9.5426605-6.7560237 0-.2730404.2259897-.5470664.5423753-.5470664h2.3512754c.2721702 0 .4981598.1823555.4981598.4563815.3615836 2.4189207 1.4011362 3.6057098 6.1950654 3.6057098 3.798592 0 5.4267003-.8674206 5.4267003-2.9206446 0-1.1867892-.4539445-2.0542098-6.3768396-2.6476043-4.9285405-.5027097-8.0039655-1.5978282-8.0039655-5.5692346 0-3.6963946 3.075425-5.8886031 8.2299552-5.8886031 5.7892664 0 8.6377192 2.0088673 8.9993027 6.3913128-.0037885.1469745-.0506032.2895817-.1346113.4100533-.092361.0916706-.2269722.1833412-.3645312.1833412h-2.3964733c-.2387958-.0092786-.4419407-.1775603-.4961948-.4110391-.5433578-2.5105912-1.9454765-3.3316837-5.65269-3.3316837-4.1601756 0-4.6573529 1.4598295-4.6573529 2.5559337 0 1.3228164.5875732 1.7348412 6.1950653 2.4642631 5.5613117.7304076 8.1847572 1.7801837 8.1847572 5.7052619 0 4.0177346-3.3014146 6.2996422-8.9973375 6.2996422m26.0477687-22.0926115c0 1.9171967-1.5838929 3.5150249-3.4841715 3.5150249-1.928532-.0070652-3.4866601-1.580322-3.4812381-3.5150249-.0048787-1.9343184 1.5530908-3.5069739 3.4812381-3.51403917 1.8550806 0 3.4841715 1.55150007 3.4841715 3.51403917m-6.4220375 0c0 1.6431706 1.3117227 2.9669728 2.892668 2.9669728 1.629091 0 2.9408138-1.3701303 2.9408138-2.9669728 0-1.6431706-1.3117228-2.9206446-2.9408138-2.9206446-1.5979074.0166919-2.886309 1.3175543-2.892668 2.9206446m1.6281083-1.9625391h1.3569208c.4519793 0 1.3569207 0 1.3569207 1.0497761 0 .7294218-.4539445.8674206-.7261147.9590912.5443404.0453424.5885557.4100533.6337537.912763.0451979.3193685.092361.8674206.1817743 1.0497761h-.815528c0-.1833412-.1346113-1.1867891-.1346113-1.2321316-.0442154-.2286836-.1346112-.3203542-.4057989-.3203542h-.6789516v1.5968425h-.768365zm.723167 1.7348412h.5865907c.4991424 0 .5885558-.3647109.5885558-.5480521 0-.5480521-.3615836-.5480521-.5885558-.5480521h-.630806v1.0961042z" fill-rule="nonzero"/></g></g></svg>