<svg height="151" viewBox="0 0 200 151" width="200" xmlns="http://www.w3.org/2000/svg"><path d="m172.094718 86.3387978c-6.958106.0364299-13.005465 1.712204-18.069217 4.1894354-1.857924-3.6794172-3.715847-6.9581057-4.043716-9.3624773-.364299-2.8051002-.801457-4.5173042-.364299-7.8688524.437159-3.3515483 2.404372-8.1238616 2.367942-8.4881603-.03643-.3642988-.437158-2.0765028-4.444444-2.1129326-4.007286-.0364299-7.468124.7650273-7.868853 1.8214936-.400728 1.0564663-1.165756 3.4608379-1.675774 5.9380692-.692168 3.6429873-8.014572 16.6484517-12.204007 23.4608379-1.347906-2.6593807-2.513661-4.9908925-2.768671-6.848816-.364298-2.8051002-.801457-4.5173042-.364298-7.8688525.437158-3.3515483 2.404371-8.1238616 2.367941-8.4881603-.036429-.3642987-.437158-2.0765027-4.444444-2.1129326s-7.468124.7650273-7.868852 1.8214936c-.400729 1.0564663-.837888 3.5336977-1.675775 5.9380693-.837887 2.4043715-10.564663 24.1165752-13.1147537 29.7267762-1.3114754 2.87796-2.4408015 5.173042-3.2422587 6.739526-.8014572 1.566485-.0364299.10929-.1457195.291439-.6921676 1.347905-1.0928961 2.076503-1.0928961 2.076503v.03643c-.5464481.983606-1.1293261 1.894353-1.4207651 1.894353-.2185792 0-.6193078-2.622951.0728598-6.193078 1.4571949-7.540984 4.9180328-19.2714028 4.8816029-19.6721314 0-.2185792.6557377-2.2586521-2.2586521-3.3151184-2.8415301-1.0564663-3.8615665.6921676-4.1165756.6921676s-.4371585.6193078-.4371585.6193078 3.1693989-13.1876138-6.0473588-13.1876138c-5.7559199 0-13.6976321 6.3023679-17.6320583 11.985428-2.4772313 1.3479053-7.7595628 4.2258652-13.4061931 7.3224044-2.1493625 1.2021858-4.3715847 2.4043716-6.4480874 3.5336976-.1457195-.1457195-.291439-.3278688-.4371585-.4735883-11.147541-11.9125683-31.7668488-20.3278689-30.8925319-36.3205829.3278689-5.8287796 2.3315119-21.129326 39.5992715-39.708561 30.6739526-15.1183971 55.0819671-10.9289618 59.3078321-1.6393443 6.047359 13.2604736-13.078324 37.8870674-44.772313 41.4571949-12.0947177 1.3479053-18.4335155-3.3151184-20.0364299-5.0637523-1.6757741-1.8214936-1.9307832-1.9307832-2.5500911-1.5664845-1.0200364.5464481-.3642987 2.1857924 0 3.1329691.9471767 2.4772313 4.8451731 6.848816 11.43898 8.9981785 5.8287796 1.8943533 20 2.9508196 37.1584699-3.6794172 19.1985431-7.4316939 34.2076501-28.0874316 29.7996361-45.3916211-4.408015-17.55919853-33.5519129-23.35154825-61.1293264-13.55191255-16.3934426 5.82877955-34.1712204 15.00910745-46.9581057 26.95810565-15.19125679 14.2076503-17.59562837 26.557377-16.61202181 31.7304189 3.53369763 18.3606558 28.85245901 30.309654 38.97996361 39.1621133-.5100183.291439-.9836066.546448-1.3843352.765027-5.0637523 2.513661-24.3715847 12.604736-29.18032787 23.278689-5.46448087 12.094717.87431694 20.765027 5.06375227 21.930783 13.0054645 3.606557 26.3752277-2.87796 33.5519126-13.588343 7.1766849-10.710382 6.3023679-24.626593 2.9872495-31.001821-.0364298-.07286-.0728597-.14572-.1457195-.218579 1.3114754-.765028 2.6593807-1.566485 3.9708561-2.331512 2.586521-1.530055 5.1366121-2.9508199 7.3224044-4.1165758-1.2386157 3.3879778-2.1493625 7.4316938-2.5865209 13.2604738-.5464481 6.848816 2.2586521 15.737705 5.9380692 19.234972 1.6393442 1.530055 3.5701275 1.566485 4.8087431 1.566485 4.298725 0 6.2295082-3.570128 8.3788707-7.795993 2.6229508-5.173042 4.9908926-11.183971 4.9908926-11.183971s-2.9508197 16.247724 5.0637522 16.247724c2.9143898 0 5.8652095-3.788707 7.1766849-5.71949v.036429s.0728598-.109289.2185792-.364298c.291439-.473589.4735884-.765028.4735884-.765028s0-.03643 0-.072859c1.1657559-2.040073 3.7887067-6.666667 7.6867026-14.35337 5.027323-9.9089255 9.872496-22.2950821 9.872496-22.2950821s.437158 3.0236794 1.930783 8.0510018c.874317 2.9508197 2.695811 6.1930783 4.153006 9.3260473-1.165756 1.639344-1.894354 2.550091-1.894354 2.550091s0 0 .03643.03643c-.947177 1.238616-1.967213 2.586521-3.096539 3.897996-3.970856 4.735884-8.70674 10.163935-9.362477 11.730419-.765028 1.857924-.582878 3.205829.874317 4.298725 1.056466.801457 2.950819.910747 4.881603.801457 3.570127-.255009 6.083788-1.129326 7.322404-1.675774 1.930783-.692167 4.189435-1.748634 6.302368-3.315118 3.897996-2.87796 6.265938-6.994536 6.047359-12.422587-.10929-2.987249-1.092896-5.974499-2.295082-8.7795989.364299-.5100182.692167-1.0200364 1.056466-1.5300546 6.156649-8.9981785 10.928962-18.870674 10.928962-18.870674s.437158 3.0236794 1.930783 8.0510019c.728598 2.550091 2.222222 5.3187613 3.533698 8.0145719-5.79235 4.6994537-9.362478 10.1639347-10.637523 13.7340617-2.295082 6.630237-.510018 9.617487 2.87796 10.309654 1.530055.327869 3.715847-.400728 5.318761-1.092896 2.040073-.655738 4.444445-1.785064 6.739527-3.460838 3.897996-2.87796 7.650273-6.885246 7.431694-12.313297-.10929-2.477231-.765028-4.9180326-1.675774-7.2859743 4.918032-2.0400729 11.25683-3.1693989 19.344262-2.2222222 17.340619 2.0400728 20.765027 12.8597445 20.109289 17.4134795-.655737 4.553734-4.298725 7.030965-5.50091 7.795992-1.202186.765028-1.602915 1.020037-1.493625 1.566485.145719.801457.728597.765027 1.748634.619308 1.420765-.25501 9.107468-3.679418 9.435337-12.058288.546448-10.7103827-9.653916-22.4043718-27.686703-22.2950822zm-133.7704921 45.1001822c-5.7559199 6.265938-13.7704918 8.63388-17.2313297 6.630237-3.715847-2.149363-2.2586521-11.40255 4.8087431-18.032787 4.298725-4.043716 9.8360656-7.795993 13.5154827-10.091075.8378871-.510018 2.0765028-1.238615 3.5701275-2.149362.2550092-.14572.4007286-.21858.4007286-.21858l.874317-.546448c2.5865209 9.471767.1092896 17.814208-5.9380692 24.408015zm41.8943533-28.48816c-2.003643 4.881603-6.1930783 17.377049-8.7431694 16.684881-2.1857923-.582878-3.5336976-10.054645-.4371584-19.417122 1.5664845-4.6994533 4.8816029-10.3096537 6.8123861-12.495446 3.1329691-3.4972678 6.5938069-4.6630237 7.431694-3.2422587 1.0564663 1.8579235-3.8251366 15.4098361-5.0637523 18.4699457zm34.5719488 16.539162c-.837887.437158-1.639344.728597-2.003643.510018-.255009-.145719.364299-.728597.364299-.728597s4.335155-4.663024 6.047359-6.775957c.983606-1.238615 2.149362-2.69581 3.387978-4.335155v.473589c0 5.57377-5.391621 9.326047-7.795993 10.856102zm26.666667-6.083789c-.619308-.437158-.510018-1.894353 1.566484-6.448087.801458-1.785064 2.695811-4.772314 5.93807-7.6502736.364298 1.1657556.619307 2.2950816.582878 3.3515486-.03643 7.030965-5.063753 9.653916-8.087432 10.746812z" fill="#cd6799"/></svg>