<svg height="122" viewBox="0 0 200 122" width="200" xmlns="http://www.w3.org/2000/svg"><path d="m100 0c-26.6666667 0-43.3333333 13.3090909-50 39.9272727 10-13.3090909 21.6666667-18.3 35-14.9727272 7.6074074 1.8965454 13.0444444 7.4087272 19.062963 13.5050303 9.803704 9.9337575 21.151852 21.4313333 45.937037 21.4313333 26.666667 0 43.333333-13.3090909 50-39.9272727-10 13.3090909-21.666667 18.3-35 14.9727272-7.607407-1.8965454-13.044444-7.4087272-19.062963-13.5050303-9.803704-9.9337575-21.151852-21.4313333-45.937037-21.4313333zm-50 59.8909091c-26.6666667 0-43.33333333 13.3090909-50 39.9272727 10-13.3090909 21.6666667-18.3 35-14.9727273 7.6074074 1.9002425 13.0444444 7.4087273 19.062963 13.5050303 9.8037037 9.9337572 21.1518518 21.4313332 45.937037 21.4313332 26.666667 0 43.333333-13.309091 50-39.9272725-10 13.3090909-21.666667 18.3-35 14.9727272-7.607407-1.8965454-13.044444-7.4087272-19.062963-13.5050303-9.8037037-9.9337576-21.1518518-21.4313333-45.937037-21.4313333z" fill="#38bdf8" fill-rule="evenodd"/></svg>