<?xml version="1.0" standalone="no"?>
<!DOCTYPE svg PUBLIC "-//W3C//DTD SVG 20010904//EN"
 "http://www.w3.org/TR/2001/REC-SVG-20010904/DTD/svg10.dtd">
<svg version="1.0" xmlns="http://www.w3.org/2000/svg"
 width="1008.000000pt" height="1008.000000pt" viewBox="0 0 1008.000000 1008.000000"
 preserveAspectRatio="xMidYMid meet">
<metadata>
Created by potrace 1.11, written by Peter Selinger 2001-2013
</metadata>
<g transform="translate(0.000000,1008.000000) scale(0.100000,-0.100000)"
fill="#000000" stroke="none">
<path d="M787 10064 c-301 -54 -552 -244 -687 -519 -27 -55 -60 -140 -72 -190
l-23 -90 0 -4225 0 -4225 23 -90 c30 -119 106 -271 183 -368 123 -154 320
-280 514 -329 l90 -23 4225 0 4225 0 90 23 c194 49 391 175 514 329 77 97 153
249 183 368 l23 90 0 4225 0 4225 -23 90 c-49 194 -175 391 -329 514 -94 75
-247 152 -363 183 l-85 23 -4205 2 c-3576 1 -4217 -1 -4283 -13z m8435 -495
c172 -36 311 -175 347 -347 16 -76 16 -8288 0 -8364 -36 -172 -175 -311 -347
-347 -76 -16 -8288 -16 -8364 0 -172 36 -311 175 -347 347 -16 76 -16 8288 0
8364 18 87 58 158 123 224 65 64 128 100 211 120 69 17 8297 20 8377 3z"/>
<path d="M1170 3296 l0 -2286 446 0 446 0 -5 1053 c-3 676 -9 1110 -16 1215
-7 90 -11 172 -9 184 2 15 28 -15 98 -113 184 -259 320 -422 799 -958 l483
-541 42 0 42 0 309 347 c611 684 663 743 762 869 55 71 149 197 208 279 l107
150 -6 -90 c-21 -289 -26 -577 -26 -1436 l0 -956 92 -7 c117 -8 703 -8 830 1
l96 6 105 251 104 251 919 3 920 2 104 -255 105 -255 488 0 c268 0 487 2 487
5 0 3 -463 1028 -1029 2278 l-1030 2272 -43 3 -43 3 -600 -1379 -600 -1378 -3
1383 -2 1383 -43 0 -42 -1 -1095 -1223 -1095 -1224 -32 32 c-18 17 -520 566
-1116 1221 -1036 1139 -1084 1190 -1120 1193 l-37 3 0 -2285z m5905 299 c89
-280 134 -397 334 -879 94 -226 169 -411 167 -413 -1 -2 -268 -2 -592 -1
l-590 3 183 440 c170 410 281 716 379 1050 l27 90 13 -40 c6 -22 42 -134 79
-250z"/>
</g>
</svg>
