<?xml version="1.0" standalone="no"?>
<!DOCTYPE svg PUBLIC "-//W3C//DTD SVG 20010904//EN"
 "http://www.w3.org/TR/2001/REC-SVG-20010904/DTD/svg10.dtd">
<svg version="1.0" xmlns="http://www.w3.org/2000/svg"
 width="1100.000000pt" height="1100.000000pt" viewBox="0 0 1100.000000 1100.000000"
 preserveAspectRatio="xMidYMid meet">
<metadata>
Created by potrace 1.11, written by Peter Selinger 2001-2013
</metadata>
<g transform="translate(0.000000,1100.000000) scale(0.100000,-0.100000)"
fill="#000000" stroke="none">
<path d="M1231 10529 c-359 -76 -643 -348 -733 -704 l-23 -90 0 -4225 0 -4225
23 -90 c30 -119 106 -271 183 -368 123 -154 320 -280 514 -329 l90 -23 4225 0
4225 0 90 23 c194 49 391 175 514 329 77 97 153 249 183 368 l23 90 0 4225 0
4225 -23 90 c-49 194 -175 391 -329 514 -94 75 -246 152 -363 183 l-85 23
-4210 2 c-4166 2 -4211 1 -4304 -18z m8461 -490 c171 -36 310 -175 347 -347
16 -76 16 -8288 0 -8364 -37 -172 -175 -310 -347 -347 -76 -16 -8288 -16
-8364 0 -172 37 -311 176 -347 347 -16 76 -16 8288 0 8364 18 87 58 158 123
224 65 64 128 100 211 120 69 17 8297 20 8377 3z"/>
<path d="M1660 3765 l0 -2285 446 0 446 0 -5 1053 c-3 676 -9 1110 -16 1215
-16 219 -16 220 38 141 76 -109 296 -400 362 -480 35 -41 268 -303 517 -582
l454 -507 42 0 41 0 474 530 c493 552 614 696 801 959 l112 156 -6 -90 c-21
-299 -26 -570 -26 -1431 l0 -961 92 -7 c117 -8 703 -8 830 1 l96 6 105 251
104 251 919 3 920 2 104 -255 105 -255 488 0 c268 0 487 2 487 5 0 3 -463
1028 -1029 2278 l-1030 2272 -43 3 -43 3 -602 -1383 -603 -1383 0 1388 0 1388
-43 -3 -44 -3 -1096 -1222 -1096 -1223 -204 223 c-111 122 -613 673 -1115
1225 -876 962 -914 1002 -947 1002 l-35 0 0 -2285z m5905 300 c89 -280 133
-397 334 -880 94 -225 169 -410 167 -412 -1 -2 -268 -2 -592 -1 l-590 3 183
440 c170 410 281 716 379 1050 l27 90 13 -40 c6 -22 42 -134 79 -250z"/>
</g>
</svg>
