<?xml version="1.0" standalone="no"?>
<!DOCTYPE svg PUBLIC "-//W3C//DTD SVG 20010904//EN"
 "http://www.w3.org/TR/2001/REC-SVG-20010904/DTD/svg10.dtd">
<svg version="1.0" xmlns="http://www.w3.org/2000/svg"
 width="700.000000pt" height="700.000000pt" viewBox="0 0 700.000000 700.000000"
 preserveAspectRatio="xMidYMid meet">
<metadata>
Created by potrace 1.11, written by Peter Selinger 2001-2013
</metadata>
<g transform="translate(0.000000,700.000000) scale(0.100000,-0.100000)"
fill="#000000" stroke="none">
<path d="M525 6985 c-241 -53 -402 -200 -498 -453 l-22 -57 -2 -2950 c-2
-2871 -1 -2952 17 -3023 55 -210 190 -367 390 -452 120 -51 -19 -49 3110 -46
1609 1 2941 5 2960 9 253 56 460 270 509 527 7 37 10 994 8 2990 l-2 2935 -28
80 c-73 206 -212 346 -416 419 l-86 31 -2940 2 c-2409 1 -2951 -1 -3000 -12z
m5928 -355 c79 -30 147 -98 176 -175 l23 -60 0 -2892 c0 -3050 2 -2923 -45
-3003 -39 -66 -130 -132 -200 -144 -21 -4 -1335 -7 -2920 -7 -2571 0 -2887 1
-2925 15 -91 32 -160 100 -193 186 l-21 55 0 2900 0 2900 25 56 c27 60 86 128
135 153 81 42 1 41 3008 40 l2879 -2 58 -22z"/>
<path d="M816 3873 c-3 -4 -6 -719 -6 -1590 l0 -1583 311 0 311 0 -6 778 c-3
427 -8 815 -11 862 l-7 85 82 -115 c82 -115 239 -313 302 -381 18 -19 62 -68
98 -108 36 -41 70 -79 75 -85 6 -6 87 -96 180 -201 93 -104 182 -203 197 -219
34 -38 79 -40 109 -5 11 13 51 58 88 99 60 67 201 224 415 465 183 204 227
259 366 454 76 106 71 104 65 31 -16 -212 -29 -1627 -15 -1651 5 -8 153 -11
530 -9 l175 0 73 178 72 177 635 0 c410 0 637 -4 643 -10 5 -6 39 -85 77 -177
l69 -168 338 0 c186 0 338 2 338 4 0 5 -237 529 -330 731 -18 39 -62 135 -97
215 -59 131 -86 191 -193 425 -18 39 -49 108 -70 155 -21 47 -51 114 -68 150
-16 36 -71 157 -122 270 -51 113 -105 232 -120 265 -15 33 -81 177 -145 320
-64 143 -130 287 -145 320 -35 76 -79 172 -115 253 -26 58 -30 63 -57 60 -26
-3 -33 -11 -59 -71 -16 -38 -36 -83 -43 -100 -8 -18 -101 -230 -206 -472 -105
-242 -197 -453 -205 -470 -23 -51 -228 -522 -291 -668 l-59 -137 -5 962 -5
961 -23 2 c-27 2 -24 4 -108 -91 -34 -38 -73 -81 -85 -95 -31 -33 -143 -158
-260 -289 -51 -58 -98 -110 -104 -116 -5 -6 -39 -44 -75 -84 -36 -40 -78 -88
-95 -106 -33 -35 -49 -53 -175 -194 -46 -52 -89 -100 -95 -106 -10 -11 -125
-141 -157 -177 -9 -10 -48 -53 -85 -95 -37 -41 -76 -84 -86 -96 -25 -28 -154
-171 -195 -215 l-33 -36 -46 50 c-80 88 -216 238 -263 290 -25 27 -48 52 -51
55 -3 3 -32 34 -64 70 -53 59 -122 135 -304 335 -36 38 -83 90 -105 115 -45
49 -234 257 -300 330 -23 25 -84 92 -136 150 -52 58 -118 130 -146 160 -29 30
-69 74 -90 98 -36 39 -74 59 -88 45z m4050 -1226 c29 -133 292 -825 384 -1009
18 -35 18 -38 2 -39 -61 -4 -795 -3 -802 1 -6 4 56 168 100 265 45 98 150 368
189 485 72 217 101 310 101 326 0 26 18 5 26 -29z"/>
</g>
</svg>
