<?xml version="1.0" standalone="no"?>
<!DOCTYPE svg PUBLIC "-//W3C//DTD svg 20010904//EN"
 "http://www.w3.org/TR/2001/REC-svg-20010904/DTD/svg10.dtd">
<svg version="1.0" xmlns="http://www.w3.org/2000/svg"
 width="486.000000pt" height="486.000000pt" viewBox="0 0 486.000000 486.000000"
 preserveAspectRatio="xMidYMid meet">
<metadata>
Created by potrace 1.11, written by Peter Selinger 2001-2013
</metadata>
<g transform="translate(0.000000,486.000000) scale(0.100000,-0.100000)"
fill="#000000" stroke="none">
<path d="M21 3850 c-4 -3 -7 -645 -7 -1427 l0 -1423 348 0 348 0 2 1068 3
1067 22 -115 c12 -63 25 -128 28 -145 2 -16 7 -39 9 -50 4 -22 32 -174 40
-218 8 -42 26 -139 31 -167 7 -37 126 -671 131 -700 6 -33 38 -208 63 -340 11
-58 22 -121 26 -140 3 -19 9 -55 14 -80 6 -25 15 -75 22 -113 l13 -67 267 0
268 0 10 53 c6 28 26 138 46 242 53 288 64 347 70 385 3 19 10 53 15 75 5 22
11 56 15 75 3 19 10 58 15 85 5 28 11 61 14 75 2 14 13 75 25 135 11 61 23
126 26 145 3 19 10 53 15 75 5 22 11 56 14 75 8 49 14 81 37 200 22 116 44
236 53 290 3 19 9 46 12 60 3 14 10 56 17 94 6 37 13 61 16 53 4 -9 6 -489 5
-1067 l-1 -1050 634 0 c596 0 633 1 634 18 0 9 2 24 4 32 1 8 15 96 30 195 15
99 29 187 30 195 2 8 4 25 4 38 l1 22 299 0 298 0 8 -57 c4 -32 8 -65 10 -73
3 -18 46 -297 50 -325 1 -11 3 -26 4 -32 1 -10 87 -13 396 -13 234 0 395 4
395 9 0 5 -7 37 -16 70 -8 34 -17 70 -20 81 -5 26 0 2 -99 408 -47 193 -88
360 -90 370 -2 9 -12 46 -20 82 -9 36 -18 72 -20 80 -9 43 -41 173 -105 435
-40 160 -73 297 -75 305 -2 8 -40 166 -85 350 -45 184 -83 340 -84 345 -1 6
-19 80 -40 165 l-38 156 -468 0 -469 0 -35 -146 c-19 -80 -52 -212 -72 -295
-19 -82 -37 -157 -39 -165 -10 -46 -81 -345 -130 -545 -30 -126 -85 -358 -122
-515 l-68 -285 -5 975 -5 976 -527 -1 c-289 0 -529 -2 -531 -5 -3 -3 -8 -25
-12 -50 -3 -25 -10 -63 -15 -85 -5 -22 -11 -60 -15 -85 -3 -25 -8 -52 -11 -61
-2 -9 -7 -32 -9 -50 -3 -19 -14 -83 -25 -144 -11 -60 -23 -126 -26 -145 -3
-19 -7 -46 -10 -60 -20 -107 -35 -192 -40 -230 -3 -25 -8 -48 -10 -51 -3 -5
-7 -28 -18 -96 -26 -159 -109 -619 -112 -622 -7 -8 -12 4 -17 44 -6 47 -24
150 -106 610 -34 187 -63 352 -66 368 -4 24 -14 80 -30 167 -2 14 -6 36 -9 50
-21 118 -26 149 -31 175 -27 160 -47 260 -51 265 -7 7 -1042 7 -1053 0z m3676
-600 c1 -11 9 -57 17 -102 23 -126 25 -139 32 -188 3 -25 7 -52 9 -60 2 -8 6
-28 9 -45 3 -16 19 -113 36 -215 18 -102 33 -198 36 -215 2 -16 17 -103 32
-193 15 -89 26 -165 23 -167 -2 -3 -96 -5 -207 -5 -188 0 -203 1 -200 18 12
65 16 92 21 127 4 22 8 47 10 55 3 8 11 60 20 115 8 55 17 109 19 120 2 11 7
40 12 65 4 25 8 47 9 50 1 3 5 30 9 60 5 30 10 64 12 75 2 11 13 74 25 140 26
153 27 162 34 209 4 21 8 48 11 59 2 12 6 39 10 61 8 55 18 73 21 36z"/>
</g>
</svg>
