<svg height="200" viewBox="0 0 178 200" width="178" xmlns="http://www.w3.org/2000/svg" xmlns:xlink="http://www.w3.org/1999/xlink"><linearGradient id="a"><stop offset="0" stop-color="#d1d3d4"/><stop offset=".388" stop-color="#d1d3d4"/><stop offset="1" stop-color="#d1d3d4"/></linearGradient><linearGradient id="b" x1="50%" x2="50%" xlink:href="#a" y1="-.00014%" y2="100%"/><linearGradient id="c" x1="50%" x2="50%" xlink:href="#a" y1="-.000269%" y2="100%"/><linearGradient id="d"><stop offset="0" stop-color="#e8e7e5"/><stop offset="1" stop-color="#fff"/></linearGradient><linearGradient id="e" x1=".000175%" x2="100%" xlink:href="#d" y1="50%" y2="50%"/><linearGradient id="f" x1="-.000161%" x2="100%" xlink:href="#d" y1="50%" y2="50%"/><mask id="g" fill="#fff"><path d="m0 0h51.8718519v43.022443h-51.8718519z" fill="#fff" fill-rule="evenodd"/></mask><mask id="h" fill="#fff"><path d="m0 0h55.5468555v44.7126447h-55.5468555z" fill="#fff" fill-rule="evenodd"/></mask><g fill="none" fill-rule="evenodd"><path d="m161.110361 180.553381-72.2214721 19.446619-72.2226722-19.446619-16.6662167-180.553381h177.778378z" fill="#2062af"/><path d="m88.8876889 14.6244146v169.8655694l.1638002.044401 58.4454579-15.737416 13.491014-154.1725544z" fill="#3c9cd7"/><path d="m88.8240888 59.7702598-51.6918517 21.5280215 1.7142017 21.3144217 49.97765-21.3684218 53.1624532-22.7298227 2.204402-21.8034218z" fill="#fff"/><path d="m.09000009 21.6180216 1.71420171 21.3144213 49.97705-21.3684213v-21.47402151z" fill="url(#b)" mask="url(#g)" transform="translate(37.042237 59.68026)"/><path d="m55.4568555.09000009-55.36685541 23.05862301v21.4740215l53.16245321-22.7298227z" fill="url(#c)" mask="url(#h)" transform="translate(88.734089 36.621637)"/><path d="m37.2114372 81.2982813 1.7148017 21.3144217 76.6836771.2442-1.715402 28.419028-25.2330253 7.104007-24.2568243-6.124806-1.4700015-17.639417h-22.5384225l2.9400029 34.053634 45.5700456 13.474213 45.3228451-13.230013 5.880006-67.6152677z" fill="url(#e)"/><path d="m88.8240888 81.2982813h-51.6912517l1.7142017 21.3144217 49.97705.1596zm0 57.0132567-.2448002.0684-24.2532243-6.124806-1.4700014-17.639417h-22.5378226l2.939403 34.053634 45.5664455 13.474213z" fill="#000" fill-opacity=".05098"/><path d="m32.4774325 36.7116367h111.7135115l-2.204402 21.8034218h-106.8145068z" fill="url(#f)"/><path d="m88.8240888 36.7116367h-56.3466563l2.6946027 21.8034218h53.6520536z" fill="#000" fill-opacity=".05098"/></g></svg>