<svg height="37" viewBox="0 0 474 37" width="474" xmlns="http://www.w3.org/2000/svg"><g fill="none" fill-rule="evenodd"><path d="m0 0h474v37h-474z" fill="#efefef"/><g fill="#cdcdcd" fill-rule="nonzero"><circle cx="22.5" cy="18.5" r="4.5"/><circle cx="37.5" cy="18.5" r="4.5"/><circle cx="52.5" cy="18.5" r="4.5"/></g><path d="m437 8h21v21h-21z"/><path d="m440.5 23.75h14c.48125 0 .875-.39375.875-.875s-.39375-.875-.875-.875h-14c-.48125 0-.875.39375-.875.875s.39375.875.875.875zm0-4.375h14c.48125 0 .875-.39375.875-.875s-.39375-.875-.875-.875h-14c-.48125 0-.875.39375-.875.875s.39375.875.875.875zm-.875-5.25c0 .48125.39375.875.875.875h14c.48125 0 .875-.39375.875-.875s-.39375-.875-.875-.875h-14c-.48125 0-.875.39375-.875.875z" fill="#cdcdcd" fill-rule="nonzero"/></g></svg>