<svg height="18" viewBox="0 0 16 18" width="16" xmlns="http://www.w3.org/2000/svg"><g fill="currentColor"><path d="m5.96923077 4.12258065c.06153846 1.1032258-.8 2.03225806-1.96923077 2.09032258-1.16923077.05806451-2.15384615-.75483871-2.21538462-1.85806452-.06153846-1.10322581.86153847-2.03225806 1.96923077-2.09032258 1.16923077-.05806452 2.15384616.75483871 2.21538462 1.85806452"/><path d="m15.5076923 4.64516129c.0615385 1.10322581-.8 2.03225806-1.9692308 2.09032258-1.1692307.05806452-2.1538461-.75483871-2.2153846-1.85806452-.0615384-1.1032258.8-2.03225806 1.9692308-2.09032258 1.1692308-.05806451 2.1538461.81290323 2.2153846 1.85806452"/><path d="m15.5076923 8.88387097c.0615385.92903226-.6769231 1.74193553-1.6615385 1.80000003-.9846153.0580645-1.8461538-.6387097-1.9076923-1.56774197-.0615384-.92903226.6769231-1.74193548 1.6615385-1.8.9846154-.05806451 1.8461538.63870968 1.9076923 1.56774194"/><path d="m11.3230769 10.8580645c.0615385.7548387-.5538461 1.4516129-1.41538459 1.5096774-.8.0580646-1.53846154-.5225806-1.6-1.3354838-.06153846-.7548387.55384615-1.45161294 1.41538461-1.50967745.86153848 0 1.53846158.58064515 1.59999998 1.33548385"/><path d="m7.13846154 10.6258065c.06153846.6387096-.49230769 1.1612903-1.10769231 1.1612903-.67692308.0580645-1.23076923-.4064516-1.23076923-1.0451613-.06153846-.6387097.49230769-1.16129034 1.10769231-1.16129034.67692307-.05806451 1.23076923.40645161 1.23076923 1.04516134"/><path d="m11.3230769 2.09032258c.0615385 1.21935484-.9230769 2.32258065-2.21538459 2.38064516-1.29230769.05806452-2.46153846-.87096774-2.52307693-2.09032258-.06153846-1.21935484.92307693-2.32258064 2.21538462-2.38064516 1.3538462-.05806452 2.4615385.87096774 2.5230769 2.09032258"/><path d="m7.75384615 15.3870968c.06153847.7548387-.55384615 1.4516129-1.41538461 1.5096774-.8.0580645-1.53846154-.5225807-1.6-1.3354839-.06153846-.7548387.55384615-1.4516129 1.41538461-1.5096774.86153847-.0580645 1.53846154.5225806 1.6 1.3354839"/><path d="m10.7076923 16.2580645c.0615385.6387097-.4923077 1.1612903-1.1076923 1.1612903-.67692308.0580646-1.23076923-.4645161-1.23076923-1.0451613-.06153846-.6387096.49230769-1.1612903 1.10769231-1.1612903.67692312-.0580645 1.23076922.4064516 1.23076922 1.0451613"/><path d="m13.6615385 15.7354839c-.1846154.4064516-.6769231.6387096-1.1692308.4645161-.4307692-.1741935-.6769231-.6387097-.4923077-1.1032258s.6769231-.6387097 1.1692308-.4645161c.4307692.232258.676923.6967742.4923077 1.1032258"/><path d="m14.8923077 14.2258065c-.1230769.2903225-.4923077.4064516-.8.348387-.3076923-.116129-.4307692-.4645161-.3692308-.7548387.1230769-.2903225.4923077-.4064516.8-.2903225.3076923.116129.4923077.4064516.3692308.6967742"/><path d="m5.35384615 12.8322581c.06153847.9290322-.67692307 1.7419354-1.66153846 1.8-.98461538.0580645-1.84615384-.6387097-1.90769231-1.567742-.06153846-.9290322.67692308-1.7419355 1.66153847-1.8 1.04615384-.0580645 1.84615384.6387097 1.9076923 1.567742"/><path d="m4.49230769 8.76774194c.06153846.98709677-.73846154 1.79999996-1.84615384 1.85806456-1.04615385.0580645-1.96923077-.69677424-2.03076923-1.6258065-.06153847-.92903226.73846153-1.8 1.84615384-1.85806452 1.04615385-.05806451 1.96923077.6967742 2.03076923 1.62580646"/></g></svg>