<svg height="200" viewBox="0 0 200 200" width="200" xmlns="http://www.w3.org/2000/svg"><path d="m196.228125 91.0890625-87.321875-87.3171875c-5.025781-5.02890625-13.1820312-5.02890625-18.2140625 0l-18.1328125 18.1328125 23.0023438 23.0023438c5.3453122-1.80625 11.4750002-.5945313 15.7359372 3.6664062 4.28125 4.2882813 5.484375 10.4703125 3.634375 15.8328125l22.167969 22.16875c5.363281-1.8476562 11.551563-.6523437 15.835156 3.6382813 5.986719 5.984375 5.986719 15.6835937 0 21.6718747-5.988281 5.989063-15.6875 5.989063-21.678906 0-4.503125-4.507812-5.615625-11.121093-3.335937-16.6687497l-20.673438-20.6734375-.002344 54.4039062c1.498654.741004 2.867414 1.71982 4.053125 2.898438 5.986719 5.984375 5.986719 15.684375 0 21.677343-5.988281 5.985938-15.6921872 5.985938-21.6718747 0-5.9867188-5.992968-5.9867188-15.692187 0-21.676562 1.4346782-1.435402 3.139676-2.572156 5.0164062-3.344531v-54.910938c-1.8794611-.7672374-3.585421-1.9046326-5.0164062-3.3445312-4.5359375-4.5296875-5.6265626-11.1851563-3.3023438-16.7546876l-22.675-22.6773437-59.875 59.8710938c-5.03125 5.0335937-5.03125 13.1906247 0 18.2203127l87.3234375 87.31875c5.0273438 5.029687 13.182031 5.029687 18.215625 0l86.914844-86.913281c5.029687-5.03125 5.029687-13.1929692 0-18.2218755" fill="#de4c36"/></svg>