<svg height="200" viewBox="0 0 200 200" width="200" xmlns="http://www.w3.org/2000/svg"><g fill="none"><path d="m0 0h200v200h-200z" fill="#f7df1e"/><path d="m134.349206 156.250794c4.028572 6.577777 9.269842 11.412698 18.539683 11.412698 7.787301 0 12.761905-3.892063 12.761905-9.269841 0-6.444445-5.111111-8.726984-13.68254-12.476191l-4.698413-2.015873c-13.561904-5.777777-22.571428-13.015873-22.571428-28.31746 0-14.095238 10.739682-24.8253968 27.523809-24.8253968 11.949207 0 20.539683 4.1587301 26.730159 15.0476188l-14.634921 9.396826c-3.222222-5.777778-6.698412-8.053969-12.095238-8.053969-5.504762 0-8.993651 3.492064-8.993651 8.053969 0 5.638095 3.492064 7.920635 11.555556 11.412698l4.698413 2.012698c15.968254 6.847619 24.984127 13.828572 24.984127 29.52381 0 16.920635-13.292064 26.190476-31.142857 26.190476-17.453969 0-28.730159-8.31746-34.24762-19.219047zm-66.3904758 1.628571c2.9523809 5.238095 5.6380952 9.666667 12.0952381 9.666667 6.1746031 0 10.0698412-2.415873 10.0698412-11.809524v-63.904762h18.7936505v64.15873c0 19.460318-11.4095235 28.317461-28.0634917 28.317461-15.0476191 0-23.7619048-7.787302-28.1936508-17.166667z" fill="#000"/></g></svg>