<svg height="60" viewBox="0 0 48 60" width="48" xmlns="http://www.w3.org/2000/svg"><g fill="none"><path d="m23.9103363 0c12.5529265 0 23.9103362 9.80851191 23.9103362 24.9781981 0 9.686667-7.3225405 21.0791622-21.9377335 34.2079467-1.1357409 1.0052202-2.8393524 1.0052202-3.9750934 0-14.58530508-13.1287845-21.9078456-24.5212797-21.9078456-34.2079467 0-15.16968619 11.3574098-24.9781981 23.9103363-24.9781981z" fill="#61dafb"/><g fill="#282c34" transform="translate(7 12)"><path d="m21.3228 20.7568681.9504-2.2931827h8.1972l.9504 2.2931827h4.3659l-9.2367-20.43017304h-.3564l-8.8803 20.43017304zm7.6626-5.7776291h-5.3163l1.4553-3.514228c.5643-1.3997349 1.1583-3.51422803 1.188-3.60357281.0422053.14812426.3543021 1.22842886.7338718 2.32218601l.0853772.2429052c.129485.3635696.264801.7210725.398451 1.0384816z"/><path d="m4.338 20.7568681v-7.5943063c0-.3261793-.00841838-.6979428-.02124634-1.0750927l-.00819388-.2266147c-.0432945-1.1330898-.11905978-2.2423022-.11905978-2.2423022s.58054743.8519157 1.25279577 1.7322285l.14023395.1822687c.25890651.3339118.52615597.6637379.77507028.9445358l4.0095 4.4970206h.3861l4.0095-4.4970206c.2489143-.2807979.5161638-.610624.7750703-.9445358l.1402339-.1822687c.6722484-.8803128 1.2527958-1.7322285 1.2527958-1.7322285s-.0757653 1.1092124-.1190598 2.2423022l-.0081939.2266147c-.0115452.3394349-.0195185.6745068-.0209978.9759116l-.0002485 7.6934874h4.0095v-20.45995464h-.3564l-9.801 10.95962634-9.9495-10.95962634h-.3267v20.45995464z"/></g></g></svg>