<svg height="80" viewBox="0 0 80 80" width="80" xmlns="http://www.w3.org/2000/svg"><g fill="none" fill-rule="evenodd"><path d="m0 0h80v80h-80z"/><path d="m60.1666667 70.9666667c-1.3 1.3-3.4 1.3-4.7 0l-7.0666667-7.0666667c-1.3-1.3-1.3-3.4 0-4.7 1.3-1.3 3.4-1.3 4.7 0l4.7 4.7 11.8-11.8c1.3-1.3 3.4-1.3 4.7 0 1.3 1.3 1.3 3.4 0 4.7zm-19.9-4.3h-26.9333334c-3.66666663 0-6.66666663-3-6.66666663-6.6666667v-40c0-3.6666667 3-6.6666667 6.66666663-6.6666667h53.3333334c3.6666666 0 6.6666666 3 6.6666666 6.6666667v22.2666667c-3.0333333-1.4333334-6.4-2.2666667-10-2.2666667-12.9 0-23.3333333 10.4333333-23.3333333 23.3333333 0 1.1333334.1 2.2333334.2666667 3.3333334zm-2.0333334-24.4333334c1.0666667.6666667 2.4666667.6666667 3.5333334 0l23.5666666-14.7333333c.8333334-.5333333 1.3333334-1.4333333 1.3333334-2.4 0-2.2333333-2.4333334-3.5666667-4.3333334-2.4l-22.3333333 13.9666667-22.3333333-13.9666667c-1.9-1.1666667-4.3333334.1666667-4.3333334 2.4 0 .9666667.5 1.8666667 1.3333334 2.4z" fill="#6ed485" fill-rule="nonzero"/></g></svg>