<svg height="462" viewBox="0 0 218 462" width="218" xmlns="http://www.w3.org/2000/svg"><g fill="none" fill-rule="evenodd"><path d="m0 162.247678v-17.247678-21-17-22-21-31.9941173c0-17.6725289 14.3228613-32.0058827 31.9910061-32.0058827h114.0089939 36 4.008994c17.66636 0 31.991006 14.3295218 31.991006 32.0058827v397.9882343c0 17.672529-14.322861 32.005883-31.991006 32.005883h-154.0179879c-17.6663606 0-31.9910061-14.329522-31.9910061-32.005883zm14.9944647-98.247678c-1.1015124 0-1.9944647.9024743-1.9944647 2.0096543v330.9806917c0 1.109901.8987528 2.009654 1.9944647 2.009654h188.0110703c1.101513 0 1.994465-.902474 1.994465-2.009654v-330.9806917c0-1.1099014-.898753-2.0096543-1.994465-2.0096543z" fill="#efefef" fill-rule="nonzero"/><g fill="#cdcdcd"><rect height="4" rx="1" width="37" x="90" y="38"/><circle cx="78" cy="40" r="3"/><circle cx="108.5" cy="22.5" r="4.5"/></g><circle cx="109" cy="429" fill="#efefef" r="16.5" stroke="#cdcdcd"/></g></svg>