<svg height="178" viewBox="0 0 200 178" width="200" xmlns="http://www.w3.org/2000/svg"><g fill="#61dafb"><path d="m199.715447 88.8211382c0-13.2113821-16.544715-25.7317073-41.910569-33.4959349 5.853659-25.8536586 3.252033-46.42276428-8.211382-53.00813013-2.642276-1.54471545-5.731707-2.27642276-9.105691-2.27642276v9.06504065c1.869919 0 3.373984.36585366 4.634146 1.05691054 5.528456 3.1707317 7.926829 15.2439025 6.056911 30.7723577-.447155 3.8211383-1.178862 7.8455285-2.073171 11.9512196-7.96748-1.9512196-16.666667-3.4552846-25.813008-4.4308943-5.487805-7.5203253-11.178862-14.3495935-16.910569-20.3252033 13.252032-12.3170732 25.691057-19.06504065 34.146341-19.06504065v-9.06504065c-11.178862 0-25.813008 7.96747967-40.6097558 21.7886179-14.796748-13.73983741-29.4308943-21.62601627-40.6097561-21.62601627v9.06504065c8.4146341 0 20.8943089 6.70731702 34.1463415 18.94308942-5.691057 5.9756098-11.3821139 12.7642276-16.7886179 20.2845529-9.1869919.9756097-17.8861789 2.4796747-25.8536586 4.4715447-.9349593-4.0650407-1.6260162-8.0081301-2.1138211-11.7886179-1.9105691-15.5284553.4471545-27.601626 5.9349593-30.8130081 1.2195122-.73170737 2.8048781-1.05691062 4.6747968-1.05691062v-9.06504065c-3.4146342 0-6.5040651.73170732-9.1869919 2.27642277-11.4227642 6.58536585-13.9837398 27.1138211-8.0894309 52.8861789-25.2845528 7.804878-41.74796745 20.2845528-41.74796745 33.4552845 0 13.2113818 16.54471545 25.7317078 41.91056915 33.4959348-5.8536586 25.853659-3.2520326 46.422764 8.2113821 53.00813 2.6422764 1.544716 5.7317073 2.276423 9.1463414 2.276423 11.1788618 0 25.8130082-7.96748 40.6097565-21.788618 14.796748 13.739838 29.430894 21.626016 40.609756 21.626016 3.414634 0 6.504065-.731707 9.186992-2.276422 11.422764-6.585366 13.983739-27.113822 8.08943-52.886179 25.203253-7.764228 41.666667-20.284553 41.666667-33.4552848zm-52.926829-27.1138211c-1.504065 5.2439024-3.373984 10.6504065-5.487805 16.0569105-1.666667-3.2520325-3.414634-6.504065-5.325203-9.7560975-1.869919-3.2520325-3.861789-6.4227642-5.853659-9.5121951 5.772358.8536585 11.341464 1.9105691 16.666667 3.2113821zm-18.617886 43.2926829c-3.170732 5.487805-6.422765 10.691057-9.796748 15.528455-6.056911.528456-12.195122.813008-18.373984.813008-6.1382114 0-12.2764228-.284552-18.2926829-.772357-3.3739838-4.837399-6.6666667-10-9.8373984-15.447155-3.0894309-5.325203-5.8943089-10.7317071-8.4552846-16.1788616 2.5203252-5.4471544 5.3658537-10.8943089 8.4146342-16.2195122 3.1707317-5.4878048 6.4227642-10.6910569 9.796748-15.5284552 6.0569105-.5284553 12.1951219-.8130082 18.3739837-.8130082 6.138211 0 12.276423.2845529 18.292683.7723577 3.373984 4.8373984 6.666667 10 9.837398 15.4471545 3.089431 5.3252033 5.894309 10.7317073 8.455285 16.1788618-2.560976 5.4471545-5.365854 10.8943089-8.414634 16.2195122zm13.130081-5.2845528c2.195122 5.4471548 4.065041 10.8943088 5.609756 16.1788618-5.325203 1.300813-10.934959 2.398374-16.747967 3.252032 1.99187-3.130081 3.983739-6.341463 5.853658-9.634146 1.869919-3.252032 3.617886-6.544715 5.284553-9.7967478zm-41.219512 43.3739838c-3.780488-3.902439-7.5609758-8.252033-11.3008132-13.00813 3.6585366.162601 7.398374.284553 11.1788618.284553 3.8211384 0 7.6016264-.081301 11.3008134-.284553-3.658537 4.756097-7.439025 9.105691-11.178862 13.00813zm-30.2439026-23.94309c-5.7723577-.853658-11.3414634-1.910569-16.6666667-3.211382 1.504065-5.243902 3.3739837-10.650406 5.4878049-16.0569102 1.6666667 3.2520322 3.4146341 6.5040652 5.3252032 9.7560972 1.9105691 3.252033 3.8617887 6.422765 5.8536586 9.512195zm30.0406504-84.5934955c3.7804882 3.9024391 7.5609752 8.2520325 11.3008132 13.0081301-3.658537-.1626016-7.398374-.2845528-11.178862-.2845528-3.8211382 0-7.601626.0813008-11.300813.2845528 3.6585366-4.7560976 7.4390244-9.105691 11.1788618-13.0081301zm-30.0813008 23.9430895c-1.99187 3.1300813-3.9837399 6.3414634-5.8536586 9.6341463-1.8699187 3.2520325-3.6178861 6.504065-5.2845528 9.7560976-2.195122-5.4471545-4.0650407-10.894309-5.6097561-16.1788618 5.3252032-1.2601626 10.9349593-2.3577236 16.7479675-3.2113821zm-36.7886179 50.894309c-14.3902439-6.138211-23.69918701-14.186992-23.69918701-20.5691058s9.30894311-14.4715447 23.69918701-20.5691057c3.4959349-1.504065 7.3170732-2.8455284 11.2601626-4.105691 2.3170732 7.9674796 5.3658536 16.2601626 9.1463414 24.7560975-3.7398374 8.4552846-6.7479674 16.707317-9.0243902 24.634146-4.0243902-1.260162-7.8455285-2.642276-11.3821138-4.146341zm21.8699187 58.089431c-5.5284553-3.170732-7.9268293-15.243903-6.0569106-30.772358.4471545-3.821138 1.1788618-7.845528 2.0731707-11.951219 7.9674797 1.951219 16.6666667 3.455284 25.8130082 4.430894 5.4878049 7.520325 11.1788618 14.349593 16.9105691 20.325203-13.2520325 12.317073-25.6910569 19.065041-34.1463415 19.065041-1.8292683-.040651-3.3739837-.406504-4.5934959-1.097561zm96.4227642-30.97561c1.910569 15.528455-.447154 27.601626-5.934959 30.813008-1.219513.731707-2.804878 1.056911-4.674797 1.056911-8.414634 0-20.894309-6.707317-34.146342-18.94309 5.691057-5.975609 11.382114-12.764227 16.788618-20.284553 9.186992-.975609 17.886179-2.479674 25.853659-4.471544.934959 4.105691 1.666667 8.04878 2.113821 11.829268zm15.650407-27.113821c-3.495935 1.504065-7.317074 2.845528-11.260163 4.105691-2.317073-7.96748-5.365854-16.2601626-9.146342-24.7560976 3.739838-8.4552846 6.747968-16.7073171 9.024391-24.6341463 4.02439 1.2601626 7.845528 2.6422764 11.422764 4.1463414 14.390244 6.1382114 23.699187 14.1869919 23.699187 20.5691057-.04065 6.3821138-9.349594 14.4715448-23.739837 20.5691058z"/><circle cx="99.95935" cy="88.821138" r="18.577236"/></g></svg>