<?xml version="1.0" standalone="no"?>
<!DOCTYPE svg PUBLIC "-//W3C//DTD SVG 20010904//EN"
 "http://www.w3.org/TR/2001/REC-SVG-20010904/DTD/svg10.dtd">
<svg version="1.0" xmlns="http://www.w3.org/2000/svg"
 width="700.000000pt" height="700.000000pt" viewBox="0 0 700.000000 700.000000"
 preserveAspectRatio="xMidYMid meet">
<metadata>
Created by potrace 1.14, written by Peter Selinger 2001-2017
</metadata>
<g transform="translate(0.000000,700.000000) scale(0.100000,-0.100000)"
fill="#000000" stroke="none">
<path d="M870 2436 l0 -1576 306 0 306 0 -5 817 c-3 450 -9 836 -13 858 -6 37
-1 33 74 -72 135 -188 190 -253 540 -646 314 -352 339 -378 367 -375 25 3 73
51 308 313 344 383 457 517 572 678 50 69 92 124 93 122 2 -2 -1 -102 -7 -223
-6 -121 -11 -501 -11 -846 l0 -626 311 2 312 3 71 172 71 173 635 0 635 0 71
-173 71 -172 336 -3 c185 -1 337 2 337 6 0 5 -319 712 -709 1573 l-709 1564
-33 0 -32 0 -367 -843 c-203 -464 -371 -846 -374 -849 -3 -4 -6 377 -6 845 l0
852 -28 0 c-25 0 -121 -104 -782 -840 l-754 -841 -37 38 c-20 21 -364 398
-764 838 -603 663 -733 801 -756 803 l-29 3 0 -1575z m3930 380 c0 -42 154
-469 265 -736 70 -168 129 -311 132 -317 4 -10 -80 -13 -401 -13 -235 0 -406
4 -406 9 0 5 56 145 125 310 107 260 265 704 265 747 0 8 5 14 10 14 6 0 10
-6 10 -14z"/>
</g>
</svg>
