<svg width="474" height="37" viewBox="0 0 474 37">
    <g stroke="none" stroke-width="1" fill="none" fill-rule="evenodd">
        <rect fill="#EFEFEF" x="0" y="0" width="474" height="37"/>
        <g transform="translate(18.000000, 14.000000)" fill="#CDCDCD" fill-rule="nonzero">
            <circle cx="4.5" cy="4.5" r="4.5"/>
            <circle cx="19.5" cy="4.5" r="4.5"/>
            <circle cx="34.5" cy="4.5" r="4.5"/>
        </g>
        <polygon points="437 8 458 8 458 29 437 29"/>
        <path d="M440.5,23.75 L454.5,23.75 C454.98125,23.75 455.375,23.35625 455.375,22.875 C455.375,22.39375 454.98125,22 454.5,22 L440.5,22 C440.01875,22 439.625,22.39375 439.625,22.875 C439.625,23.35625 440.01875,23.75 440.5,23.75 Z M440.5,19.375 L454.5,19.375 C454.98125,19.375 455.375,18.98125 455.375,18.5 C455.375,18.01875 454.98125,17.625 454.5,17.625 L440.5,17.625 C440.01875,17.625 439.625,18.01875 439.625,18.5 C439.625,18.98125 440.01875,19.375 440.5,19.375 Z M439.625,14.125 C439.625,14.60625 440.01875,15 440.5,15 L454.5,15 C454.98125,15 455.375,14.60625 455.375,14.125 C455.375,13.64375 454.98125,13.25 454.5,13.25 L440.5,13.25 C440.01875,13.25 439.625,13.64375 439.625,14.125 Z" fill="#CDCDCD" fill-rule="nonzero"/>
    </g>
</svg>