<svg width="218" height="462" viewBox="0 0 218 462">
    <g stroke="none" stroke-width="1" fill="none" fill-rule="evenodd">
        <path d="M0,162.247678 L0,145 L0,124 L0,107 L0,85 L0,64 L0,32.0058827 C0,14.3333538 14.3228613,0 31.9910061,0 L146,0 L182,0 L186.008994,0 C203.675354,0 218,14.3295218 218,32.0058827 L218,429.994117 C218,447.666646 203.677139,462 186.008994,462 L31.9910061,462 C14.3246455,462 0,447.670478 0,429.994117 L0,162.247678 Z M14.9944647,64 C13.8929523,64 13,64.9024743 13,66.0096543 L13,396.990346 C13,398.100247 13.8987528,399 14.9944647,399 L203.005535,399 C204.107048,399 205,398.097526 205,396.990346 L205,66.0096543 C205,64.8997529 204.101247,64 203.005535,64 L14.9944647,64 Z" fill="#EFEFEF" fill-rule="nonzero"/>
        <rect fill="#CDCDCD" x="90" y="38" width="37" height="4" rx="1"/>
        <circle fill="#CDCDCD" cx="78" cy="40" r="3"/>
        <circle fill="#CDCDCD" cx="108.5" cy="22.5" r="4.5"/>
        <circle stroke="#CDCDCD" fill="#EFEFEF" cx="109" cy="429" r="16.5"/>
    </g>
</svg>